<?xml version="1.0" encoding="UTF-8"?>
<!DOCTYPE svg PUBLIC "-//W3C//DTD SVG 1.1//EN" "http://www.w3.org/Graphics/SVG/1.1/DTD/svg11.dtd">
<svg version="1.2" width="73.62mm" height="11.55mm" viewBox="1300 16179 7362 1155" preserveAspectRatio="xMidYMid" fill-rule="evenodd" stroke-width="28.222" stroke-linejoin="round" xmlns="http://www.w3.org/2000/svg" xmlns:ooo="http://xml.openoffice.org/svg/export" xmlns:xlink="http://www.w3.org/1999/xlink" xmlns:presentation="http://sun.com/xmlns/staroffice/presentation" xmlns:smil="http://www.w3.org/2001/SMIL20/" xmlns:anim="urn:oasis:names:tc:opendocument:xmlns:animation:1.0" xml:space="preserve">
 <defs class="EmbeddedBulletChars">
  <g id="bullet-char-template-57356" transform="scale(0.00048828125,-0.00048828125)">
   <path d="M 580,1141 L 1163,571 580,0 -4,571 580,1141 Z"/>
  </g>
  <g id="bullet-char-template-57354" transform="scale(0.00048828125,-0.00048828125)">
   <path d="M 8,1128 L 1137,1128 1137,0 8,0 8,1128 Z"/>
  </g>
  <g id="bullet-char-template-10146" transform="scale(0.00048828125,-0.00048828125)">
   <path d="M 174,0 L 602,739 174,1481 1456,739 174,0 Z M 1358,739 L 309,1346 659,739 1358,739 Z"/>
  </g>
  <g id="bullet-char-template-10132" transform="scale(0.00048828125,-0.00048828125)">
   <path d="M 2015,739 L 1276,0 717,0 1260,543 174,543 174,936 1260,936 717,1481 1274,1481 2015,739 Z"/>
  </g>
  <g id="bullet-char-template-10007" transform="scale(0.00048828125,-0.00048828125)">
   <path d="M 0,-2 C -7,14 -16,27 -25,37 L 356,567 C 262,823 215,952 215,954 215,979 228,992 255,992 264,992 276,990 289,987 310,991 331,999 354,1012 L 381,999 492,748 772,1049 836,1024 860,1049 C 881,1039 901,1025 922,1006 886,937 835,863 770,784 769,783 710,716 594,584 L 774,223 C 774,196 753,168 711,139 L 727,119 C 717,90 699,76 672,76 641,76 570,178 457,381 L 164,-76 C 142,-110 111,-127 72,-127 30,-127 9,-110 8,-76 1,-67 -2,-52 -2,-32 -2,-23 -1,-13 0,-2 Z"/>
  </g>
  <g id="bullet-char-template-10004" transform="scale(0.00048828125,-0.00048828125)">
   <path d="M 285,-33 C 182,-33 111,30 74,156 52,228 41,333 41,471 41,549 55,616 82,672 116,743 169,778 240,778 293,778 328,747 346,684 L 369,508 C 377,444 397,411 428,410 L 1163,1116 C 1174,1127 1196,1133 1229,1133 1271,1133 1292,1118 1292,1087 L 1292,965 C 1292,929 1282,901 1262,881 L 442,47 C 390,-6 338,-33 285,-33 Z"/>
  </g>
  <g id="bullet-char-template-9679" transform="scale(0.00048828125,-0.00048828125)">
   <path d="M 813,0 C 632,0 489,54 383,161 276,268 223,411 223,592 223,773 276,916 383,1023 489,1130 632,1184 813,1184 992,1184 1136,1130 1245,1023 1353,916 1407,772 1407,592 1407,412 1353,268 1245,161 1136,54 992,0 813,0 Z"/>
  </g>
  <g id="bullet-char-template-8226" transform="scale(0.00048828125,-0.00048828125)">
   <path d="M 346,457 C 273,457 209,483 155,535 101,586 74,649 74,723 74,796 101,859 155,911 209,963 273,989 346,989 419,989 480,963 531,910 582,859 608,796 608,723 608,648 583,586 532,535 482,483 420,457 346,457 Z"/>
  </g>
  <g id="bullet-char-template-8211" transform="scale(0.00048828125,-0.00048828125)">
   <path d="M -4,459 L 1135,459 1135,606 -4,606 -4,459 Z"/>
  </g>
  <g id="bullet-char-template-61548" transform="scale(0.00048828125,-0.00048828125)">
   <path d="M 173,740 C 173,903 231,1043 346,1159 462,1274 601,1332 765,1332 928,1332 1067,1274 1183,1159 1299,1043 1357,903 1357,740 1357,577 1299,437 1183,322 1067,206 928,148 765,148 601,148 462,206 346,322 231,437 173,577 173,740 Z"/>
  </g>
 </defs>
 <g class="Page">
  <g class="Group">
   <g class="Group">
    <g class="com.sun.star.drawing.ClosedBezierShape">
     <g id="id3">
      <rect class="BoundingBox" stroke="none" fill="none" x="3244" y="16513" width="479" height="738"/>
      <path fill="rgb(255,255,255)" stroke="none" d="M 3623,16760 C 3623,16713 3610,16676 3584,16648 3558,16620 3524,16606 3482,16606 3439,16606 3405,16619 3380,16646 3355,16673 3342,16710 3342,16757 3342,16805 3356,16844 3383,16874 3410,16904 3444,16919 3486,16919 3525,16919 3558,16904 3584,16875 3610,16846 3623,16807 3623,16760 Z M 3722,16759 C 3722,16833 3701,16893 3658,16941 3616,16989 3562,17013 3495,17013 3456,17013 3422,17005 3392,16989 3362,16973 3346,16951 3342,16923 L 3342,17250 3244,17250 3244,16527 3342,16527 3342,16595 C 3347,16570 3364,16551 3393,16536 3422,16521 3456,16513 3493,16513 3561,16513 3615,16536 3658,16582 3701,16628 3722,16687 3722,16759 Z"/>
     </g>
    </g>
    <g class="com.sun.star.drawing.ClosedBezierShape">
     <g id="id4">
      <rect class="BoundingBox" stroke="none" fill="none" x="3806" y="16295" width="127" height="704"/>
      <path fill="rgb(255,255,255)" stroke="none" d="M 3918,16998 L 3820,16998 3820,16527 3918,16527 3918,16998 Z M 3932,16357 C 3932,16374 3926,16389 3913,16402 3901,16414 3886,16420 3869,16420 3851,16420 3837,16414 3824,16402 3812,16389 3806,16375 3806,16357 3806,16341 3812,16326 3824,16314 3837,16301 3851,16295 3869,16295 3886,16295 3901,16301 3913,16314 3926,16326 3932,16341 3932,16357 Z"/>
     </g>
    </g>
    <g class="com.sun.star.drawing.ClosedBezierShape">
     <g id="id5">
      <rect class="BoundingBox" stroke="none" fill="none" x="4063" y="16179" width="98" height="820"/>
      <path fill="rgb(255,255,255)" stroke="none" d="M 4160,16998 C 4128,16998 4095,16998 4063,16998 4063,16725 4063,16452 4063,16179 4095,16179 4128,16179 4160,16179 4160,16452 4160,16725 4160,16998 Z"/>
     </g>
    </g>
    <g class="com.sun.star.drawing.ClosedBezierShape">
     <g id="id6">
      <rect class="BoundingBox" stroke="none" fill="none" x="4246" y="16513" width="503" height="501"/>
      <path fill="rgb(255,255,255)" stroke="none" d="M 4651,16761 C 4651,16716 4636,16679 4607,16650 4577,16621 4540,16606 4497,16606 4453,16606 4416,16621 4387,16650 4358,16679 4343,16716 4343,16761 4343,16806 4358,16844 4388,16875 4418,16905 4454,16920 4497,16920 4541,16920 4577,16905 4607,16875 4636,16844 4651,16806 4651,16761 Z M 4748,16761 C 4748,16831 4724,16890 4675,16939 4626,16988 4566,17013 4496,17013 4426,17013 4367,16989 4319,16940 4270,16891 4246,16831 4246,16761 4246,16691 4270,16632 4318,16584 4366,16537 4425,16513 4496,16513 4567,16513 4627,16537 4675,16585 4724,16633 4748,16691 4748,16761 Z"/>
     </g>
    </g>
    <g class="com.sun.star.drawing.ClosedBezierShape">
     <g id="id7">
      <rect class="BoundingBox" stroke="none" fill="none" x="4783" y="16344" width="225" height="655"/>
      <path fill="rgb(255,255,255)" stroke="none" d="M 5007,16616 C 4983,16616 4959,16616 4935,16616 4935,16743 4935,16871 4935,16998 4903,16998 4870,16998 4838,16998 4838,16871 4838,16743 4838,16616 4820,16616 4802,16616 4784,16616 4784,16586 4784,16557 4784,16527 4802,16527 4820,16527 4838,16527 4838,16466 4838,16405 4838,16344 4870,16344 4903,16344 4935,16344 4935,16405 4935,16466 4935,16527 4959,16527 4983,16527 5007,16527 5007,16557 5007,16586 5007,16616 Z"/>
     </g>
    </g>
    <g class="com.sun.star.drawing.ClosedBezierShape">
     <g id="id8">
      <rect class="BoundingBox" stroke="none" fill="none" x="5380" y="16179" width="98" height="820"/>
      <path fill="rgb(255,255,255)" stroke="none" d="M 5477,16998 C 5445,16998 5412,16998 5380,16998 5380,16725 5380,16452 5380,16179 5412,16179 5445,16179 5477,16179 5477,16452 5477,16725 5477,16998 Z"/>
     </g>
    </g>
    <g class="com.sun.star.drawing.ClosedBezierShape">
     <g id="id9">
      <rect class="BoundingBox" stroke="none" fill="none" x="5605" y="16295" width="128" height="704"/>
      <path fill="rgb(255,255,255)" stroke="none" d="M 5718,16998 L 5620,16998 5620,16527 5718,16527 5718,16998 Z M 5732,16357 C 5732,16374 5726,16389 5713,16402 5701,16414 5686,16420 5669,16420 5651,16420 5637,16414 5624,16402 5612,16389 5606,16375 5606,16357 5606,16341 5612,16326 5624,16314 5637,16301 5651,16295 5669,16295 5686,16295 5701,16301 5713,16314 5726,16326 5732,16341 5732,16357 Z"/>
     </g>
    </g>
    <g class="com.sun.star.drawing.ClosedBezierShape">
     <g id="id10">
      <rect class="BoundingBox" stroke="none" fill="none" x="5859" y="16179" width="480" height="835"/>
      <path fill="rgb(255,255,255)" stroke="none" d="M 6239,16760 C 6239,16713 6226,16676 6200,16648 6174,16620 6140,16606 6098,16606 6055,16606 6021,16619 5996,16646 5971,16673 5958,16710 5958,16757 5958,16805 5972,16844 5999,16874 6026,16904 6060,16919 6102,16919 6141,16919 6174,16904 6200,16875 6226,16846 6239,16807 6239,16760 Z M 6338,16759 C 6338,16833 6317,16893 6274,16941 6232,16989 6178,17013 6111,17013 6072,17013 6038,17005 6008,16989 5978,16973 5962,16951 5958,16923 L 5958,16998 5860,16998 5860,16179 5958,16179 5958,16595 C 5963,16570 5980,16551 6009,16536 6038,16521 6072,16513 6109,16513 6177,16513 6231,16536 6274,16582 6317,16628 6338,16687 6338,16759 Z"/>
     </g>
    </g>
    <g class="com.sun.star.drawing.ClosedBezierShape">
     <g id="id11">
      <rect class="BoundingBox" stroke="none" fill="none" x="6429" y="16513" width="272" height="486"/>
      <path fill="rgb(255,255,255)" stroke="none" d="M 6700,16526 L 6678,16617 C 6665,16613 6656,16611 6650,16609 6644,16608 6638,16607 6632,16607 6597,16607 6571,16622 6553,16652 6535,16682 6526,16729 6526,16792 L 6526,16998 6429,16998 6429,16527 6526,16527 6526,16605 C 6525,16576 6535,16553 6558,16537 6580,16521 6610,16513 6647,16513 6656,16513 6665,16514 6674,16516 6682,16518 6691,16521 6700,16526 Z"/>
     </g>
    </g>
    <g class="com.sun.star.drawing.ClosedBezierShape">
     <g id="id12">
      <rect class="BoundingBox" stroke="none" fill="none" x="6692" y="16513" width="480" height="501"/>
      <path fill="rgb(255,255,255)" stroke="none" d="M 7073,16757 C 7073,16710 7060,16673 7035,16646 7010,16619 6976,16606 6933,16606 6891,16606 6857,16620 6830,16648 6804,16676 6791,16713 6791,16760 6791,16808 6804,16846 6830,16875 6856,16904 6889,16919 6929,16919 6970,16919 7004,16904 7032,16874 7059,16844 7073,16805 7073,16757 Z M 7171,16998 L 7073,16998 7073,16923 C 7069,16951 7052,16973 7023,16989 6994,17005 6959,17013 6919,17013 6853,17013 6799,16989 6757,16941 6714,16894 6693,16833 6693,16759 6693,16687 6714,16628 6757,16582 6799,16536 6854,16513 6921,16513 6959,16513 6993,16521 7022,16536 7052,16551 7069,16570 7073,16595 L 7073,16527 7171,16527 7171,16998 Z"/>
     </g>
    </g>
    <g class="com.sun.star.drawing.ClosedBezierShape">
     <g id="id13">
      <rect class="BoundingBox" stroke="none" fill="none" x="7306" y="16513" width="272" height="486"/>
      <path fill="rgb(255,255,255)" stroke="none" d="M 7577,16526 L 7555,16617 C 7542,16613 7533,16611 7527,16609 7521,16608 7515,16607 7509,16607 7474,16607 7448,16622 7430,16652 7412,16682 7403,16729 7403,16792 L 7403,16998 7306,16998 7306,16527 7403,16527 7403,16605 C 7402,16576 7412,16553 7435,16537 7457,16521 7487,16513 7524,16513 7533,16513 7542,16514 7551,16516 7559,16518 7568,16521 7577,16526 Z"/>
     </g>
    </g>
    <g class="com.sun.star.drawing.ClosedBezierShape">
     <g id="id14">
      <rect class="BoundingBox" stroke="none" fill="none" x="7613" y="16295" width="128" height="704"/>
      <path fill="rgb(255,255,255)" stroke="none" d="M 7726,16998 L 7628,16998 7628,16527 7726,16527 7726,16998 Z M 7740,16357 C 7740,16374 7734,16389 7721,16402 7709,16414 7694,16420 7677,16420 7659,16420 7645,16414 7632,16402 7620,16389 7614,16375 7614,16357 7614,16341 7620,16326 7632,16314 7645,16301 7659,16295 7677,16295 7694,16295 7709,16301 7721,16314 7734,16326 7740,16341 7740,16357 Z"/>
     </g>
    </g>
    <g class="com.sun.star.drawing.ClosedBezierShape">
     <g id="id15">
      <rect class="BoundingBox" stroke="none" fill="none" x="7819" y="16513" width="462" height="501"/>
      <path fill="rgb(255,255,255)" stroke="none" d="M 8183,16710 C 8179,16681 8166,16656 8143,16636 8120,16616 8089,16606 8052,16606 8016,16606 7986,16616 7961,16637 7937,16658 7922,16682 7918,16710 L 8183,16710 Z M 8280,16784 L 7916,16784 C 7919,16824 7932,16856 7956,16881 7981,16906 8013,16919 8054,16919 8085,16919 8112,16913 8133,16901 8155,16889 8174,16868 8189,16840 L 8269,16880 C 8246,16927 8217,16961 8181,16982 8145,17003 8102,17013 8053,17013 7982,17013 7925,16990 7883,16943 7840,16897 7819,16836 7819,16760 7819,16689 7841,16631 7886,16584 7931,16537 7986,16513 8052,16513 8119,16513 8174,16535 8217,16578 8259,16621 8280,16678 8280,16747 L 8280,16784 Z"/>
     </g>
    </g>
    <g class="com.sun.star.drawing.ClosedBezierShape">
     <g id="id16">
      <rect class="BoundingBox" stroke="none" fill="none" x="8312" y="16513" width="350" height="501"/>
      <path fill="rgb(255,255,255)" stroke="none" d="M 8661,16866 C 8661,16911 8645,16947 8612,16973 8580,17000 8536,17013 8482,17013 8440,17013 8405,17005 8376,16988 8347,16971 8326,16944 8312,16907 L 8393,16858 C 8404,16883 8417,16900 8432,16910 8446,16919 8464,16924 8486,16924 8510,16924 8529,16919 8543,16910 8556,16900 8563,16887 8563,16871 8563,16853 8557,16839 8544,16830 8532,16820 8507,16808 8471,16794 8424,16778 8390,16758 8368,16734 8347,16710 8336,16681 8336,16648 8336,16606 8350,16573 8378,16549 8406,16525 8445,16513 8494,16513 8530,16513 8561,16521 8585,16536 8610,16551 8629,16576 8644,16611 L 8565,16656 C 8554,16635 8543,16621 8532,16613 8521,16605 8508,16601 8491,16601 8472,16601 8457,16605 8447,16613 8437,16621 8432,16632 8432,16646 8432,16661 8438,16674 8449,16684 8460,16694 8482,16705 8513,16715 8565,16732 8603,16752 8626,16776 8649,16800 8661,16830 8661,16866 Z"/>
     </g>
    </g>
   </g>
   <g class="Group">
    <g class="com.sun.star.drawing.ClosedBezierShape">
     <g id="id17">
      <rect class="BoundingBox" stroke="none" fill="none" x="1300" y="16525" width="298" height="476"/>
      <path fill="rgb(16,94,154)" stroke="none" d="M 1300,16536 C 1339,16536 1378,16536 1417,16536 1417,16561 1417,16585 1417,16610 L 1418,16610 C 1443,16557 1494,16525 1556,16525 1570,16525 1584,16528 1597,16532 1597,16569 1597,16606 1597,16643 1578,16639 1560,16635 1542,16635 1432,16635 1417,16727 1417,16752 1417,16834 1417,16917 1417,17000 1378,17000 1339,17000 1300,17000 1300,16846 1300,16691 1300,16536 Z"/>
     </g>
    </g>
    <g class="com.sun.star.drawing.ClosedBezierShape">
     <g id="id18">
      <rect class="BoundingBox" stroke="none" fill="none" x="2197" y="16525" width="300" height="377"/>
      <path fill="rgb(40,159,204)" stroke="none" d="M 2315,16752 C 2315,16727 2330,16635 2440,16635 2458,16635 2476,16639 2496,16643 2496,16606 2496,16569 2496,16532 2482,16528 2468,16525 2454,16525 2392,16525 2341,16557 2316,16610 2315,16610 2315,16610 2315,16610 2315,16585 2315,16561 2315,16536 2276,16536 2237,16536 2198,16536 2198,16658 2198,16780 2198,16901 2237,16901 2276,16901 2315,16901 2315,16851 2315,16802 2315,16752 Z"/>
     </g>
    </g>
    <g class="com.sun.star.drawing.ClosedBezierShape">
     <g id="id19">
      <rect class="BoundingBox" stroke="none" fill="none" x="2534" y="16525" width="507" height="489"/>
      <path fill="rgb(40,159,204)" stroke="none" d="M 2651,16768 C 2651,16695 2702,16629 2787,16629 2872,16629 2923,16695 2923,16768 2923,16840 2872,16908 2787,16908 2702,16908 2651,16840 2651,16768 Z M 2534,16768 C 2534,16819 2548,16865 2572,16901 2599,16901 2626,16901 2654,16901 2654,16927 2654,16953 2654,16978 2693,16999 2738,17012 2787,17012 2927,17012 3040,16914 3040,16768 3040,16623 2927,16525 2787,16525 2647,16525 2534,16623 2534,16768 Z"/>
     </g>
    </g>
    <g class="com.sun.star.drawing.ClosedBezierShape">
     <g id="id20">
      <rect class="BoundingBox" stroke="none" fill="none" x="1636" y="16525" width="472" height="488"/>
      <path fill="rgb(16,94,154)" stroke="none" d="M 1990,16722 C 1911,16722 1832,16722 1753,16722 1761,16656 1804,16612 1872,16612 1945,16612 1989,16655 1990,16722 Z M 1753,16809 C 1871,16809 1989,16809 2107,16809 2107,16798 2107,16788 2107,16777 2107,16616 2019,16525 1889,16525 1749,16525 1636,16623 1636,16768 1636,16910 1742,17007 1878,17011 1878,16980 1878,16949 1878,16919 1812,16919 1760,16877 1753,16809 Z"/>
     </g>
    </g>
    <g class="com.sun.star.drawing.ClosedBezierShape">
     <g id="id21">
      <rect class="BoundingBox" stroke="none" fill="none" x="1876" y="16388" width="83" height="78"/>
      <path fill="rgb(16,94,154)" stroke="none" d="M 1958,16388 C 1937,16421 1909,16446 1876,16465 1876,16439 1876,16414 1876,16388 1903,16388 1931,16388 1958,16388 Z"/>
     </g>
    </g>
    <g class="Group">
     <g class="com.sun.star.drawing.ClosedBezierShape">
      <g id="id22">
       <rect class="BoundingBox" stroke="none" fill="none" x="2344" y="17017" width="67" height="311"/>
       <path fill="rgb(143,192,214)" stroke="none" d="M 2405,17132 L 2349,17132 2349,17327 2405,17327 2405,17132 Z M 2377,17017 C 2368,17017 2360,17020 2354,17027 2347,17033 2344,17041 2344,17050 2344,17059 2347,17067 2354,17073 2360,17080 2368,17083 2377,17083 2386,17083 2394,17080 2400,17073 2407,17067 2410,17059 2410,17050 2410,17041 2407,17033 2400,17027 2394,17020 2386,17017 2377,17017 Z"/>
      </g>
     </g>
     <g class="com.sun.star.drawing.ClosedBezierShape">
      <g id="id23">
       <rect class="BoundingBox" stroke="none" fill="none" x="2449" y="16990" width="57" height="339"/>
       <path fill="rgb(143,192,214)" stroke="none" d="M 2505,16990 C 2486,16990 2468,16990 2449,16990 2449,17102 2449,17215 2449,17327 2468,17327 2486,17327 2505,17327 2505,17215 2505,17102 2505,16990 Z"/>
      </g>
     </g>
     <g class="com.sun.star.drawing.ClosedBezierShape">
      <g id="id24">
       <rect class="BoundingBox" stroke="none" fill="none" x="2530" y="17126" width="146" height="208"/>
       <path fill="rgb(143,192,214)" stroke="none" d="M 2665,17146 C 2658,17140 2648,17135 2637,17131 2625,17128 2614,17126 2603,17126 2584,17126 2570,17132 2558,17144 2547,17156 2541,17171 2541,17189 2541,17203 2544,17213 2551,17221 2558,17228 2568,17235 2580,17240 2582,17241 2585,17242 2590,17244 2600,17248 2607,17251 2612,17255 2617,17258 2619,17263 2619,17269 2619,17275 2617,17280 2613,17284 2608,17288 2603,17290 2597,17290 2589,17290 2582,17288 2575,17284 2568,17279 2562,17274 2555,17267 L 2530,17300 C 2538,17311 2549,17319 2561,17324 2573,17330 2585,17333 2599,17333 2620,17333 2638,17327 2653,17314 2668,17302 2675,17285 2675,17264 2675,17249 2671,17237 2664,17229 2657,17221 2647,17214 2634,17208 2632,17207 2628,17206 2622,17203 2612,17200 2605,17196 2601,17193 2596,17191 2594,17187 2594,17182 2594,17177 2596,17173 2600,17170 2603,17167 2607,17165 2612,17165 2617,17165 2623,17166 2628,17169 2633,17171 2637,17175 2642,17179 L 2665,17146 Z"/>
      </g>
     </g>
    </g>
   </g>
  </g>
 </g>
</svg>