<?xml version="1.0" encoding="UTF-8"?>
<!DOCTYPE svg PUBLIC "-//W3C//DTD SVG 1.1//EN" "http://www.w3.org/Graphics/SVG/1.1/DTD/svg11.dtd">
<svg version="1.2" width="44.25mm" height="11.55mm" viewBox="1376 4039 4425 1155" preserveAspectRatio="xMidYMid" fill-rule="evenodd" stroke-width="28.222" stroke-linejoin="round" xmlns="http://www.w3.org/2000/svg" xmlns:ooo="http://xml.openoffice.org/svg/export" xmlns:xlink="http://www.w3.org/1999/xlink" xmlns:presentation="http://sun.com/xmlns/staroffice/presentation" xmlns:smil="http://www.w3.org/2001/SMIL20/" xmlns:anim="urn:oasis:names:tc:opendocument:xmlns:animation:1.0" xml:space="preserve">
 <defs class="EmbeddedBulletChars">
  <g id="bullet-char-template-57356" transform="scale(0.00048828125,-0.00048828125)">
   <path d="M 580,1141 L 1163,571 580,0 -4,571 580,1141 Z"/>
  </g>
  <g id="bullet-char-template-57354" transform="scale(0.00048828125,-0.00048828125)">
   <path d="M 8,1128 L 1137,1128 1137,0 8,0 8,1128 Z"/>
  </g>
  <g id="bullet-char-template-10146" transform="scale(0.00048828125,-0.00048828125)">
   <path d="M 174,0 L 602,739 174,1481 1456,739 174,0 Z M 1358,739 L 309,1346 659,739 1358,739 Z"/>
  </g>
  <g id="bullet-char-template-10132" transform="scale(0.00048828125,-0.00048828125)">
   <path d="M 2015,739 L 1276,0 717,0 1260,543 174,543 174,936 1260,936 717,1481 1274,1481 2015,739 Z"/>
  </g>
  <g id="bullet-char-template-10007" transform="scale(0.00048828125,-0.00048828125)">
   <path d="M 0,-2 C -7,14 -16,27 -25,37 L 356,567 C 262,823 215,952 215,954 215,979 228,992 255,992 264,992 276,990 289,987 310,991 331,999 354,1012 L 381,999 492,748 772,1049 836,1024 860,1049 C 881,1039 901,1025 922,1006 886,937 835,863 770,784 769,783 710,716 594,584 L 774,223 C 774,196 753,168 711,139 L 727,119 C 717,90 699,76 672,76 641,76 570,178 457,381 L 164,-76 C 142,-110 111,-127 72,-127 30,-127 9,-110 8,-76 1,-67 -2,-52 -2,-32 -2,-23 -1,-13 0,-2 Z"/>
  </g>
  <g id="bullet-char-template-10004" transform="scale(0.00048828125,-0.00048828125)">
   <path d="M 285,-33 C 182,-33 111,30 74,156 52,228 41,333 41,471 41,549 55,616 82,672 116,743 169,778 240,778 293,778 328,747 346,684 L 369,508 C 377,444 397,411 428,410 L 1163,1116 C 1174,1127 1196,1133 1229,1133 1271,1133 1292,1118 1292,1087 L 1292,965 C 1292,929 1282,901 1262,881 L 442,47 C 390,-6 338,-33 285,-33 Z"/>
  </g>
  <g id="bullet-char-template-9679" transform="scale(0.00048828125,-0.00048828125)">
   <path d="M 813,0 C 632,0 489,54 383,161 276,268 223,411 223,592 223,773 276,916 383,1023 489,1130 632,1184 813,1184 992,1184 1136,1130 1245,1023 1353,916 1407,772 1407,592 1407,412 1353,268 1245,161 1136,54 992,0 813,0 Z"/>
  </g>
  <g id="bullet-char-template-8226" transform="scale(0.00048828125,-0.00048828125)">
   <path d="M 346,457 C 273,457 209,483 155,535 101,586 74,649 74,723 74,796 101,859 155,911 209,963 273,989 346,989 419,989 480,963 531,910 582,859 608,796 608,723 608,648 583,586 532,535 482,483 420,457 346,457 Z"/>
  </g>
  <g id="bullet-char-template-8211" transform="scale(0.00048828125,-0.00048828125)">
   <path d="M -4,459 L 1135,459 1135,606 -4,606 -4,459 Z"/>
  </g>
  <g id="bullet-char-template-61548" transform="scale(0.00048828125,-0.00048828125)">
   <path d="M 173,740 C 173,903 231,1043 346,1159 462,1274 601,1332 765,1332 928,1332 1067,1274 1183,1159 1299,1043 1357,903 1357,740 1357,577 1299,437 1183,322 1067,206 928,148 765,148 601,148 462,206 346,322 231,437 173,577 173,740 Z"/>
  </g>
 </defs>
 <g class="Page">
  <g class="Group">
   <g class="Group">
    <g class="com.sun.star.drawing.ClosedBezierShape">
     <g id="id3">
      <rect class="BoundingBox" stroke="none" fill="none" x="3320" y="4372" width="479" height="739"/>
      <path fill="rgb(255,255,255)" stroke="none" d="M 3699,4620 C 3699,4573 3686,4536 3660,4508 3634,4480 3600,4466 3558,4466 3515,4466 3481,4479 3456,4506 3431,4533 3418,4570 3418,4617 3418,4665 3432,4704 3459,4734 3486,4764 3520,4779 3562,4779 3601,4779 3634,4764 3660,4735 3686,4706 3699,4667 3699,4620 Z M 3798,4619 C 3798,4693 3777,4753 3734,4801 3692,4849 3638,4873 3571,4873 3532,4873 3498,4865 3468,4849 3438,4833 3422,4811 3418,4783 L 3418,5110 3320,5110 3320,4387 3418,4387 3418,4455 C 3423,4430 3440,4411 3469,4396 3498,4381 3532,4373 3569,4373 3637,4373 3691,4396 3734,4442 3777,4488 3798,4547 3798,4619 Z"/>
     </g>
    </g>
    <g class="com.sun.star.drawing.ClosedBezierShape">
     <g id="id4">
      <rect class="BoundingBox" stroke="none" fill="none" x="3885" y="4387" width="382" height="488"/>
      <path fill="rgb(255,255,255)" stroke="none" d="M 4266,4653 C 4266,4728 4250,4783 4219,4819 4188,4855 4140,4873 4076,4873 4010,4873 3962,4855 3931,4819 3900,4783 3885,4728 3885,4653 L 3885,4387 3983,4387 3983,4650 C 3983,4697 3990,4730 4004,4750 4018,4769 4042,4779 4075,4779 4109,4779 4133,4769 4146,4750 4160,4731 4167,4697 4167,4650 L 4167,4387 4266,4387 4266,4653 Z"/>
     </g>
    </g>
    <g class="com.sun.star.drawing.ClosedBezierShape">
     <g id="id5">
      <rect class="BoundingBox" stroke="none" fill="none" x="4388" y="4039" width="479" height="835"/>
      <path fill="rgb(255,255,255)" stroke="none" d="M 4767,4620 C 4767,4573 4754,4536 4728,4508 4702,4480 4668,4466 4626,4466 4583,4466 4549,4479 4524,4506 4499,4533 4486,4570 4486,4617 4486,4665 4500,4704 4527,4734 4554,4764 4588,4779 4630,4779 4669,4779 4702,4764 4728,4735 4754,4706 4767,4667 4767,4620 Z M 4866,4619 C 4866,4693 4845,4753 4802,4801 4760,4849 4706,4873 4639,4873 4600,4873 4566,4865 4536,4849 4506,4833 4490,4811 4486,4783 L 4486,4858 4388,4858 4388,4039 4486,4039 4486,4455 C 4491,4430 4508,4411 4537,4396 4566,4381 4600,4373 4637,4373 4705,4373 4759,4396 4802,4442 4845,4488 4866,4547 4866,4619 Z"/>
     </g>
    </g>
    <g class="com.sun.star.drawing.ClosedBezierShape">
     <g id="id6">
      <rect class="BoundingBox" stroke="none" fill="none" x="4959" y="4039" width="99" height="820"/>
      <path fill="rgb(255,255,255)" stroke="none" d="M 5057,4858 C 5025,4858 4992,4858 4960,4858 4960,4585 4960,4312 4960,4039 4992,4039 5025,4039 5057,4039 5057,4312 5057,4585 5057,4858 Z"/>
     </g>
    </g>
    <g class="com.sun.star.drawing.ClosedBezierShape">
     <g id="id7">
      <rect class="BoundingBox" stroke="none" fill="none" x="5187" y="4155" width="127" height="704"/>
      <path fill="rgb(255,255,255)" stroke="none" d="M 5299,4858 L 5201,4858 5201,4387 5299,4387 5299,4858 Z M 5313,4217 C 5313,4234 5307,4249 5294,4262 5282,4274 5267,4280 5250,4280 5232,4280 5218,4274 5205,4262 5193,4249 5187,4235 5187,4217 5187,4201 5193,4186 5205,4174 5218,4161 5232,4155 5250,4155 5267,4155 5282,4161 5294,4174 5307,4186 5313,4201 5313,4217 Z"/>
     </g>
    </g>
    <g class="com.sun.star.drawing.ClosedBezierShape">
     <g id="id8">
      <rect class="BoundingBox" stroke="none" fill="none" x="5391" y="4373" width="410" height="501"/>
      <path fill="rgb(255,255,255)" stroke="none" d="M 5800,4836 C 5775,4849 5751,4859 5726,4864 5701,4870 5675,4873 5647,4873 5572,4873 5511,4850 5463,4803 5415,4757 5391,4697 5391,4623 5391,4550 5416,4490 5465,4443 5514,4396 5577,4373 5655,4373 5681,4373 5706,4376 5728,4381 5750,4386 5772,4395 5795,4408 L 5795,4506 C 5767,4493 5743,4483 5721,4476 5699,4469 5678,4466 5658,4466 5606,4466 5566,4480 5535,4509 5504,4538 5489,4577 5489,4626 5489,4672 5504,4709 5535,4737 5566,4765 5607,4779 5657,4779 5681,4779 5704,4776 5727,4769 5749,4762 5773,4752 5800,4737 L 5800,4836 Z"/>
     </g>
    </g>
   </g>
   <g class="Group">
    <g class="com.sun.star.drawing.ClosedBezierShape">
     <g id="id9">
      <rect class="BoundingBox" stroke="none" fill="none" x="1376" y="4385" width="298" height="476"/>
      <path fill="rgb(16,94,154)" stroke="none" d="M 1376,4396 C 1415,4396 1454,4396 1493,4396 1493,4421 1493,4445 1493,4470 L 1494,4470 C 1519,4417 1570,4385 1632,4385 1646,4385 1660,4388 1673,4392 1673,4429 1673,4466 1673,4503 1654,4499 1636,4495 1618,4495 1508,4495 1493,4587 1493,4612 1493,4694 1493,4777 1493,4860 1454,4860 1415,4860 1376,4860 1376,4706 1376,4551 1376,4396 Z"/>
     </g>
    </g>
    <g class="com.sun.star.drawing.ClosedBezierShape">
     <g id="id10">
      <rect class="BoundingBox" stroke="none" fill="none" x="2274" y="4385" width="300" height="377"/>
      <path fill="rgb(40,159,204)" stroke="none" d="M 2391,4612 C 2391,4587 2406,4495 2516,4495 2534,4495 2552,4499 2572,4503 2572,4466 2572,4429 2572,4392 2558,4388 2544,4385 2530,4385 2468,4385 2417,4417 2392,4470 2391,4470 2391,4470 2391,4470 2391,4445 2391,4421 2391,4396 2352,4396 2313,4396 2274,4396 2274,4518 2274,4640 2274,4761 2313,4761 2352,4761 2391,4761 2391,4711 2391,4662 2391,4612 Z"/>
     </g>
    </g>
    <g class="com.sun.star.drawing.ClosedBezierShape">
     <g id="id11">
      <rect class="BoundingBox" stroke="none" fill="none" x="2610" y="4385" width="507" height="488"/>
      <path fill="rgb(40,159,204)" stroke="none" d="M 2727,4628 C 2727,4555 2778,4489 2863,4489 2948,4489 2999,4555 2999,4628 2999,4700 2948,4768 2863,4768 2778,4768 2727,4700 2727,4628 Z M 2610,4628 C 2610,4679 2624,4725 2648,4761 2675,4761 2702,4761 2730,4761 2730,4787 2730,4813 2730,4838 2769,4859 2814,4872 2863,4872 3003,4872 3116,4774 3116,4628 3116,4483 3003,4385 2863,4385 2723,4385 2610,4483 2610,4628 Z"/>
     </g>
    </g>
    <g class="com.sun.star.drawing.ClosedBezierShape">
     <g id="id12">
      <rect class="BoundingBox" stroke="none" fill="none" x="1712" y="4385" width="472" height="487"/>
      <path fill="rgb(16,94,154)" stroke="none" d="M 2066,4582 C 1987,4582 1908,4582 1829,4582 1837,4516 1880,4472 1948,4472 2021,4472 2065,4515 2066,4582 Z M 1829,4669 C 1947,4669 2065,4669 2183,4669 2183,4658 2183,4648 2183,4637 2183,4476 2095,4385 1965,4385 1825,4385 1712,4483 1712,4628 1712,4770 1818,4867 1954,4871 1954,4840 1954,4809 1954,4779 1888,4779 1836,4737 1829,4669 Z"/>
     </g>
    </g>
    <g class="com.sun.star.drawing.ClosedBezierShape">
     <g id="id13">
      <rect class="BoundingBox" stroke="none" fill="none" x="1952" y="4248" width="83" height="79"/>
      <path fill="rgb(16,94,154)" stroke="none" d="M 2034,4248 C 2013,4281 1985,4306 1952,4325 1952,4299 1952,4274 1952,4248 1979,4248 2007,4248 2034,4248 Z"/>
     </g>
    </g>
    <g class="Group">
     <g class="com.sun.star.drawing.ClosedBezierShape">
      <g id="id14">
       <rect class="BoundingBox" stroke="none" fill="none" x="2420" y="4877" width="67" height="311"/>
       <path fill="rgb(143,192,214)" stroke="none" d="M 2481,4992 L 2425,4992 2425,5187 2481,5187 2481,4992 Z M 2453,4877 C 2444,4877 2436,4880 2430,4887 2423,4893 2420,4901 2420,4910 2420,4919 2423,4927 2430,4933 2436,4940 2444,4943 2453,4943 2462,4943 2470,4940 2476,4933 2483,4927 2486,4919 2486,4910 2486,4901 2483,4893 2476,4887 2470,4880 2462,4877 2453,4877 Z"/>
      </g>
     </g>
     <g class="com.sun.star.drawing.ClosedBezierShape">
      <g id="id15">
       <rect class="BoundingBox" stroke="none" fill="none" x="2525" y="4850" width="57" height="338"/>
       <path fill="rgb(143,192,214)" stroke="none" d="M 2581,4850 C 2562,4850 2544,4850 2525,4850 2525,4962 2525,5075 2525,5187 2544,5187 2562,5187 2581,5187 2581,5075 2581,4962 2581,4850 Z"/>
      </g>
     </g>
     <g class="com.sun.star.drawing.ClosedBezierShape">
      <g id="id16">
       <rect class="BoundingBox" stroke="none" fill="none" x="2606" y="4986" width="146" height="208"/>
       <path fill="rgb(143,192,214)" stroke="none" d="M 2741,5006 C 2734,5000 2724,4995 2713,4991 2701,4988 2690,4986 2679,4986 2660,4986 2646,4992 2634,5004 2623,5016 2617,5031 2617,5049 2617,5063 2620,5073 2627,5081 2634,5088 2644,5095 2656,5100 2658,5101 2661,5102 2666,5104 2676,5108 2683,5111 2688,5115 2693,5118 2695,5123 2695,5129 2695,5135 2693,5140 2689,5144 2684,5148 2679,5150 2673,5150 2665,5150 2658,5148 2651,5144 2644,5139 2638,5134 2631,5127 L 2606,5160 C 2614,5171 2625,5179 2637,5184 2649,5190 2661,5193 2675,5193 2696,5193 2714,5187 2729,5174 2744,5162 2751,5145 2751,5124 2751,5109 2747,5097 2740,5089 2733,5081 2723,5074 2710,5068 2708,5067 2704,5066 2698,5063 2688,5060 2681,5056 2677,5053 2672,5051 2670,5047 2670,5042 2670,5037 2672,5033 2676,5030 2679,5027 2683,5025 2688,5025 2693,5025 2699,5026 2704,5029 2709,5031 2713,5035 2718,5039 L 2741,5006 Z"/>
      </g>
     </g>
    </g>
   </g>
  </g>
 </g>
</svg>