<?xml version="1.0" encoding="UTF-8"?>
<!DOCTYPE svg PUBLIC "-//W3C//DTD SVG 1.1//EN" "http://www.w3.org/Graphics/SVG/1.1/DTD/svg11.dtd">
<svg version="1.2" width="51.6mm" height="11.26mm" viewBox="1486 7022 5160 1126" preserveAspectRatio="xMidYMid" fill-rule="evenodd" stroke-width="28.222" stroke-linejoin="round" xmlns="http://www.w3.org/2000/svg" xmlns:ooo="http://xml.openoffice.org/svg/export" xmlns:xlink="http://www.w3.org/1999/xlink" xmlns:presentation="http://sun.com/xmlns/staroffice/presentation" xmlns:smil="http://www.w3.org/2001/SMIL20/" xmlns:anim="urn:oasis:names:tc:opendocument:xmlns:animation:1.0" xml:space="preserve">
 <defs class="EmbeddedBulletChars">
  <g id="bullet-char-template-57356" transform="scale(0.00048828125,-0.00048828125)">
   <path d="M 580,1141 L 1163,571 580,0 -4,571 580,1141 Z"/>
  </g>
  <g id="bullet-char-template-57354" transform="scale(0.00048828125,-0.00048828125)">
   <path d="M 8,1128 L 1137,1128 1137,0 8,0 8,1128 Z"/>
  </g>
  <g id="bullet-char-template-10146" transform="scale(0.00048828125,-0.00048828125)">
   <path d="M 174,0 L 602,739 174,1481 1456,739 174,0 Z M 1358,739 L 309,1346 659,739 1358,739 Z"/>
  </g>
  <g id="bullet-char-template-10132" transform="scale(0.00048828125,-0.00048828125)">
   <path d="M 2015,739 L 1276,0 717,0 1260,543 174,543 174,936 1260,936 717,1481 1274,1481 2015,739 Z"/>
  </g>
  <g id="bullet-char-template-10007" transform="scale(0.00048828125,-0.00048828125)">
   <path d="M 0,-2 C -7,14 -16,27 -25,37 L 356,567 C 262,823 215,952 215,954 215,979 228,992 255,992 264,992 276,990 289,987 310,991 331,999 354,1012 L 381,999 492,748 772,1049 836,1024 860,1049 C 881,1039 901,1025 922,1006 886,937 835,863 770,784 769,783 710,716 594,584 L 774,223 C 774,196 753,168 711,139 L 727,119 C 717,90 699,76 672,76 641,76 570,178 457,381 L 164,-76 C 142,-110 111,-127 72,-127 30,-127 9,-110 8,-76 1,-67 -2,-52 -2,-32 -2,-23 -1,-13 0,-2 Z"/>
  </g>
  <g id="bullet-char-template-10004" transform="scale(0.00048828125,-0.00048828125)">
   <path d="M 285,-33 C 182,-33 111,30 74,156 52,228 41,333 41,471 41,549 55,616 82,672 116,743 169,778 240,778 293,778 328,747 346,684 L 369,508 C 377,444 397,411 428,410 L 1163,1116 C 1174,1127 1196,1133 1229,1133 1271,1133 1292,1118 1292,1087 L 1292,965 C 1292,929 1282,901 1262,881 L 442,47 C 390,-6 338,-33 285,-33 Z"/>
  </g>
  <g id="bullet-char-template-9679" transform="scale(0.00048828125,-0.00048828125)">
   <path d="M 813,0 C 632,0 489,54 383,161 276,268 223,411 223,592 223,773 276,916 383,1023 489,1130 632,1184 813,1184 992,1184 1136,1130 1245,1023 1353,916 1407,772 1407,592 1407,412 1353,268 1245,161 1136,54 992,0 813,0 Z"/>
  </g>
  <g id="bullet-char-template-8226" transform="scale(0.00048828125,-0.00048828125)">
   <path d="M 346,457 C 273,457 209,483 155,535 101,586 74,649 74,723 74,796 101,859 155,911 209,963 273,989 346,989 419,989 480,963 531,910 582,859 608,796 608,723 608,648 583,586 532,535 482,483 420,457 346,457 Z"/>
  </g>
  <g id="bullet-char-template-8211" transform="scale(0.00048828125,-0.00048828125)">
   <path d="M -4,459 L 1135,459 1135,606 -4,606 -4,459 Z"/>
  </g>
  <g id="bullet-char-template-61548" transform="scale(0.00048828125,-0.00048828125)">
   <path d="M 173,740 C 173,903 231,1043 346,1159 462,1274 601,1332 765,1332 928,1332 1067,1274 1183,1159 1299,1043 1357,903 1357,740 1357,577 1299,437 1183,322 1067,206 928,148 765,148 601,148 462,206 346,322 231,437 173,577 173,740 Z"/>
  </g>
 </defs>
 <g class="Page">
  <g class="Group">
   <g class="com.sun.star.drawing.ClosedBezierShape">
    <g id="id3">
     <rect class="BoundingBox" stroke="none" fill="none" x="1486" y="7793" width="199" height="325"/>
     <path fill="rgb(0,0,0)" stroke="none" d="M 1684,8116 L 1613,8116 1558,7956 1557,7956 1557,8116 1487,8116 1487,7793 1577,7793 C 1595,7793 1613,7797 1631,7804 1649,7811 1662,7822 1670,7838 1677,7853 1681,7869 1681,7886 1681,7906 1677,7922 1668,7935 1660,7948 1646,7959 1628,7970 L 1684,8116 Z M 1557,7938 C 1579,7938 1593,7934 1598,7925 1604,7916 1607,7905 1607,7891 1607,7860 1595,7845 1571,7845 L 1557,7845 1557,7938 Z"/>
    </g>
   </g>
   <g class="com.sun.star.drawing.ClosedBezierShape">
    <g id="id4">
     <rect class="BoundingBox" stroke="none" fill="none" x="1734" y="7793" width="162" height="325"/>
     <path fill="rgb(0,0,0)" stroke="none" d="M 1895,8116 C 1841,8116 1788,8116 1734,8116 1734,8008 1734,7901 1734,7793 1784,7793 1835,7793 1885,7793 1885,7814 1885,7835 1885,7856 1858,7856 1831,7856 1804,7856 1804,7878 1804,7899 1804,7921 1827,7921 1850,7921 1873,7921 1873,7941 1873,7961 1873,7981 1850,7981 1827,7981 1804,7981 1804,8005 1804,8029 1804,8053 1834,8053 1865,8053 1895,8053 1895,8074 1895,8095 1895,8116 Z"/>
    </g>
   </g>
   <g class="com.sun.star.drawing.ClosedBezierShape">
    <g id="id5">
     <rect class="BoundingBox" stroke="none" fill="none" x="1929" y="7787" width="170" height="336"/>
     <path fill="rgb(0,0,0)" stroke="none" d="M 2083,7886 C 2064,7865 2047,7854 2030,7854 2022,7854 2015,7856 2009,7861 2003,7866 2000,7872 2000,7878 2000,7889 2009,7902 2028,7917 2048,7933 2062,7945 2070,7954 2079,7963 2085,7974 2090,7986 2095,7998 2098,8011 2098,8026 2098,8054 2089,8077 2071,8095 2053,8113 2029,8122 2001,8122 1977,8122 1954,8113 1932,8096 L 1932,8020 C 1953,8043 1975,8055 1996,8055 2006,8055 2014,8052 2020,8047 2027,8042 2030,8035 2030,8028 2030,8016 2022,8003 2005,7989 1979,7967 1962,7950 1953,7939 1945,7928 1939,7917 1935,7906 1931,7895 1929,7883 1929,7872 1929,7847 1938,7827 1955,7811 1973,7795 1995,7787 2022,7787 2042,7787 2063,7793 2083,7805 L 2083,7886 Z"/>
    </g>
   </g>
   <g class="com.sun.star.drawing.ClosedBezierShape">
    <g id="id6">
     <rect class="BoundingBox" stroke="none" fill="none" x="2143" y="7793" width="163" height="325"/>
     <path fill="rgb(0,0,0)" stroke="none" d="M 2305,8116 C 2251,8116 2198,8116 2144,8116 2144,8008 2144,7901 2144,7793 2194,7793 2245,7793 2295,7793 2295,7814 2295,7835 2295,7856 2268,7856 2241,7856 2214,7856 2214,7878 2214,7899 2214,7921 2237,7921 2260,7921 2283,7921 2283,7941 2283,7961 2283,7981 2260,7981 2237,7981 2214,7981 2214,8005 2214,8029 2214,8053 2244,8053 2275,8053 2305,8053 2305,8074 2305,8095 2305,8116 Z"/>
    </g>
   </g>
   <g class="com.sun.star.drawing.ClosedBezierShape">
    <g id="id7">
     <rect class="BoundingBox" stroke="none" fill="none" x="2332" y="7793" width="246" height="325"/>
     <path fill="rgb(0,0,0)" stroke="none" d="M 2577,8116 C 2554,8116 2532,8116 2509,8116 2505,8099 2502,8082 2498,8065 2470,8065 2441,8065 2413,8065 2409,8082 2405,8099 2401,8116 2378,8116 2355,8116 2332,8116 2363,8008 2394,7901 2425,7793 2448,7793 2472,7793 2496,7793 2523,7901 2550,8008 2577,8116 Z M 2488,8013 C 2479,7966 2469,7919 2459,7872 L 2458,7872 C 2447,7919 2436,7966 2425,8013 2446,8013 2467,8013 2488,8013 Z"/>
    </g>
   </g>
   <g class="com.sun.star.drawing.ClosedBezierShape">
    <g id="id8">
     <rect class="BoundingBox" stroke="none" fill="none" x="2605" y="7793" width="208" height="330"/>
     <path fill="rgb(0,0,0)" stroke="none" d="M 2812,8025 C 2812,8055 2803,8079 2785,8096 2767,8113 2741,8122 2709,8122 2676,8122 2650,8113 2632,8095 2614,8078 2605,8052 2605,8019 L 2605,7793 2675,7793 2675,8008 C 2675,8023 2678,8035 2684,8043 2690,8051 2698,8055 2709,8055 2719,8055 2727,8051 2733,8043 2739,8035 2742,8025 2742,8011 L 2742,7793 2812,7793 2812,8025 Z"/>
    </g>
   </g>
   <g class="com.sun.star.drawing.ClosedBezierShape">
    <g id="id9">
     <rect class="BoundingBox" stroke="none" fill="none" x="2983" y="7793" width="220" height="325"/>
     <path fill="rgb(0,0,0)" stroke="none" d="M 2983,7793 L 3061,7793 C 3104,7793 3138,7807 3164,7834 3189,7862 3202,7902 3202,7953 3202,8006 3190,8046 3165,8074 3140,8102 3104,8116 3058,8116 L 2983,8116 2983,7793 Z M 3053,7851 L 3053,8057 3061,8057 C 3075,8057 3090,8051 3105,8040 3120,8029 3128,8001 3128,7959 3128,7927 3125,7904 3120,7891 3114,7877 3106,7867 3095,7861 3084,7854 3072,7851 3061,7851 L 3053,7851 Z"/>
    </g>
   </g>
   <g class="com.sun.star.drawing.ClosedBezierShape">
    <g id="id10">
     <rect class="BoundingBox" stroke="none" fill="none" x="3254" y="7793" width="162" height="325"/>
     <path fill="rgb(0,0,0)" stroke="none" d="M 3415,8116 C 3361,8116 3308,8116 3254,8116 3254,8008 3254,7901 3254,7793 3304,7793 3355,7793 3405,7793 3405,7814 3405,7835 3405,7856 3378,7856 3351,7856 3324,7856 3324,7878 3324,7899 3324,7921 3347,7921 3370,7921 3393,7921 3393,7941 3393,7961 3393,7981 3370,7981 3347,7981 3324,7981 3324,8005 3324,8029 3324,8053 3354,8053 3385,8053 3415,8053 3415,8074 3415,8095 3415,8116 Z"/>
    </g>
   </g>
   <g class="com.sun.star.drawing.ClosedBezierShape">
    <g id="id11">
     <rect class="BoundingBox" stroke="none" fill="none" x="3449" y="7787" width="170" height="336"/>
     <path fill="rgb(0,0,0)" stroke="none" d="M 3603,7886 C 3584,7865 3567,7854 3550,7854 3542,7854 3535,7856 3529,7861 3523,7866 3520,7872 3520,7878 3520,7889 3529,7902 3548,7917 3568,7933 3582,7945 3590,7954 3599,7963 3605,7974 3610,7986 3615,7998 3618,8011 3618,8026 3618,8054 3609,8077 3591,8095 3573,8113 3549,8122 3521,8122 3497,8122 3474,8113 3452,8096 L 3452,8020 C 3473,8043 3495,8055 3516,8055 3526,8055 3534,8052 3540,8047 3547,8042 3550,8035 3550,8028 3550,8016 3542,8003 3525,7989 3499,7967 3482,7950 3473,7939 3465,7928 3459,7917 3455,7906 3451,7895 3449,7883 3449,7872 3449,7847 3458,7827 3475,7811 3493,7795 3515,7787 3542,7787 3562,7787 3583,7793 3603,7805 L 3603,7886 Z"/>
    </g>
   </g>
   <g class="com.sun.star.drawing.ClosedBezierShape">
    <g id="id12">
     <rect class="BoundingBox" stroke="none" fill="none" x="3781" y="7793" width="201" height="325"/>
     <path fill="rgb(0,0,0)" stroke="none" d="M 3930,7954 C 3949,7962 3962,7973 3970,7986 3977,7998 3981,8015 3981,8035 3981,8058 3973,8077 3956,8093 3940,8108 3920,8116 3896,8116 L 3781,8116 3781,7793 3880,7793 C 3908,7793 3930,7801 3948,7816 3966,7832 3975,7851 3975,7875 3975,7895 3971,7910 3964,7922 3957,7935 3946,7945 3930,7954 Z M 3851,7930 L 3865,7930 C 3877,7930 3886,7926 3893,7919 3900,7911 3903,7901 3903,7889 3903,7860 3889,7845 3860,7845 L 3851,7845 3851,7930 Z M 3851,8064 L 3871,8063 C 3882,8063 3891,8060 3897,8052 3904,8045 3907,8035 3907,8022 3907,7993 3893,7979 3865,7979 L 3851,7979 3851,8064 Z"/>
    </g>
   </g>
   <g class="com.sun.star.drawing.ClosedBezierShape">
    <g id="id13">
     <rect class="BoundingBox" stroke="none" fill="none" x="4038" y="7793" width="71" height="325"/>
     <path fill="rgb(0,0,0)" stroke="none" d="M 4038,7793 C 4061,7793 4085,7793 4108,7793 4108,7901 4108,8008 4108,8116 4085,8116 4061,8116 4038,8116 4038,8008 4038,7901 4038,7793 Z"/>
    </g>
   </g>
   <g class="com.sun.star.drawing.ClosedBezierShape">
    <g id="id14">
     <rect class="BoundingBox" stroke="none" fill="none" x="4179" y="7793" width="201" height="325"/>
     <path fill="rgb(0,0,0)" stroke="none" d="M 4328,7954 C 4347,7962 4360,7973 4368,7986 4375,7998 4379,8015 4379,8035 4379,8058 4371,8077 4354,8093 4338,8108 4318,8116 4294,8116 L 4179,8116 4179,7793 4278,7793 C 4306,7793 4328,7801 4346,7816 4364,7832 4373,7851 4373,7875 4373,7895 4369,7910 4362,7922 4355,7935 4344,7945 4328,7954 Z M 4249,7930 L 4263,7930 C 4275,7930 4284,7926 4291,7919 4298,7911 4301,7901 4301,7889 4301,7860 4287,7845 4258,7845 L 4249,7845 4249,7930 Z M 4249,8064 L 4269,8063 C 4280,8063 4289,8060 4295,8052 4302,8045 4305,8035 4305,8022 4305,7993 4291,7979 4263,7979 L 4249,7979 4249,8064 Z"/>
    </g>
   </g>
   <g class="com.sun.star.drawing.ClosedBezierShape">
    <g id="id15">
     <rect class="BoundingBox" stroke="none" fill="none" x="4430" y="7793" width="152" height="325"/>
     <path fill="rgb(0,0,0)" stroke="none" d="M 4581,8116 C 4531,8116 4480,8116 4430,8116 4430,8008 4430,7901 4430,7793 4453,7793 4477,7793 4500,7793 4500,7880 4500,7966 4500,8053 4527,8053 4554,8053 4581,8053 4581,8074 4581,8095 4581,8116 Z"/>
    </g>
   </g>
   <g class="com.sun.star.drawing.ClosedBezierShape">
    <g id="id16">
     <rect class="BoundingBox" stroke="none" fill="none" x="4631" y="7793" width="71" height="325"/>
     <path fill="rgb(0,0,0)" stroke="none" d="M 4631,7793 C 4654,7793 4678,7793 4701,7793 4701,7901 4701,8008 4701,8116 4678,8116 4654,8116 4631,8116 4631,8008 4631,7901 4631,7793 Z"/>
    </g>
   </g>
   <g class="com.sun.star.drawing.ClosedBezierShape">
    <g id="id17">
     <rect class="BoundingBox" stroke="none" fill="none" x="4761" y="7787" width="233" height="336"/>
     <path fill="rgb(0,0,0)" stroke="none" d="M 4761,7953 C 4761,7908 4766,7875 4776,7854 4786,7833 4799,7816 4815,7805 4831,7793 4852,7787 4877,7787 4897,7787 4914,7790 4927,7797 4939,7804 4951,7814 4962,7827 4973,7840 4980,7856 4985,7875 4990,7894 4993,7919 4993,7951 4993,8016 4982,8060 4960,8085 4939,8110 4911,8122 4876,8122 4841,8122 4813,8109 4792,8084 4771,8058 4761,8015 4761,7953 Z M 4835,7934 L 4835,7954 C 4835,7988 4836,8010 4838,8021 4841,8031 4845,8040 4853,8046 4860,8052 4869,8055 4879,8055 4888,8055 4895,8052 4902,8046 4909,8040 4914,8031 4917,8019 4920,8007 4921,7985 4921,7954 4921,7926 4920,7906 4917,7894 4915,7882 4910,7872 4903,7865 4896,7858 4887,7854 4877,7854 4862,7854 4852,7860 4845,7873 4838,7886 4835,7906 4835,7934 Z"/>
    </g>
   </g>
   <g class="com.sun.star.drawing.ClosedBezierShape">
    <g id="id18">
     <rect class="BoundingBox" stroke="none" fill="none" x="5024" y="7793" width="198" height="325"/>
     <path fill="rgb(0,0,0)" stroke="none" d="M 5221,7855 C 5200,7855 5179,7855 5158,7855 5158,7942 5158,8029 5158,8116 5135,8116 5111,8116 5088,8116 5088,8029 5088,7943 5088,7856 5067,7856 5045,7856 5024,7856 5024,7835 5024,7814 5024,7793 5090,7793 5155,7793 5221,7793 5221,7814 5221,7835 5221,7855 Z"/>
    </g>
   </g>
   <g class="com.sun.star.drawing.ClosedBezierShape">
    <g id="id19">
     <rect class="BoundingBox" stroke="none" fill="none" x="5264" y="7793" width="206" height="325"/>
     <path fill="rgb(0,0,0)" stroke="none" d="M 5264,7793 C 5287,7793 5310,7793 5333,7793 5333,7834 5333,7875 5333,7916 5355,7916 5377,7916 5399,7916 5399,7875 5399,7834 5399,7793 5422,7793 5446,7793 5469,7793 5469,7901 5469,8008 5469,8116 5446,8116 5422,8116 5399,8116 5399,8070 5399,8025 5399,7979 5377,7979 5356,7979 5334,7979 5334,8025 5334,8070 5334,8116 5311,8116 5287,8116 5264,8116 5264,8008 5264,7901 5264,7793 Z"/>
    </g>
   </g>
   <g class="com.sun.star.drawing.ClosedBezierShape">
    <g id="id20">
     <rect class="BoundingBox" stroke="none" fill="none" x="5530" y="7793" width="163" height="325"/>
     <path fill="rgb(0,0,0)" stroke="none" d="M 5692,8116 C 5638,8116 5585,8116 5531,8116 5531,8008 5531,7901 5531,7793 5581,7793 5632,7793 5682,7793 5682,7814 5682,7835 5682,7856 5655,7856 5628,7856 5601,7856 5601,7878 5601,7899 5601,7921 5624,7921 5647,7921 5670,7921 5670,7941 5670,7961 5670,7981 5647,7981 5624,7981 5601,7981 5601,8005 5601,8029 5601,8053 5631,8053 5662,8053 5692,8053 5692,8074 5692,8095 5692,8116 Z"/>
    </g>
   </g>
   <g class="com.sun.star.drawing.ClosedBezierShape">
    <g id="id21">
     <rect class="BoundingBox" stroke="none" fill="none" x="5730" y="7787" width="236" height="361"/>
     <path fill="rgb(0,0,0)" stroke="none" d="M 5964,8122 L 5929,8147 5901,8108 C 5884,8117 5866,8122 5846,8122 5819,8122 5797,8115 5780,8102 5763,8088 5750,8070 5742,8047 5734,8025 5730,7994 5730,7957 5730,7896 5741,7853 5762,7826 5783,7800 5811,7787 5845,7787 5871,7787 5893,7794 5910,7807 5927,7820 5940,7838 5948,7861 5957,7883 5961,7914 5961,7952 5961,8011 5952,8053 5933,8077 L 5964,8122 Z M 5888,8024 C 5889,7999 5889,7981 5889,7969 5889,7934 5888,7910 5886,7897 5884,7884 5879,7873 5872,7866 5865,7858 5856,7854 5845,7854 5834,7854 5824,7860 5816,7872 5808,7884 5804,7909 5804,7949 5804,7982 5805,8005 5808,8017 5810,8029 5814,8038 5821,8045 5828,8052 5836,8055 5846,8055 5851,8055 5856,8054 5862,8052 L 5823,7995 5859,7970 5887,8024 5888,8024 Z"/>
    </g>
   </g>
   <g class="com.sun.star.drawing.ClosedBezierShape">
    <g id="id22">
     <rect class="BoundingBox" stroke="none" fill="none" x="6013" y="7793" width="208" height="330"/>
     <path fill="rgb(0,0,0)" stroke="none" d="M 6220,8025 C 6220,8055 6211,8079 6193,8096 6175,8113 6149,8122 6117,8122 6084,8122 6058,8113 6040,8095 6022,8078 6013,8052 6013,8019 L 6013,7793 6083,7793 6083,8008 C 6083,8023 6086,8035 6092,8043 6098,8051 6106,8055 6117,8055 6127,8055 6135,8051 6141,8043 6147,8035 6150,8025 6150,8011 L 6150,7793 6220,7793 6220,8025 Z"/>
    </g>
   </g>
   <g class="com.sun.star.drawing.ClosedBezierShape">
    <g id="id23">
     <rect class="BoundingBox" stroke="none" fill="none" x="6279" y="7793" width="163" height="325"/>
     <path fill="rgb(0,0,0)" stroke="none" d="M 6441,8116 C 6387,8116 6334,8116 6280,8116 6280,8008 6280,7901 6280,7793 6330,7793 6381,7793 6431,7793 6431,7814 6431,7835 6431,7856 6404,7856 6377,7856 6350,7856 6350,7878 6350,7899 6350,7921 6373,7921 6396,7921 6419,7921 6419,7941 6419,7961 6419,7981 6396,7981 6373,7981 6350,7981 6350,8005 6350,8029 6350,8053 6380,8053 6411,8053 6441,8053 6441,8074 6441,8095 6441,8116 Z"/>
    </g>
   </g>
   <g class="com.sun.star.drawing.ClosedBezierShape">
    <g id="id24">
     <rect class="BoundingBox" stroke="none" fill="none" x="6476" y="7787" width="170" height="336"/>
     <path fill="rgb(0,0,0)" stroke="none" d="M 6630,7886 C 6611,7865 6594,7854 6577,7854 6569,7854 6562,7856 6556,7861 6550,7866 6547,7872 6547,7878 6547,7889 6556,7902 6575,7917 6595,7933 6609,7945 6617,7954 6626,7963 6632,7974 6637,7986 6642,7998 6645,8011 6645,8026 6645,8054 6636,8077 6618,8095 6600,8113 6576,8122 6548,8122 6524,8122 6501,8113 6479,8096 L 6479,8020 C 6500,8043 6522,8055 6543,8055 6553,8055 6561,8052 6567,8047 6574,8042 6577,8035 6577,8028 6577,8016 6569,8003 6552,7989 6526,7967 6509,7950 6500,7939 6492,7928 6486,7917 6482,7906 6478,7895 6476,7883 6476,7872 6476,7847 6485,7827 6502,7811 6520,7795 6542,7787 6569,7787 6589,7787 6610,7793 6630,7805 L 6630,7886 Z"/>
    </g>
   </g>
  </g>
  <g class="Group">
   <g class="com.sun.star.drawing.CustomShape">
    <g id="id25">
     <rect class="BoundingBox" stroke="none" fill="none" x="1501" y="7022" width="359" height="479"/>
     <path fill="rgb(0,0,0)" stroke="none" d="M 1680,7500 L 1501,7500 1501,7022 1859,7022 1859,7500 1680,7500 Z"/>
    </g>
   </g>
   <g class="com.sun.star.drawing.CustomShape">
    <g id="id26">
     <rect class="BoundingBox" stroke="none" fill="none" x="1858" y="7022" width="360" height="479"/>
     <path fill="rgb(255,0,0)" stroke="none" d="M 2038,7500 L 1858,7500 1858,7022 2217,7022 2217,7500 2038,7500 Z"/>
    </g>
   </g>
  </g>
  <g class="Group">
   <g class="com.sun.star.drawing.ClosedBezierShape">
    <g id="id27">
     <rect class="BoundingBox" stroke="none" fill="none" x="2402" y="7080" width="140" height="340"/>
     <path fill="rgb(0,0,0)" stroke="none" d="M 2540,7409 C 2527,7416 2513,7419 2500,7419 2474,7419 2451,7409 2431,7388 2412,7368 2402,7325 2402,7260 2402,7189 2412,7141 2431,7117 2451,7092 2474,7080 2502,7080 2512,7080 2525,7082 2540,7085 L 2540,7126 C 2530,7122 2521,7120 2512,7120 2494,7120 2480,7129 2467,7146 2455,7164 2449,7198 2449,7250 2449,7280 2450,7304 2453,7321 2456,7339 2462,7352 2472,7363 2481,7373 2493,7378 2508,7378 2517,7378 2527,7375 2540,7370 L 2540,7409 Z"/>
    </g>
   </g>
   <g class="com.sun.star.drawing.ClosedBezierShape">
    <g id="id28">
     <rect class="BoundingBox" stroke="none" fill="none" x="2590" y="7186" width="142" height="234"/>
     <path fill="rgb(0,0,0)" stroke="none" d="M 2731,7415 L 2689,7415 2689,7389 2688,7389 C 2677,7409 2663,7419 2646,7419 2631,7419 2618,7412 2607,7398 2596,7385 2590,7354 2590,7306 2590,7263 2594,7233 2603,7214 2611,7195 2626,7186 2646,7186 2656,7186 2664,7188 2669,7193 2675,7197 2682,7204 2688,7214 L 2689,7214 2689,7188 2731,7188 2731,7415 Z M 2662,7383 C 2673,7383 2680,7376 2684,7363 2687,7350 2689,7328 2689,7297 2689,7269 2687,7250 2684,7239 2681,7228 2674,7222 2664,7222 2653,7222 2646,7227 2642,7238 2638,7248 2636,7267 2636,7294 2636,7326 2638,7349 2641,7363 2644,7376 2651,7383 2662,7383 Z"/>
    </g>
   </g>
   <g class="com.sun.star.drawing.ClosedBezierShape">
    <g id="id29">
     <rect class="BoundingBox" stroke="none" fill="none" x="2787" y="7185" width="139" height="231"/>
     <path fill="rgb(0,0,0)" stroke="none" d="M 2830,7188 L 2830,7210 2831,7210 C 2842,7193 2857,7185 2875,7185 2908,7185 2925,7203 2925,7239 L 2925,7415 2883,7415 2883,7250 C 2883,7228 2874,7217 2857,7217 2848,7217 2842,7220 2837,7226 2832,7232 2830,7240 2830,7250 L 2830,7415 2788,7415 2788,7188 2830,7188 Z"/>
    </g>
   </g>
   <g class="com.sun.star.drawing.ClosedBezierShape">
    <g id="id30">
     <rect class="BoundingBox" stroke="none" fill="none" x="2967" y="7126" width="98" height="290"/>
     <path fill="rgb(0,0,0)" stroke="none" d="M 3064,7221 C 3055,7221 3046,7221 3037,7221 3037,7286 3037,7350 3037,7415 3023,7415 3009,7415 2995,7415 2995,7350 2995,7286 2995,7221 2986,7221 2977,7221 2968,7221 2968,7210 2968,7199 2968,7188 2977,7188 2986,7188 2995,7188 2995,7168 2995,7147 2995,7127 3009,7127 3023,7127 3037,7127 3037,7147 3037,7168 3037,7188 3046,7188 3055,7188 3064,7188 3064,7199 3064,7210 3064,7221 Z"/>
    </g>
   </g>
   <g class="com.sun.star.drawing.ClosedBezierShape">
    <g id="id31">
     <rect class="BoundingBox" stroke="none" fill="none" x="3102" y="7185" width="146" height="236"/>
     <path fill="rgb(0,0,0)" stroke="none" d="M 3175,7185 C 3197,7185 3214,7193 3227,7210 3240,7226 3247,7258 3247,7305 3247,7350 3240,7380 3226,7395 3213,7411 3196,7419 3176,7419 3151,7419 3132,7410 3120,7391 3108,7372 3102,7343 3102,7304 3102,7256 3109,7224 3123,7208 3137,7193 3154,7185 3174,7185 L 3175,7185 Z M 3201,7316 C 3201,7277 3199,7252 3196,7239 3192,7226 3185,7220 3174,7220 3164,7220 3157,7225 3154,7235 3150,7245 3148,7262 3148,7285 3148,7331 3150,7359 3154,7370 3158,7380 3165,7385 3175,7385 3185,7385 3192,7380 3196,7369 3199,7359 3201,7341 3201,7316 Z"/>
    </g>
   </g>
   <g class="com.sun.star.drawing.ClosedBezierShape">
    <g id="id32">
     <rect class="BoundingBox" stroke="none" fill="none" x="3301" y="7185" width="138" height="231"/>
     <path fill="rgb(0,0,0)" stroke="none" d="M 3343,7188 L 3343,7210 3344,7210 C 3355,7193 3370,7185 3388,7185 3421,7185 3438,7203 3438,7239 L 3438,7415 3396,7415 3396,7250 C 3396,7228 3387,7217 3370,7217 3361,7217 3355,7220 3350,7226 3345,7232 3343,7240 3343,7250 L 3343,7415 3301,7415 3301,7188 3343,7188 Z"/>
    </g>
   </g>
   <g class="com.sun.star.drawing.ClosedBezierShape">
    <g id="id33">
     <rect class="BoundingBox" stroke="none" fill="none" x="3591" y="7074" width="142" height="346"/>
     <path fill="rgb(0,0,0)" stroke="none" d="M 3690,7074 L 3732,7074 3732,7415 3690,7415 3690,7386 3689,7386 C 3679,7408 3664,7419 3646,7419 3635,7419 3625,7415 3616,7408 3606,7400 3600,7390 3596,7377 3593,7363 3591,7341 3591,7310 3591,7274 3593,7249 3596,7234 3599,7218 3605,7206 3613,7198 3622,7189 3633,7185 3647,7185 3665,7185 3679,7195 3689,7215 L 3690,7215 3690,7074 Z M 3690,7298 C 3690,7270 3688,7250 3685,7239 3681,7227 3675,7221 3664,7221 3654,7221 3647,7227 3643,7240 3639,7252 3637,7272 3637,7301 3637,7330 3639,7351 3642,7364 3646,7377 3653,7383 3663,7383 3673,7383 3680,7376 3684,7363 3688,7350 3690,7329 3690,7298 Z"/>
    </g>
   </g>
   <g class="com.sun.star.drawing.ClosedBezierShape">
    <g id="id34">
     <rect class="BoundingBox" stroke="none" fill="none" x="3789" y="7083" width="45" height="105"/>
     <path fill="rgb(0,0,0)" stroke="none" d="M 3833,7119 C 3833,7143 3825,7166 3809,7187 L 3795,7179 C 3807,7159 3814,7143 3814,7132 3814,7131 3813,7129 3813,7128 L 3789,7128 3789,7084 3833,7084 3833,7119 Z"/>
    </g>
   </g>
   <g class="com.sun.star.drawing.ClosedBezierShape">
    <g id="id35">
     <rect class="BoundingBox" stroke="none" fill="none" x="3880" y="7086" width="180" height="330"/>
     <path fill="rgb(0,0,0)" stroke="none" d="M 4059,7415 C 4045,7415 4031,7415 4017,7415 4013,7393 4009,7372 4005,7350 3981,7350 3958,7350 3934,7350 3930,7372 3926,7393 3922,7415 3908,7415 3894,7415 3880,7415 3904,7305 3927,7196 3951,7086 3963,7086 3975,7086 3987,7086 4011,7196 4035,7305 4059,7415 Z M 3999,7317 C 3989,7264 3979,7211 3969,7157 3969,7158 3969,7158 3968,7158 3959,7211 3950,7264 3940,7317 3960,7317 3980,7317 3999,7317 Z"/>
    </g>
   </g>
   <g class="com.sun.star.drawing.ClosedBezierShape">
    <g id="id36">
     <rect class="BoundingBox" stroke="none" fill="none" x="4101" y="7185" width="146" height="236"/>
     <path fill="rgb(0,0,0)" stroke="none" d="M 4174,7185 C 4196,7185 4213,7193 4226,7210 4239,7226 4246,7258 4246,7305 4246,7350 4239,7380 4225,7395 4212,7411 4195,7419 4175,7419 4150,7419 4131,7410 4119,7391 4107,7372 4101,7343 4101,7304 4101,7256 4108,7224 4122,7208 4136,7193 4153,7185 4173,7185 L 4174,7185 Z M 4200,7316 C 4200,7277 4198,7252 4195,7239 4191,7226 4184,7220 4173,7220 4163,7220 4156,7225 4153,7235 4149,7245 4147,7262 4147,7285 4147,7331 4149,7359 4153,7370 4157,7380 4164,7385 4174,7385 4184,7385 4191,7380 4195,7369 4198,7359 4200,7341 4200,7316 Z"/>
    </g>
   </g>
   <g class="com.sun.star.drawing.ClosedBezierShape">
    <g id="id37">
     <rect class="BoundingBox" stroke="none" fill="none" x="4306" y="7184" width="115" height="236"/>
     <path fill="rgb(0,0,0)" stroke="none" d="M 4409,7228 C 4396,7223 4385,7220 4376,7220 4367,7220 4360,7222 4355,7227 4350,7231 4347,7237 4347,7245 4347,7251 4349,7257 4353,7263 4357,7269 4366,7278 4381,7290 4395,7303 4405,7314 4411,7324 4417,7333 4420,7344 4420,7356 4420,7374 4414,7389 4402,7400 4390,7412 4374,7418 4356,7418 4343,7418 4329,7415 4313,7408 L 4313,7372 C 4329,7379 4342,7382 4353,7382 4361,7382 4368,7380 4372,7375 4377,7371 4379,7365 4379,7358 4379,7351 4376,7344 4370,7336 4364,7329 4353,7319 4338,7307 4317,7289 4306,7269 4306,7246 4306,7228 4312,7214 4324,7202 4336,7190 4350,7184 4368,7184 4379,7184 4393,7187 4409,7194 L 4409,7228 Z"/>
    </g>
   </g>
   <g class="com.sun.star.drawing.ClosedBezierShape">
    <g id="id38">
     <rect class="BoundingBox" stroke="none" fill="none" x="4450" y="7126" width="97" height="290"/>
     <path fill="rgb(0,0,0)" stroke="none" d="M 4546,7221 C 4537,7221 4528,7221 4519,7221 4519,7286 4519,7350 4519,7415 4505,7415 4491,7415 4477,7415 4477,7350 4477,7286 4477,7221 4468,7221 4459,7221 4450,7221 4450,7210 4450,7199 4450,7188 4459,7188 4468,7188 4477,7188 4477,7168 4477,7147 4477,7127 4491,7127 4505,7127 4519,7127 4519,7147 4519,7168 4519,7188 4528,7188 4537,7188 4546,7188 4546,7199 4546,7210 4546,7221 Z"/>
    </g>
   </g>
   <g class="com.sun.star.drawing.ClosedBezierShape">
    <g id="id39">
     <rect class="BoundingBox" stroke="none" fill="none" x="4587" y="7186" width="141" height="234"/>
     <path fill="rgb(0,0,0)" stroke="none" d="M 4727,7310 L 4633,7310 C 4633,7335 4635,7353 4638,7366 4641,7379 4649,7385 4661,7385 4671,7385 4677,7381 4681,7374 4684,7367 4686,7356 4686,7340 L 4724,7340 C 4723,7393 4700,7419 4657,7419 4610,7419 4587,7382 4587,7308 4587,7227 4611,7186 4660,7186 4678,7186 4694,7193 4707,7207 4720,7221 4727,7250 4727,7294 L 4727,7310 Z M 4684,7277 C 4684,7255 4682,7238 4679,7229 4675,7219 4669,7214 4660,7214 4649,7214 4642,7219 4638,7229 4635,7240 4633,7256 4633,7277 L 4684,7277 Z"/>
    </g>
   </g>
  </g>
 </g>
</svg>