<?xml version="1.0" encoding="UTF-8"?>
<!DOCTYPE svg PUBLIC "-//W3C//DTD SVG 1.1//EN" "http://www.w3.org/Graphics/SVG/1.1/DTD/svg11.dtd">
<svg version="1.2" width="16.51mm" height="15.12mm" viewBox="1330 26338 1651 1512" preserveAspectRatio="xMidYMid" fill-rule="evenodd" stroke-width="28.222" stroke-linejoin="round" xmlns="http://www.w3.org/2000/svg" xmlns:ooo="http://xml.openoffice.org/svg/export" xmlns:xlink="http://www.w3.org/1999/xlink" xmlns:presentation="http://sun.com/xmlns/staroffice/presentation" xmlns:smil="http://www.w3.org/2001/SMIL20/" xmlns:anim="urn:oasis:names:tc:opendocument:xmlns:animation:1.0" xml:space="preserve">
 <defs class="EmbeddedBulletChars">
  <g id="bullet-char-template-57356" transform="scale(0.00048828125,-0.00048828125)">
   <path d="M 580,1141 L 1163,571 580,0 -4,571 580,1141 Z"/>
  </g>
  <g id="bullet-char-template-57354" transform="scale(0.00048828125,-0.00048828125)">
   <path d="M 8,1128 L 1137,1128 1137,0 8,0 8,1128 Z"/>
  </g>
  <g id="bullet-char-template-10146" transform="scale(0.00048828125,-0.00048828125)">
   <path d="M 174,0 L 602,739 174,1481 1456,739 174,0 Z M 1358,739 L 309,1346 659,739 1358,739 Z"/>
  </g>
  <g id="bullet-char-template-10132" transform="scale(0.00048828125,-0.00048828125)">
   <path d="M 2015,739 L 1276,0 717,0 1260,543 174,543 174,936 1260,936 717,1481 1274,1481 2015,739 Z"/>
  </g>
  <g id="bullet-char-template-10007" transform="scale(0.00048828125,-0.00048828125)">
   <path d="M 0,-2 C -7,14 -16,27 -25,37 L 356,567 C 262,823 215,952 215,954 215,979 228,992 255,992 264,992 276,990 289,987 310,991 331,999 354,1012 L 381,999 492,748 772,1049 836,1024 860,1049 C 881,1039 901,1025 922,1006 886,937 835,863 770,784 769,783 710,716 594,584 L 774,223 C 774,196 753,168 711,139 L 727,119 C 717,90 699,76 672,76 641,76 570,178 457,381 L 164,-76 C 142,-110 111,-127 72,-127 30,-127 9,-110 8,-76 1,-67 -2,-52 -2,-32 -2,-23 -1,-13 0,-2 Z"/>
  </g>
  <g id="bullet-char-template-10004" transform="scale(0.00048828125,-0.00048828125)">
   <path d="M 285,-33 C 182,-33 111,30 74,156 52,228 41,333 41,471 41,549 55,616 82,672 116,743 169,778 240,778 293,778 328,747 346,684 L 369,508 C 377,444 397,411 428,410 L 1163,1116 C 1174,1127 1196,1133 1229,1133 1271,1133 1292,1118 1292,1087 L 1292,965 C 1292,929 1282,901 1262,881 L 442,47 C 390,-6 338,-33 285,-33 Z"/>
  </g>
  <g id="bullet-char-template-9679" transform="scale(0.00048828125,-0.00048828125)">
   <path d="M 813,0 C 632,0 489,54 383,161 276,268 223,411 223,592 223,773 276,916 383,1023 489,1130 632,1184 813,1184 992,1184 1136,1130 1245,1023 1353,916 1407,772 1407,592 1407,412 1353,268 1245,161 1136,54 992,0 813,0 Z"/>
  </g>
  <g id="bullet-char-template-8226" transform="scale(0.00048828125,-0.00048828125)">
   <path d="M 346,457 C 273,457 209,483 155,535 101,586 74,649 74,723 74,796 101,859 155,911 209,963 273,989 346,989 419,989 480,963 531,910 582,859 608,796 608,723 608,648 583,586 532,535 482,483 420,457 346,457 Z"/>
  </g>
  <g id="bullet-char-template-8211" transform="scale(0.00048828125,-0.00048828125)">
   <path d="M -4,459 L 1135,459 1135,606 -4,606 -4,459 Z"/>
  </g>
  <g id="bullet-char-template-61548" transform="scale(0.00048828125,-0.00048828125)">
   <path d="M 173,740 C 173,903 231,1043 346,1159 462,1274 601,1332 765,1332 928,1332 1067,1274 1183,1159 1299,1043 1357,903 1357,740 1357,577 1299,437 1183,322 1067,206 928,148 765,148 601,148 462,206 346,322 231,437 173,577 173,740 Z"/>
  </g>
 </defs>
 <g class="Page">
  <g class="Group">
   <g class="com.sun.star.drawing.ClosedBezierShape">
    <g id="id3">
     <rect class="BoundingBox" stroke="none" fill="none" x="1402" y="26338" width="398" height="515"/>
     <path fill="rgb(255,255,255)" stroke="none" d="M 1799,26852 L 1710,26852 1548,26648 1470,26648 1470,26852 1402,26852 1402,26339 1534,26339 C 1564,26339 1588,26341 1608,26344 1628,26347 1647,26355 1665,26366 1683,26378 1697,26393 1707,26411 1718,26429 1723,26451 1723,26478 1723,26516 1713,26547 1694,26573 1675,26598 1649,26617 1617,26629 L 1799,26852 Z M 1652,26484 C 1652,26469 1649,26455 1644,26444 1639,26432 1631,26423 1620,26416 1610,26409 1599,26405 1586,26402 1573,26399 1557,26398 1538,26398 L 1470,26398 1470,26591 1530,26591 C 1550,26591 1567,26589 1583,26586 1599,26582 1612,26575 1623,26565 1633,26555 1640,26544 1645,26530 1650,26517 1652,26501 1652,26484 Z"/>
    </g>
   </g>
   <g class="com.sun.star.drawing.ClosedBezierShape">
    <g id="id4">
     <rect class="BoundingBox" stroke="none" fill="none" x="1842" y="26338" width="349" height="515"/>
     <path fill="rgb(255,255,255)" stroke="none" d="M 2190,26694 C 2190,26720 2185,26742 2176,26762 2166,26782 2153,26798 2137,26810 2117,26825 2097,26836 2075,26843 2053,26849 2024,26852 1989,26852 L 1842,26852 1842,26339 1978,26339 C 2015,26339 2042,26340 2060,26343 2079,26345 2096,26351 2113,26360 2131,26369 2145,26382 2153,26398 2162,26414 2166,26433 2166,26455 2166,26479 2160,26500 2147,26519 2134,26538 2116,26553 2094,26564 L 2094,26567 C 2124,26575 2148,26590 2165,26612 2182,26634 2190,26661 2190,26694 Z M 2095,26465 C 2095,26452 2093,26442 2089,26433 2085,26424 2078,26417 2069,26411 2058,26405 2045,26401 2032,26400 2018,26399 2000,26398 1976,26398 L 1910,26398 1910,26547 1988,26547 C 2009,26547 2025,26546 2035,26544 2045,26542 2056,26537 2066,26530 2077,26524 2084,26515 2088,26504 2093,26494 2095,26480 2095,26465 Z M 2119,26697 C 2119,26678 2116,26662 2111,26649 2105,26637 2094,26626 2077,26617 2066,26612 2055,26608 2042,26606 2029,26605 2011,26604 1988,26604 L 1910,26604 1910,26793 1966,26793 C 1995,26793 2019,26792 2036,26789 2053,26786 2069,26780 2082,26771 2095,26762 2104,26752 2110,26741 2116,26730 2119,26715 2119,26697 Z"/>
    </g>
   </g>
   <g class="com.sun.star.drawing.ClosedBezierShape">
    <g id="id5">
     <rect class="BoundingBox" stroke="none" fill="none" x="2257" y="26338" width="368" height="515"/>
     <path fill="rgb(255,255,255)" stroke="none" d="M 2624,26852 C 2598,26852 2573,26852 2547,26852 2472,26705 2396,26557 2321,26410 2321,26557 2321,26705 2321,26852 2300,26852 2278,26852 2257,26852 2257,26681 2257,26510 2257,26339 2289,26339 2322,26339 2354,26339 2423,26474 2491,26610 2560,26745 2560,26610 2560,26474 2560,26339 2581,26339 2603,26339 2624,26339 2624,26510 2624,26681 2624,26852 Z"/>
    </g>
   </g>
   <g class="com.sun.star.drawing.ClosedBezierShape">
    <g id="id6">
     <rect class="BoundingBox" stroke="none" fill="none" x="2678" y="26339" width="243" height="522"/>
     <path fill="rgb(255,255,255)" stroke="none" d="M 2920,26719 C 2920,26764 2906,26798 2879,26823 2851,26847 2815,26859 2769,26859 2758,26859 2743,26858 2724,26856 2706,26854 2690,26852 2678,26849 L 2678,26783 2682,26783 C 2691,26786 2703,26790 2717,26794 2731,26798 2745,26800 2759,26800 2780,26800 2797,26798 2810,26793 2822,26788 2832,26781 2838,26772 2844,26763 2848,26752 2849,26738 2851,26725 2852,26710 2852,26692 L 2852,26393 2743,26393 2743,26339 2920,26339 2920,26719 Z"/>
    </g>
   </g>
  </g>
  <g class="com.sun.star.drawing.LineShape">
   <g id="id7">
    <rect class="BoundingBox" stroke="none" fill="none" x="1330" y="27749" width="1651" height="101"/>
    <path fill="none" stroke="rgb(225,184,209)" stroke-width="100" stroke-linejoin="round" d="M 1380,27799 L 2930,27799"/>
   </g>
  </g>
  <g class="com.sun.star.drawing.LineShape">
   <g id="id8">
    <rect class="BoundingBox" stroke="none" fill="none" x="1330" y="27559" width="1651" height="101"/>
    <path fill="none" stroke="rgb(225,184,209)" stroke-width="100" stroke-linejoin="round" d="M 1380,27609 L 2930,27609"/>
   </g>
  </g>
  <g class="com.sun.star.drawing.LineShape">
   <g id="id9">
    <rect class="BoundingBox" stroke="none" fill="none" x="1330" y="27369" width="1651" height="101"/>
    <path fill="none" stroke="rgb(225,184,209)" stroke-width="100" stroke-linejoin="round" d="M 1380,27419 L 2930,27419"/>
   </g>
  </g>
  <g class="com.sun.star.drawing.LineShape">
   <g id="id10">
    <rect class="BoundingBox" stroke="none" fill="none" x="1330" y="27179" width="1651" height="101"/>
    <path fill="none" stroke="rgb(225,184,209)" stroke-width="100" stroke-linejoin="round" d="M 1380,27229 L 2930,27229"/>
   </g>
  </g>
  <g class="com.sun.star.drawing.LineShape">
   <g id="id11">
    <rect class="BoundingBox" stroke="none" fill="none" x="1330" y="26989" width="1651" height="101"/>
    <path fill="none" stroke="rgb(225,184,209)" stroke-width="100" stroke-linejoin="round" d="M 1380,27039 L 2930,27039"/>
   </g>
  </g>
 </g>
</svg>