<?xml version="1.0" encoding="UTF-8"?>
<!DOCTYPE svg PUBLIC "-//W3C//DTD SVG 1.1//EN" "http://www.w3.org/Graphics/SVG/1.1/DTD/svg11.dtd">
<svg version="1.2" width="23.02mm" height="15.36mm" viewBox="1499 22634 2302 1536" preserveAspectRatio="xMidYMid" fill-rule="evenodd" stroke-width="28.222" stroke-linejoin="round" xmlns="http://www.w3.org/2000/svg" xmlns:ooo="http://xml.openoffice.org/svg/export" xmlns:xlink="http://www.w3.org/1999/xlink" xmlns:presentation="http://sun.com/xmlns/staroffice/presentation" xmlns:smil="http://www.w3.org/2001/SMIL20/" xmlns:anim="urn:oasis:names:tc:opendocument:xmlns:animation:1.0" xml:space="preserve">
 <defs class="EmbeddedBulletChars">
  <g id="bullet-char-template-57356" transform="scale(0.00048828125,-0.00048828125)">
   <path d="M 580,1141 L 1163,571 580,0 -4,571 580,1141 Z"/>
  </g>
  <g id="bullet-char-template-57354" transform="scale(0.00048828125,-0.00048828125)">
   <path d="M 8,1128 L 1137,1128 1137,0 8,0 8,1128 Z"/>
  </g>
  <g id="bullet-char-template-10146" transform="scale(0.00048828125,-0.00048828125)">
   <path d="M 174,0 L 602,739 174,1481 1456,739 174,0 Z M 1358,739 L 309,1346 659,739 1358,739 Z"/>
  </g>
  <g id="bullet-char-template-10132" transform="scale(0.00048828125,-0.00048828125)">
   <path d="M 2015,739 L 1276,0 717,0 1260,543 174,543 174,936 1260,936 717,1481 1274,1481 2015,739 Z"/>
  </g>
  <g id="bullet-char-template-10007" transform="scale(0.00048828125,-0.00048828125)">
   <path d="M 0,-2 C -7,14 -16,27 -25,37 L 356,567 C 262,823 215,952 215,954 215,979 228,992 255,992 264,992 276,990 289,987 310,991 331,999 354,1012 L 381,999 492,748 772,1049 836,1024 860,1049 C 881,1039 901,1025 922,1006 886,937 835,863 770,784 769,783 710,716 594,584 L 774,223 C 774,196 753,168 711,139 L 727,119 C 717,90 699,76 672,76 641,76 570,178 457,381 L 164,-76 C 142,-110 111,-127 72,-127 30,-127 9,-110 8,-76 1,-67 -2,-52 -2,-32 -2,-23 -1,-13 0,-2 Z"/>
  </g>
  <g id="bullet-char-template-10004" transform="scale(0.00048828125,-0.00048828125)">
   <path d="M 285,-33 C 182,-33 111,30 74,156 52,228 41,333 41,471 41,549 55,616 82,672 116,743 169,778 240,778 293,778 328,747 346,684 L 369,508 C 377,444 397,411 428,410 L 1163,1116 C 1174,1127 1196,1133 1229,1133 1271,1133 1292,1118 1292,1087 L 1292,965 C 1292,929 1282,901 1262,881 L 442,47 C 390,-6 338,-33 285,-33 Z"/>
  </g>
  <g id="bullet-char-template-9679" transform="scale(0.00048828125,-0.00048828125)">
   <path d="M 813,0 C 632,0 489,54 383,161 276,268 223,411 223,592 223,773 276,916 383,1023 489,1130 632,1184 813,1184 992,1184 1136,1130 1245,1023 1353,916 1407,772 1407,592 1407,412 1353,268 1245,161 1136,54 992,0 813,0 Z"/>
  </g>
  <g id="bullet-char-template-8226" transform="scale(0.00048828125,-0.00048828125)">
   <path d="M 346,457 C 273,457 209,483 155,535 101,586 74,649 74,723 74,796 101,859 155,911 209,963 273,989 346,989 419,989 480,963 531,910 582,859 608,796 608,723 608,648 583,586 532,535 482,483 420,457 346,457 Z"/>
  </g>
  <g id="bullet-char-template-8211" transform="scale(0.00048828125,-0.00048828125)">
   <path d="M -4,459 L 1135,459 1135,606 -4,606 -4,459 Z"/>
  </g>
  <g id="bullet-char-template-61548" transform="scale(0.00048828125,-0.00048828125)">
   <path d="M 173,740 C 173,903 231,1043 346,1159 462,1274 601,1332 765,1332 928,1332 1067,1274 1183,1159 1299,1043 1357,903 1357,740 1357,577 1299,437 1183,322 1067,206 928,148 765,148 601,148 462,206 346,322 231,437 173,577 173,740 Z"/>
  </g>
 </defs>
 <g class="Page">
  <g class="Group">
   <g class="com.sun.star.drawing.ClosedBezierShape">
    <g id="id3">
     <rect class="BoundingBox" stroke="none" fill="none" x="1944" y="23750" width="217" height="168"/>
     <path fill="rgb(255,255,255)" stroke="none" d="M 2133,23889 C 2133,23896 2135,23908 2144,23911 2150,23914 2156,23914 2158,23914 2159,23914 2160,23914 2160,23914 2160,23916 2157,23917 2155,23917 2151,23917 2127,23916 2119,23915 2114,23915 2113,23914 2113,23913 2113,23912 2114,23912 2114,23911 2116,23911 2116,23908 2115,23904 L 2105,23793 2052,23905 C 2047,23914 2047,23916 2045,23916 2044,23916 2042,23914 2038,23906 2032,23896 2014,23859 2013,23856 2011,23853 1987,23801 1985,23795 L 1984,23795 1975,23895 C 1975,23899 1975,23902 1975,23906 1975,23909 1977,23912 1980,23912 1984,23914 1988,23914 1988,23914 1989,23914 1991,23914 1991,23914 1991,23916 1989,23917 1986,23917 1979,23917 1967,23916 1966,23916 1964,23916 1954,23917 1948,23917 1946,23917 1944,23916 1944,23914 L 1946,23914 C 1948,23914 1949,23914 1953,23913 1958,23912 1960,23906 1961,23899 1961,23898 1961,23896 1961,23895 L 1977,23755 C 1978,23752 1979,23750 1980,23750 1981,23750 1982,23752 1983,23754 L 2049,23890 2112,23754 C 2113,23752 2114,23750 2115,23750 2117,23750 2117,23752 2118,23756 L 2133,23889 Z"/>
    </g>
   </g>
   <g class="com.sun.star.drawing.ClosedBezierShape">
    <g id="id4">
     <rect class="BoundingBox" stroke="none" fill="none" x="2188" y="23752" width="99" height="167"/>
     <path fill="rgb(255,255,255)" stroke="none" d="M 2209,23816 C 2209,23783 2209,23777 2209,23769 2208,23763 2206,23759 2198,23757 2197,23757 2193,23757 2191,23757 2190,23757 2189,23757 2189,23756 2189,23754 2191,23754 2193,23754 2197,23754 2204,23754 2209,23754 L 2218,23754 C 2219,23754 2262,23754 2267,23754 2271,23754 2274,23754 2276,23754 2277,23753 2278,23752 2279,23752 2279,23752 2280,23753 2280,23754 2280,23756 2279,23758 2279,23764 2278,23766 2278,23775 2277,23778 2277,23779 2276,23781 2276,23781 2274,23781 2274,23780 2274,23778 2274,23776 2274,23772 2273,23770 2271,23767 2269,23764 2258,23763 2254,23763 2230,23763 2228,23763 2227,23763 2227,23763 2227,23764 L 2227,23824 C 2227,23825 2227,23826 2228,23826 2231,23826 2258,23826 2262,23825 2267,23825 2270,23824 2273,23822 2274,23821 2275,23820 2276,23820 L 2276,23821 C 2276,23823 2276,23826 2275,23833 2274,23838 2274,23846 2274,23847 2274,23849 2274,23852 2273,23852 2271,23852 2271,23850 2271,23849 2271,23847 2271,23845 2270,23842 2270,23839 2267,23836 2259,23835 2253,23834 2232,23833 2228,23833 2227,23833 2227,23834 2227,23835 L 2227,23854 C 2227,23861 2227,23887 2227,23892 2227,23907 2230,23909 2252,23909 2258,23909 2267,23909 2273,23907 2278,23904 2280,23900 2282,23892 2283,23889 2283,23888 2284,23888 2286,23888 2286,23890 2286,23892 2286,23893 2283,23907 2283,23912 2281,23918 2279,23918 2271,23918 2255,23918 2243,23917 2234,23917 2226,23916 2221,23916 2218,23916 2218,23916 2214,23916 2209,23916 2205,23916 2199,23917 2196,23917 2194,23917 2193,23916 2193,23916 2193,23915 2193,23914 2194,23914 2196,23914 2199,23913 2200,23913 2206,23913 2207,23907 2208,23901 2209,23892 2209,23875 2209,23854 L 2209,23816 Z"/>
    </g>
   </g>
   <g class="com.sun.star.drawing.ClosedBezierShape">
    <g id="id5">
     <rect class="BoundingBox" stroke="none" fill="none" x="2330" y="23752" width="166" height="168"/>
     <path fill="rgb(255,255,255)" stroke="none" d="M 2349,23816 C 2349,23782 2349,23776 2349,23769 2348,23762 2347,23758 2339,23757 2338,23757 2334,23756 2332,23756 2332,23756 2330,23756 2330,23755 2330,23754 2332,23753 2334,23753 2344,23753 2358,23754 2359,23754 2362,23754 2375,23753 2388,23753 2409,23753 2448,23752 2474,23778 2485,23789 2495,23807 2495,23832 2495,23859 2484,23880 2472,23894 2463,23904 2443,23918 2407,23918 2397,23918 2386,23918 2377,23917 2367,23917 2360,23916 2359,23916 2359,23916 2355,23916 2350,23916 2345,23916 2341,23917 2337,23917 2335,23917 2334,23916 2334,23915 2334,23914 2334,23914 2335,23914 2338,23914 2340,23913 2342,23913 2346,23912 2347,23907 2348,23901 2349,23892 2349,23874 2349,23853 L 2349,23816 Z M 2368,23839 C 2368,23862 2368,23881 2368,23886 2368,23892 2369,23900 2371,23902 2374,23907 2382,23911 2407,23911 2427,23911 2445,23904 2458,23891 2470,23880 2476,23859 2476,23839 2476,23812 2463,23794 2455,23785 2435,23764 2410,23761 2384,23761 2381,23761 2372,23761 2371,23762 2368,23763 2368,23764 2368,23767 2368,23773 2368,23796 2368,23812 L 2368,23839 Z"/>
    </g>
   </g>
   <g class="com.sun.star.drawing.ClosedBezierShape">
    <g id="id6">
     <rect class="BoundingBox" stroke="none" fill="none" x="2539" y="23753" width="57" height="165"/>
     <path fill="rgb(255,255,255)" stroke="none" d="M 2573,23853 C 2573,23874 2573,23892 2574,23901 2575,23907 2577,23912 2583,23913 2587,23913 2591,23914 2593,23914 2594,23914 2595,23914 2595,23915 2595,23916 2593,23917 2591,23917 2579,23917 2565,23916 2564,23916 2563,23916 2550,23917 2543,23917 2541,23917 2540,23916 2540,23915 2540,23914 2540,23914 2541,23914 2543,23914 2546,23913 2547,23913 2552,23912 2553,23907 2554,23901 2555,23892 2555,23874 2555,23853 L 2555,23816 C 2555,23782 2555,23776 2555,23770 2554,23762 2552,23758 2547,23758 2545,23757 2542,23756 2541,23756 2540,23756 2539,23756 2539,23755 2539,23754 2540,23753 2542,23753 2550,23753 2563,23754 2564,23754 2565,23754 2579,23753 2586,23753 2588,23753 2590,23754 2590,23755 2590,23756 2588,23756 2587,23756 2586,23756 2585,23757 2582,23757 2576,23758 2574,23762 2574,23770 2573,23776 2573,23782 2573,23816 L 2573,23853 Z"/>
    </g>
   </g>
   <g class="com.sun.star.drawing.ClosedBezierShape">
    <g id="id7">
     <rect class="BoundingBox" stroke="none" fill="none" x="2616" y="23750" width="166" height="168"/>
     <path fill="rgb(255,255,255)" stroke="none" d="M 2692,23759 C 2694,23752 2695,23750 2697,23750 2698,23750 2699,23752 2701,23758 2705,23767 2738,23856 2752,23889 2759,23908 2765,23911 2770,23912 2773,23914 2777,23914 2779,23914 2780,23914 2780,23914 2780,23915 2780,23916 2779,23917 2777,23917 2773,23917 2758,23917 2743,23916 2739,23916 2736,23916 2736,23914 2736,23914 2737,23914 2737,23913 2739,23913 2740,23911 2739,23908 L 2719,23855 C 2719,23853 2718,23853 2717,23853 L 2670,23853 C 2669,23853 2669,23854 2668,23855 L 2655,23893 C 2653,23899 2652,23904 2652,23908 2652,23911 2657,23914 2660,23914 L 2663,23914 C 2664,23914 2664,23914 2664,23915 2664,23916 2664,23917 2661,23917 2656,23917 2647,23916 2645,23916 2642,23916 2630,23917 2621,23917 2618,23917 2616,23916 2616,23915 2616,23914 2617,23914 2618,23914 2620,23914 2623,23914 2624,23913 2634,23912 2639,23904 2642,23893 L 2692,23759 Z M 2714,23846 C 2716,23846 2716,23845 2716,23844 L 2694,23786 C 2694,23782 2693,23782 2691,23786 L 2672,23844 C 2672,23845 2672,23846 2673,23846 L 2714,23846 Z"/>
    </g>
   </g>
   <g class="com.sun.star.drawing.ClosedBezierShape">
    <g id="id8">
     <rect class="BoundingBox" stroke="none" fill="none" x="2774" y="23750" width="138" height="168"/>
     <path fill="rgb(255,255,255)" stroke="none" d="M 2852,23854 C 2852,23875 2852,23892 2854,23901 2855,23907 2855,23912 2863,23913 2866,23913 2871,23914 2873,23914 2874,23914 2874,23914 2874,23915 2874,23916 2873,23917 2871,23917 2858,23917 2845,23916 2843,23916 2843,23916 2829,23917 2822,23917 2820,23917 2819,23916 2819,23915 2819,23914 2819,23914 2821,23914 2823,23914 2825,23913 2828,23913 2831,23912 2833,23907 2834,23901 2834,23892 2834,23875 2834,23854 L 2834,23763 2803,23763 C 2789,23763 2785,23764 2781,23770 2779,23773 2778,23775 2777,23776 2776,23779 2776,23779 2775,23779 2775,23779 2774,23779 2774,23776 2774,23775 2779,23756 2779,23755 2779,23753 2780,23750 2781,23750 2782,23750 2785,23752 2791,23753 2797,23754 2805,23754 2807,23754 L 2889,23754 C 2895,23754 2901,23754 2904,23753 2907,23752 2909,23752 2910,23752 2911,23752 2911,23753 2911,23755 2911,23761 2910,23776 2910,23779 2910,23781 2910,23782 2909,23782 2907,23782 2907,23781 2907,23777 L 2907,23775 C 2906,23768 2901,23764 2880,23763 L 2852,23763 2852,23854 Z"/>
    </g>
   </g>
   <g class="com.sun.star.drawing.ClosedBezierShape">
    <g id="id9">
     <rect class="BoundingBox" stroke="none" fill="none" x="2947" y="23753" width="171" height="165"/>
     <path fill="rgb(255,255,255)" stroke="none" d="M 3096,23853 C 3096,23874 3096,23892 3097,23901 3098,23907 3099,23912 3105,23913 3108,23913 3114,23914 3115,23914 3117,23914 3117,23914 3117,23915 3117,23916 3116,23917 3114,23917 3102,23917 3088,23916 3087,23916 3086,23916 3073,23917 3066,23917 3064,23917 3062,23916 3062,23915 3062,23914 3063,23914 3065,23914 3066,23914 3069,23913 3071,23913 3075,23912 3076,23907 3077,23901 3078,23892 3078,23874 3078,23853 L 3078,23831 C 3078,23830 3077,23830 3077,23830 L 2985,23830 C 2985,23830 2984,23830 2984,23831 L 2984,23853 C 2984,23874 2984,23892 2985,23901 2985,23907 2987,23912 2993,23913 2996,23913 3001,23914 3003,23914 3004,23914 3004,23914 3004,23915 3004,23916 3004,23917 3001,23917 2989,23917 2976,23916 2975,23916 2973,23916 2960,23917 2954,23917 2952,23917 2950,23916 2950,23915 2950,23914 2951,23914 2952,23914 2954,23914 2956,23913 2958,23913 2963,23912 2964,23907 2964,23901 2966,23892 2966,23874 2966,23853 L 2966,23816 C 2966,23782 2966,23776 2965,23770 2965,23762 2963,23758 2956,23757 2955,23757 2951,23756 2949,23756 2948,23756 2947,23756 2947,23755 2947,23754 2948,23753 2950,23753 2960,23753 2973,23754 2975,23754 2976,23754 2989,23753 2996,23753 2998,23753 2999,23754 2999,23755 2999,23756 2998,23756 2998,23756 2996,23756 2995,23757 2992,23757 2986,23758 2985,23762 2984,23770 2984,23776 2984,23782 2984,23816 L 2984,23820 C 2984,23821 2985,23822 2985,23822 L 3077,23822 C 3077,23822 3078,23821 3078,23820 L 3078,23816 C 3078,23782 3078,23776 3077,23770 3077,23762 3076,23758 3068,23757 3067,23757 3063,23756 3061,23756 3060,23756 3059,23756 3059,23755 3059,23754 3061,23753 3063,23753 3073,23753 3086,23754 3087,23754 3088,23754 3102,23753 3108,23753 3111,23753 3111,23754 3111,23755 3111,23756 3111,23756 3110,23756 3108,23756 3107,23757 3105,23757 3099,23758 3097,23762 3096,23770 3096,23776 3096,23782 3096,23816 L 3096,23853 Z"/>
    </g>
   </g>
   <g class="com.sun.star.drawing.ClosedBezierShape">
    <g id="id10">
     <rect class="BoundingBox" stroke="none" fill="none" x="3163" y="23752" width="98" height="167"/>
     <path fill="rgb(255,255,255)" stroke="none" d="M 3183,23816 C 3183,23783 3183,23777 3182,23769 3181,23763 3180,23759 3173,23757 3171,23757 3168,23757 3166,23757 3165,23757 3164,23757 3164,23756 3164,23754 3165,23754 3167,23754 3172,23754 3178,23754 3183,23754 L 3192,23754 C 3193,23754 3236,23754 3241,23754 3245,23754 3249,23754 3251,23754 3252,23753 3253,23752 3254,23752 3254,23752 3254,23753 3254,23754 3254,23756 3254,23758 3253,23764 3253,23766 3252,23775 3252,23778 3251,23779 3251,23781 3251,23781 3249,23781 3248,23780 3248,23778 3248,23776 3248,23772 3248,23770 3245,23767 3243,23764 3231,23763 3227,23763 3204,23763 3202,23763 3201,23763 3201,23763 3201,23764 L 3201,23824 C 3201,23825 3201,23826 3202,23826 3205,23826 3231,23826 3236,23825 3241,23825 3244,23824 3247,23822 3248,23821 3249,23820 3250,23820 3251,23820 3251,23820 3251,23821 3251,23823 3250,23826 3249,23833 3249,23838 3248,23846 3248,23847 3248,23849 3248,23852 3247,23852 3245,23852 3245,23850 3245,23849 3245,23847 3245,23845 3244,23842 3243,23839 3241,23836 3233,23835 3227,23834 3205,23833 3202,23833 3201,23833 3201,23834 3201,23835 L 3201,23854 C 3201,23861 3200,23887 3201,23892 3201,23907 3205,23909 3226,23909 3231,23909 3241,23909 3247,23907 3252,23904 3255,23900 3257,23892 3257,23889 3258,23888 3258,23888 3260,23888 3260,23890 3260,23892 3260,23893 3258,23907 3257,23912 3255,23918 3254,23918 3245,23918 3229,23918 3217,23917 3208,23917 3200,23916 3195,23916 3192,23916 3191,23916 3187,23916 3183,23916 3178,23916 3174,23917 3171,23917 3168,23917 3167,23916 3167,23916 3167,23915 3168,23914 3169,23914 3171,23914 3173,23913 3175,23913 3180,23913 3181,23907 3181,23901 3183,23892 3183,23875 3183,23854 L 3183,23816 Z"/>
    </g>
   </g>
   <g class="com.sun.star.drawing.ClosedBezierShape">
    <g id="id11">
     <rect class="BoundingBox" stroke="none" fill="none" x="3300" y="23750" width="314" height="213"/>
     <path fill="rgb(255,255,255)" stroke="none" d="M 3418,23911 C 3410,23916 3396,23919 3384,23919 3325,23919 3300,23873 3300,23834 3300,23800 3326,23750 3385,23750 3433,23750 3470,23781 3470,23831 3470,23868 3446,23894 3431,23903 L 3476,23926 C 3523,23951 3556,23952 3567,23952 3577,23952 3594,23950 3609,23943 3610,23942 3611,23942 3612,23942 3613,23942 3613,23943 3613,23943 3613,23944 3613,23945 3611,23945 3599,23952 3575,23961 3544,23961 3517,23961 3489,23951 3454,23932 L 3418,23911 Z M 3390,23911 C 3409,23911 3449,23899 3449,23837 3449,23785 3418,23758 3384,23758 3348,23758 3320,23781 3320,23828 3320,23878 3351,23911 3390,23911 Z"/>
    </g>
   </g>
   <g class="com.sun.star.drawing.ClosedBezierShape">
    <g id="id12">
     <rect class="BoundingBox" stroke="none" fill="none" x="3501" y="23753" width="164" height="168"/>
     <path fill="rgb(255,255,255)" stroke="none" d="M 3521,23816 C 3521,23783 3521,23776 3520,23769 3520,23762 3518,23758 3511,23757 3510,23757 3506,23756 3504,23756 3503,23756 3502,23756 3502,23755 3502,23754 3503,23753 3505,23753 3515,23753 3528,23754 3530,23754 3532,23754 3545,23753 3551,23753 3554,23753 3555,23754 3555,23755 3555,23756 3554,23756 3553,23756 3552,23756 3550,23757 3548,23757 3542,23758 3540,23762 3540,23769 3540,23776 3540,23783 3540,23816 L 3540,23847 C 3540,23877 3546,23891 3556,23899 3566,23909 3576,23911 3588,23911 3601,23911 3614,23905 3623,23896 3632,23883 3635,23865 3635,23843 L 3635,23816 C 3635,23783 3635,23776 3635,23769 3634,23762 3632,23758 3625,23757 3623,23757 3620,23756 3618,23756 3617,23756 3616,23756 3616,23755 3616,23754 3617,23753 3620,23753 3629,23753 3641,23754 3642,23754 3644,23754 3654,23753 3660,23753 3663,23753 3664,23754 3664,23755 3664,23756 3663,23756 3662,23756 3660,23756 3660,23757 3657,23757 3651,23758 3649,23762 3649,23769 3648,23776 3648,23783 3648,23816 L 3648,23840 C 3648,23862 3646,23889 3629,23904 3613,23917 3596,23920 3583,23920 3577,23920 3555,23919 3540,23905 3529,23894 3521,23879 3521,23848 L 3521,23816 Z"/>
    </g>
   </g>
   <g class="com.sun.star.drawing.ClosedBezierShape">
    <g id="id13">
     <rect class="BoundingBox" stroke="none" fill="none" x="3703" y="23752" width="98" height="167"/>
     <path fill="rgb(255,255,255)" stroke="none" d="M 3723,23816 C 3723,23783 3723,23777 3722,23769 3722,23763 3720,23759 3712,23757 3711,23757 3707,23757 3705,23757 3704,23757 3703,23757 3703,23756 3703,23754 3705,23754 3707,23754 3711,23754 3717,23754 3723,23754 L 3732,23754 C 3733,23754 3776,23754 3781,23754 3785,23754 3788,23754 3790,23754 3791,23753 3792,23752 3793,23752 3793,23752 3794,23753 3794,23754 3794,23756 3793,23758 3792,23764 3792,23766 3792,23775 3791,23778 3791,23779 3790,23781 3790,23781 3788,23781 3788,23780 3788,23778 3788,23776 3787,23772 3787,23770 3785,23767 3783,23764 3772,23763 3768,23763 3744,23763 3742,23763 3741,23763 3741,23763 3741,23764 L 3741,23824 C 3741,23825 3741,23826 3742,23826 3744,23826 3771,23826 3776,23825 3781,23825 3784,23824 3786,23822 3787,23821 3789,23820 3790,23820 L 3790,23821 C 3790,23823 3790,23826 3789,23833 3788,23838 3788,23846 3788,23847 3788,23849 3788,23852 3787,23852 3785,23852 3785,23850 3785,23849 3785,23847 3785,23845 3784,23842 3783,23839 3781,23836 3773,23835 3767,23834 3746,23833 3742,23833 3741,23833 3741,23834 3741,23835 L 3741,23854 C 3741,23861 3741,23887 3741,23892 3741,23907 3744,23909 3766,23909 3771,23909 3781,23909 3786,23907 3792,23904 3794,23900 3796,23892 3797,23889 3797,23888 3798,23888 3800,23888 3800,23890 3799,23892 3799,23893 3797,23907 3797,23912 3795,23918 3793,23918 3784,23918 3769,23918 3757,23917 3748,23917 3740,23916 3735,23916 3732,23916 3731,23916 3728,23916 3723,23916 3718,23916 3713,23917 3710,23917 3708,23917 3707,23916 3707,23916 3707,23915 3707,23914 3708,23914 3710,23914 3713,23913 3714,23913 3719,23913 3720,23907 3722,23901 3723,23892 3723,23875 3723,23854 L 3723,23816 Z"/>
    </g>
   </g>
   <g class="com.sun.star.drawing.ClosedBezierShape">
    <g id="id14">
     <rect class="BoundingBox" stroke="none" fill="none" x="1944" y="24000" width="217" height="167"/>
     <path fill="rgb(255,255,255)" stroke="none" d="M 2133,24139 C 2133,24146 2135,24158 2144,24161 2150,24163 2156,24163 2158,24163 2159,24163 2160,24164 2160,24164 2160,24166 2157,24166 2155,24166 2151,24166 2127,24166 2119,24165 2114,24164 2113,24164 2113,24163 2113,24162 2114,24161 2114,24161 2116,24161 2116,24158 2115,24154 L 2105,24042 2052,24155 C 2047,24164 2047,24166 2045,24166 2044,24166 2042,24164 2038,24156 2032,24146 2014,24108 2013,24106 2011,24102 1987,24050 1985,24044 L 1984,24044 1975,24145 C 1975,24148 1975,24152 1975,24155 1975,24158 1977,24161 1980,24162 1984,24163 1988,24163 1988,24163 1989,24163 1991,24164 1991,24164 1991,24166 1989,24166 1986,24166 1979,24166 1967,24166 1966,24166 1964,24166 1954,24166 1948,24166 1946,24166 1944,24166 1944,24164 L 1946,24163 C 1948,24163 1949,24163 1953,24163 1960,24161 1961,24153 1961,24145 L 1977,24004 C 1978,24002 1979,24000 1980,24000 1981,24000 1982,24001 1983,24003 L 2049,24140 2112,24004 C 2113,24002 2114,24000 2115,24000 2117,24000 2117,24002 2118,24006 L 2133,24139 Z"/>
    </g>
   </g>
   <g class="com.sun.star.drawing.ClosedBezierShape">
    <g id="id15">
     <rect class="BoundingBox" stroke="none" fill="none" x="2188" y="24001" width="99" height="166"/>
     <path fill="rgb(255,255,255)" stroke="none" d="M 2209,24066 C 2209,24031 2209,24025 2209,24018 2208,24011 2206,24008 2198,24006 2197,24006 2193,24006 2191,24006 2190,24006 2189,24005 2189,24004 2189,24003 2191,24003 2193,24003 2197,24003 2204,24003 2209,24003 L 2218,24003 C 2219,24003 2262,24003 2267,24003 2271,24003 2274,24003 2276,24002 2277,24002 2278,24001 2279,24001 2279,24001 2280,24002 2280,24003 2280,24004 2279,24007 2279,24013 2278,24015 2278,24024 2277,24027 2277,24028 2276,24030 2276,24030 2274,24030 2274,24028 2274,24027 2274,24025 2274,24021 2273,24019 2271,24015 2269,24013 2258,24012 2254,24011 2230,24011 2228,24011 2227,24011 2227,24012 2227,24013 L 2227,24073 C 2227,24075 2227,24076 2228,24076 2231,24076 2258,24076 2262,24075 2267,24074 2270,24074 2273,24072 2274,24070 2275,24069 2276,24069 2276,24069 2276,24070 2276,24071 2276,24072 2276,24076 2275,24082 2274,24087 2274,24095 2274,24097 2274,24098 2274,24101 2273,24101 2271,24101 2271,24100 2271,24099 2271,24097 2271,24095 2270,24091 2270,24088 2267,24085 2259,24084 2253,24083 2232,24083 2228,24083 2227,24083 2227,24084 2227,24085 L 2227,24104 C 2227,24110 2227,24136 2227,24141 2227,24155 2230,24158 2252,24158 2258,24158 2267,24158 2273,24156 2278,24153 2280,24149 2282,24140 2283,24137 2283,24137 2284,24137 2286,24137 2286,24138 2286,24140 2286,24142 2283,24156 2283,24161 2281,24166 2279,24166 2271,24166 2255,24166 2243,24166 2234,24165 2226,24165 2221,24165 2218,24165 2218,24165 2214,24165 2209,24165 2205,24165 2199,24165 2196,24165 2194,24165 2193,24165 2193,24164 2193,24163 2193,24162 2194,24162 2196,24162 2199,24162 2200,24162 2206,24161 2207,24156 2208,24150 2209,24141 2209,24124 2209,24104 L 2209,24066 Z"/>
    </g>
   </g>
   <g class="com.sun.star.drawing.ClosedBezierShape">
    <g id="id16">
     <rect class="BoundingBox" stroke="none" fill="none" x="2330" y="24003" width="166" height="167"/>
     <path fill="rgb(255,255,255)" stroke="none" d="M 2349,24066 C 2349,24032 2349,24026 2349,24019 2348,24011 2347,24008 2339,24007 2338,24006 2334,24006 2332,24006 L 2330,24005 C 2330,24004 2332,24003 2334,24003 2344,24003 2358,24004 2359,24004 2362,24004 2375,24003 2388,24003 2409,24003 2448,24001 2474,24028 2485,24038 2495,24057 2495,24083 2495,24110 2484,24130 2472,24143 2463,24153 2443,24168 2407,24168 2397,24168 2386,24167 2377,24167 2367,24166 2360,24166 2359,24166 2359,24166 2355,24166 2350,24166 2345,24166 2341,24166 2337,24166 2335,24166 2334,24166 2334,24164 2334,24164 2334,24163 2335,24163 2338,24163 2340,24163 2342,24162 2346,24161 2347,24157 2348,24151 2349,24142 2349,24124 2349,24104 L 2349,24066 Z M 2368,24089 C 2368,24112 2368,24132 2368,24136 2368,24141 2369,24150 2371,24152 2374,24156 2382,24161 2407,24161 2427,24161 2445,24154 2458,24141 2470,24130 2476,24109 2476,24090 2476,24063 2463,24044 2455,24035 2435,24014 2410,24011 2384,24011 2381,24011 2372,24011 2371,24012 2368,24013 2368,24014 2368,24016 2368,24023 2368,24045 2368,24063 L 2368,24089 Z"/>
    </g>
   </g>
   <g class="com.sun.star.drawing.ClosedBezierShape">
    <g id="id17">
     <rect class="BoundingBox" stroke="none" fill="none" x="2539" y="24003" width="57" height="164"/>
     <path fill="rgb(255,255,255)" stroke="none" d="M 2573,24104 C 2573,24124 2573,24142 2574,24151 2575,24157 2577,24161 2583,24162 2587,24163 2591,24163 2593,24163 2594,24163 2595,24164 2595,24164 2595,24166 2593,24166 2591,24166 2579,24166 2565,24166 2564,24166 2563,24166 2550,24166 2543,24166 2541,24166 2540,24166 2540,24164 2540,24164 2540,24163 2541,24163 2543,24163 2546,24163 2547,24162 2552,24161 2553,24157 2554,24151 2555,24142 2555,24124 2555,24104 L 2555,24066 C 2555,24032 2555,24026 2555,24019 2554,24011 2552,24008 2547,24007 2545,24006 2542,24006 2541,24006 2540,24006 2539,24005 2539,24005 2539,24004 2540,24003 2542,24003 2550,24003 2563,24004 2564,24004 2565,24004 2579,24003 2586,24003 2588,24003 2590,24004 2590,24005 2590,24005 2588,24006 2587,24006 2586,24006 2585,24006 2582,24007 2576,24008 2574,24011 2574,24019 2573,24026 2573,24032 2573,24066 L 2573,24104 Z"/>
    </g>
   </g>
   <g class="com.sun.star.drawing.ClosedBezierShape">
    <g id="id18">
     <rect class="BoundingBox" stroke="none" fill="none" x="2616" y="24000" width="166" height="167"/>
     <path fill="rgb(255,255,255)" stroke="none" d="M 2692,24008 C 2694,24002 2695,24000 2697,24000 2698,24000 2699,24001 2701,24008 2705,24016 2738,24105 2752,24138 2759,24158 2765,24161 2770,24162 2773,24163 2777,24163 2779,24163 2780,24163 2780,24164 2780,24164 2780,24166 2779,24166 2777,24166 2773,24166 2758,24166 2743,24166 2739,24166 2736,24166 2736,24164 L 2737,24163 C 2739,24162 2740,24161 2739,24157 L 2719,24103 C 2719,24103 2718,24102 2717,24102 L 2670,24102 C 2669,24102 2669,24103 2668,24104 L 2655,24143 C 2653,24148 2652,24153 2652,24157 2652,24161 2657,24163 2660,24163 L 2663,24163 C 2664,24163 2664,24164 2664,24164 2664,24166 2664,24166 2661,24166 2656,24166 2647,24166 2645,24166 2642,24166 2630,24166 2621,24166 2618,24166 2616,24166 2616,24164 2616,24164 2617,24163 2618,24163 2620,24163 2623,24163 2624,24163 2634,24161 2639,24153 2642,24143 L 2692,24008 Z M 2714,24094 C 2716,24094 2716,24094 2716,24093 L 2694,24035 C 2694,24032 2693,24032 2691,24035 L 2672,24093 C 2672,24094 2672,24094 2673,24094 L 2714,24094 Z"/>
    </g>
   </g>
   <g class="com.sun.star.drawing.ClosedBezierShape">
    <g id="id19">
     <rect class="BoundingBox" stroke="none" fill="none" x="2774" y="24000" width="138" height="167"/>
     <path fill="rgb(255,255,255)" stroke="none" d="M 2852,24103 C 2852,24124 2852,24142 2854,24151 2855,24157 2855,24161 2863,24162 2866,24163 2871,24163 2873,24163 2874,24163 2874,24164 2874,24164 2874,24166 2873,24166 2871,24166 2858,24166 2845,24166 2843,24166 2843,24166 2829,24166 2822,24166 2820,24166 2819,24166 2819,24164 2819,24164 2819,24163 2821,24163 2823,24163 2825,24163 2828,24162 2831,24161 2833,24157 2834,24151 2834,24142 2834,24124 2834,24103 L 2834,24012 2803,24013 C 2789,24013 2785,24014 2781,24020 2779,24023 2778,24025 2777,24026 2776,24028 2776,24029 2775,24029 2775,24029 2774,24028 2774,24026 2774,24024 2779,24006 2779,24004 2779,24003 2780,24000 2781,24000 2782,24000 2785,24002 2791,24002 2797,24003 2805,24004 2807,24004 L 2889,24004 C 2895,24004 2901,24003 2904,24002 2907,24002 2909,24002 2910,24002 2911,24002 2911,24003 2911,24004 2911,24011 2910,24026 2910,24028 2910,24029 2910,24030 2909,24030 2907,24030 2907,24030 2907,24027 L 2907,24024 C 2906,24018 2901,24013 2880,24013 L 2852,24012 2852,24103 Z"/>
    </g>
   </g>
   <g class="com.sun.star.drawing.ClosedBezierShape">
    <g id="id20">
     <rect class="BoundingBox" stroke="none" fill="none" x="2947" y="24003" width="171" height="164"/>
     <path fill="rgb(255,255,255)" stroke="none" d="M 3096,24104 C 3096,24124 3096,24142 3097,24151 3098,24157 3099,24161 3105,24162 3108,24163 3114,24163 3115,24163 3117,24163 3117,24164 3117,24164 3117,24166 3116,24166 3114,24166 3102,24166 3088,24166 3087,24166 3086,24166 3073,24166 3066,24166 3064,24166 3062,24166 3062,24164 3062,24164 3063,24163 3065,24163 3066,24163 3069,24163 3071,24162 3075,24161 3076,24157 3077,24151 3078,24142 3078,24124 3078,24104 L 3078,24081 3077,24080 2985,24080 C 2985,24080 2984,24080 2984,24081 L 2984,24104 C 2984,24124 2984,24142 2985,24151 2985,24157 2987,24161 2993,24162 2996,24163 3001,24163 3003,24163 3004,24163 3004,24164 3004,24164 3004,24166 3004,24166 3001,24166 2989,24166 2976,24166 2975,24166 2973,24166 2960,24166 2954,24166 2952,24166 2950,24166 2950,24164 2950,24164 2951,24163 2952,24163 2954,24163 2956,24163 2958,24162 2963,24161 2964,24157 2964,24151 2966,24142 2966,24124 2966,24104 L 2966,24066 C 2966,24032 2966,24026 2965,24019 2965,24011 2963,24008 2956,24007 2955,24006 2951,24006 2949,24006 2948,24006 2947,24005 2947,24005 2947,24004 2948,24003 2950,24003 2960,24003 2973,24004 2975,24004 2976,24004 2989,24003 2996,24003 2998,24003 2999,24004 2999,24005 L 2998,24006 C 2996,24006 2995,24006 2992,24007 2986,24008 2985,24011 2984,24019 2984,24026 2984,24032 2984,24066 L 2984,24071 C 2984,24072 2985,24072 2985,24072 L 3077,24072 C 3077,24072 3078,24072 3078,24071 L 3078,24066 C 3078,24032 3078,24026 3077,24019 3077,24011 3076,24008 3068,24007 3067,24006 3063,24006 3061,24006 3060,24006 3059,24005 3059,24005 3059,24004 3061,24003 3063,24003 3073,24003 3086,24004 3087,24004 3088,24004 3102,24003 3108,24003 3111,24003 3111,24004 3111,24005 3111,24005 3111,24006 3110,24006 3108,24006 3107,24006 3105,24007 3099,24008 3097,24011 3096,24019 3096,24026 3096,24032 3096,24066 L 3096,24104 Z"/>
    </g>
   </g>
   <g class="com.sun.star.drawing.ClosedBezierShape">
    <g id="id21">
     <rect class="BoundingBox" stroke="none" fill="none" x="3163" y="24001" width="98" height="166"/>
     <path fill="rgb(255,255,255)" stroke="none" d="M 3183,24066 C 3183,24031 3183,24025 3182,24018 3181,24011 3180,24008 3173,24006 3171,24006 3168,24006 3166,24006 3165,24006 3164,24005 3164,24004 3164,24003 3165,24003 3167,24003 3172,24003 3178,24003 3183,24003 L 3192,24003 C 3193,24003 3236,24003 3241,24003 3245,24003 3249,24003 3251,24002 3252,24002 3253,24001 3254,24001 3254,24001 3254,24002 3254,24003 3254,24004 3254,24007 3253,24013 3253,24015 3252,24024 3252,24027 3251,24028 3251,24030 3251,24030 3249,24030 3248,24028 3248,24027 3248,24025 3248,24021 3248,24019 3245,24015 3243,24013 3231,24012 3227,24011 3204,24011 3202,24011 3201,24011 3201,24012 3201,24013 L 3201,24073 C 3201,24075 3201,24076 3202,24076 3205,24076 3231,24076 3236,24075 3241,24074 3244,24074 3247,24072 3248,24070 3249,24069 3250,24069 3251,24069 3251,24070 3251,24071 3251,24072 3250,24076 3249,24082 3249,24087 3248,24095 3248,24097 3248,24098 3248,24101 3247,24101 3245,24101 3245,24100 3245,24099 3245,24097 3245,24095 3244,24091 3243,24088 3241,24085 3233,24084 3227,24083 3205,24083 3202,24083 3201,24083 3201,24084 3201,24085 L 3201,24104 C 3201,24110 3200,24136 3201,24141 3201,24155 3205,24158 3226,24158 3231,24158 3241,24158 3247,24156 3252,24153 3255,24149 3257,24140 3257,24137 3258,24137 3258,24137 3260,24137 3260,24138 3260,24140 3260,24142 3258,24156 3257,24161 3255,24166 3254,24166 3245,24166 3229,24166 3217,24166 3208,24165 3200,24165 3195,24165 3192,24165 3191,24165 3187,24165 3183,24165 3178,24165 3174,24165 3171,24165 3168,24165 3167,24165 3167,24164 3167,24163 3168,24162 3169,24162 3171,24162 3173,24162 3175,24162 3180,24161 3181,24156 3181,24150 3183,24141 3183,24124 3183,24104 L 3183,24066 Z"/>
    </g>
   </g>
   <g class="com.sun.star.drawing.ClosedBezierShape">
    <g id="id22">
     <rect class="BoundingBox" stroke="none" fill="none" x="3306" y="24003" width="161" height="164"/>
     <path fill="rgb(255,255,255)" stroke="none" d="M 3325,24066 C 3325,24032 3325,24026 3324,24019 3324,24011 3322,24008 3315,24007 3314,24006 3310,24006 3308,24006 3307,24006 3306,24005 3306,24005 3306,24004 3307,24003 3310,24003 3319,24003 3332,24004 3333,24004 3335,24004 3347,24003 3354,24003 3357,24003 3357,24004 3357,24005 3357,24005 3357,24006 3356,24006 3354,24006 3353,24006 3350,24007 3344,24008 3343,24011 3342,24019 3342,24026 3342,24032 3342,24066 L 3342,24079 3343,24079 C 3347,24075 3385,24035 3393,24026 3399,24020 3405,24014 3405,24011 3405,24008 3403,24007 3402,24006 3401,24006 3400,24005 3400,24005 3400,24004 3401,24003 3403,24003 3407,24003 3413,24004 3418,24004 3420,24004 3434,24003 3440,24003 3442,24003 3443,24004 3443,24005 3443,24005 3442,24006 3441,24006 3438,24006 3433,24007 3428,24009 3419,24013 3415,24018 3405,24028 3400,24032 3363,24070 3358,24075 3363,24081 3408,24127 3417,24136 3435,24153 3439,24156 3449,24161 3455,24163 3461,24163 3463,24163 3464,24163 3466,24164 3466,24164 3466,24166 3464,24166 3461,24166 L 3450,24166 C 3444,24166 3440,24166 3434,24166 3423,24164 3418,24160 3409,24153 3399,24145 3354,24096 3343,24083 L 3342,24083 3342,24104 C 3342,24124 3342,24142 3343,24151 3344,24157 3344,24161 3351,24162 3354,24163 3358,24163 3360,24163 3361,24163 3361,24164 3361,24164 3361,24166 3360,24166 3358,24166 3347,24166 3335,24166 3333,24166 3332,24166 3319,24166 3313,24166 3311,24166 3309,24166 3309,24164 3309,24164 3310,24163 3311,24163 3313,24163 3315,24163 3317,24162 3322,24161 3323,24157 3323,24151 3325,24142 3325,24124 3325,24104 L 3325,24066 Z"/>
    </g>
   </g>
   <g class="com.sun.star.drawing.ClosedBezierShape">
    <g id="id23">
     <rect class="BoundingBox" stroke="none" fill="none" x="1851" y="22634" width="874" height="869"/>
     <path fill="rgb(229,22,54)" stroke="none" d="M 2369,22635 C 2359,22635 2349,22636 2340,22638 2163,22673 2062,22701 2007,22717 L 2306,22756 2306,23314 1851,23375 C 1886,23449 1943,23501 2036,23501 2056,23501 2078,23498 2101,23493 2414,23425 2744,23317 2723,23173 2705,23048 2568,22634 2369,22635 Z"/>
    </g>
   </g>
   <g class="com.sun.star.drawing.ClosedBezierShape">
    <g id="id24">
     <rect class="BoundingBox" stroke="none" fill="none" x="1499" y="22651" width="510" height="774"/>
     <path fill="rgb(178,177,177)" stroke="none" d="M 1499,22651 L 1499,23423 1852,23376 C 1794,23257 1792,23086 1774,22999 1746,22849 1946,22740 1946,22740 1946,22740 1960,22732 2008,22718 L 1499,22651 Z"/>
    </g>
   </g>
   <g class="com.sun.star.drawing.ClosedBezierShape">
    <g id="id25">
     <rect class="BoundingBox" stroke="none" fill="none" x="1771" y="22717" width="537" height="659"/>
     <path fill="rgb(150,10,44)" stroke="none" d="M 2008,22717 C 1960,22731 1946,22739 1946,22739 1946,22739 1745,22848 1774,22999 1791,23086 1793,23257 1851,23375 L 2307,23314 2307,22756 2008,22717 Z"/>
    </g>
   </g>
   <g class="com.sun.star.drawing.ClosedBezierShape">
    <g id="id26">
     <rect class="BoundingBox" stroke="none" fill="none" x="1906" y="22876" width="316" height="321"/>
     <path fill="rgb(255,255,255)" stroke="none" d="M 2218,22951 C 2213,22909 2177,22876 2132,22876 2107,22876 2083,22887 2067,22906 L 2059,22906 2057,22904 C 2041,22887 2018,22876 1993,22876 1973,22876 1955,22883 1940,22894 1932,22899 1924,22906 1918,22917 1914,22926 1910,22935 1908,22943 1908,22945 1908,22947 1908,22948 1907,22953 1906,22957 1906,22962 L 1906,22963 C 1906,22965 1906,22966 1906,22969 L 1906,23016 1906,23196 1950,23196 1950,23016 1950,22969 C 1950,22956 1954,22946 1963,22937 1973,22928 1984,22924 1996,22924 2009,22924 2019,22928 2028,22937 2036,22946 2041,22956 2041,22969 L 2041,23016 2041,23196 2085,23196 2085,23016 2085,22969 C 2085,22956 2089,22946 2098,22937 2107,22928 2118,22924 2131,22924 2144,22924 2154,22928 2162,22937 2171,22946 2175,22956 2175,22969 L 2175,23016 2175,23196 2220,23196 2220,23016 2220,22969 C 2220,22963 2219,22957 2218,22951 Z"/>
    </g>
   </g>
  </g>
 </g>
</svg>