<?xml version="1.0" encoding="UTF-8"?>
<!DOCTYPE svg PUBLIC "-//W3C//DTD SVG 1.1//EN" "http://www.w3.org/Graphics/SVG/1.1/DTD/svg11.dtd">
<svg version="1.2" width="62.94mm" height="12.85mm" viewBox="1244 9979 6294 1285" preserveAspectRatio="xMidYMid" fill-rule="evenodd" stroke-width="28.222" stroke-linejoin="round" xmlns="http://www.w3.org/2000/svg" xmlns:ooo="http://xml.openoffice.org/svg/export" xmlns:xlink="http://www.w3.org/1999/xlink" xmlns:presentation="http://sun.com/xmlns/staroffice/presentation" xmlns:smil="http://www.w3.org/2001/SMIL20/" xmlns:anim="urn:oasis:names:tc:opendocument:xmlns:animation:1.0" xml:space="preserve">
 <defs class="EmbeddedBulletChars">
  <g id="bullet-char-template-57356" transform="scale(0.00048828125,-0.00048828125)">
   <path d="M 580,1141 L 1163,571 580,0 -4,571 580,1141 Z"/>
  </g>
  <g id="bullet-char-template-57354" transform="scale(0.00048828125,-0.00048828125)">
   <path d="M 8,1128 L 1137,1128 1137,0 8,0 8,1128 Z"/>
  </g>
  <g id="bullet-char-template-10146" transform="scale(0.00048828125,-0.00048828125)">
   <path d="M 174,0 L 602,739 174,1481 1456,739 174,0 Z M 1358,739 L 309,1346 659,739 1358,739 Z"/>
  </g>
  <g id="bullet-char-template-10132" transform="scale(0.00048828125,-0.00048828125)">
   <path d="M 2015,739 L 1276,0 717,0 1260,543 174,543 174,936 1260,936 717,1481 1274,1481 2015,739 Z"/>
  </g>
  <g id="bullet-char-template-10007" transform="scale(0.00048828125,-0.00048828125)">
   <path d="M 0,-2 C -7,14 -16,27 -25,37 L 356,567 C 262,823 215,952 215,954 215,979 228,992 255,992 264,992 276,990 289,987 310,991 331,999 354,1012 L 381,999 492,748 772,1049 836,1024 860,1049 C 881,1039 901,1025 922,1006 886,937 835,863 770,784 769,783 710,716 594,584 L 774,223 C 774,196 753,168 711,139 L 727,119 C 717,90 699,76 672,76 641,76 570,178 457,381 L 164,-76 C 142,-110 111,-127 72,-127 30,-127 9,-110 8,-76 1,-67 -2,-52 -2,-32 -2,-23 -1,-13 0,-2 Z"/>
  </g>
  <g id="bullet-char-template-10004" transform="scale(0.00048828125,-0.00048828125)">
   <path d="M 285,-33 C 182,-33 111,30 74,156 52,228 41,333 41,471 41,549 55,616 82,672 116,743 169,778 240,778 293,778 328,747 346,684 L 369,508 C 377,444 397,411 428,410 L 1163,1116 C 1174,1127 1196,1133 1229,1133 1271,1133 1292,1118 1292,1087 L 1292,965 C 1292,929 1282,901 1262,881 L 442,47 C 390,-6 338,-33 285,-33 Z"/>
  </g>
  <g id="bullet-char-template-9679" transform="scale(0.00048828125,-0.00048828125)">
   <path d="M 813,0 C 632,0 489,54 383,161 276,268 223,411 223,592 223,773 276,916 383,1023 489,1130 632,1184 813,1184 992,1184 1136,1130 1245,1023 1353,916 1407,772 1407,592 1407,412 1353,268 1245,161 1136,54 992,0 813,0 Z"/>
  </g>
  <g id="bullet-char-template-8226" transform="scale(0.00048828125,-0.00048828125)">
   <path d="M 346,457 C 273,457 209,483 155,535 101,586 74,649 74,723 74,796 101,859 155,911 209,963 273,989 346,989 419,989 480,963 531,910 582,859 608,796 608,723 608,648 583,586 532,535 482,483 420,457 346,457 Z"/>
  </g>
  <g id="bullet-char-template-8211" transform="scale(0.00048828125,-0.00048828125)">
   <path d="M -4,459 L 1135,459 1135,606 -4,606 -4,459 Z"/>
  </g>
  <g id="bullet-char-template-61548" transform="scale(0.00048828125,-0.00048828125)">
   <path d="M 173,740 C 173,903 231,1043 346,1159 462,1274 601,1332 765,1332 928,1332 1067,1274 1183,1159 1299,1043 1357,903 1357,740 1357,577 1299,437 1183,322 1067,206 928,148 765,148 601,148 462,206 346,322 231,437 173,577 173,740 Z"/>
  </g>
 </defs>
 <g class="Page">
  <g class="com.sun.star.drawing.ClosedBezierShape">
   <g id="id3">
    <rect class="BoundingBox" stroke="none" fill="none" x="1244" y="10878" width="1240" height="386"/>
    <path fill="rgb(255,191,0)" stroke="none" d="M 2214,10963 L 2214,10964 C 2216,10974 2217,10984 2217,10993 2217,11113 2085,11163 1883,11163 1682,11163 1510,11113 1510,10993 1510,10983 1511,10972 1513,10962 L 1529,10879 C 1334,10925 1244,11000 1244,11053 1244,11141 1481,11263 1864,11263 2248,11263 2483,11141 2483,11053 2483,11000 2393,10925 2198,10879 L 2214,10963 Z"/>
   </g>
  </g>
  <g class="com.sun.star.drawing.ClosedBezierShape">
   <g id="id4">
    <rect class="BoundingBox" stroke="none" fill="none" x="1553" y="9979" width="715" height="1141"/>
    <path fill="rgb(255,191,0)" stroke="none" d="M 1779,10165 C 1776,10167 1774,10169 1772,10172 1771,10174 1771,10176 1770,10178 1770,10178 1518,10818 1557,11034 1648,11099 1747,11119 1872,11118 2018,11118 2082,11098 2184,11024 2177,10855 2077,10711 2037,10543 1972,10542 1863,10565 1829,10570 1864,10551 2015,10515 2027,10508 2015,10445 2012,10323 2015,10271 1962,10251 1891,10242 1855,10226 L 2015,10241 2018,10218 C 2017,10216 1952,10158 1952,10156 1952,10152 2002,10177 2002,10177 L 2090,10075 C 2092,10073 2094,10072 2096,10070 2099,10068 2103,10067 2107,10067 2109,10067 2111,10068 2113,10068 L 2266,10110 2127,9985 C 2126,9984 2124,9983 2123,9982 2120,9980 2116,9979 2112,9979 L 2054,9979 C 2050,9979 2047,9980 2043,9982 L 2042,9983 1779,10165 Z"/>
   </g>
  </g>
  <g class="Group">
   <g class="com.sun.star.drawing.ClosedBezierShape">
    <g id="id5">
     <rect class="BoundingBox" stroke="none" fill="none" x="2807" y="9998" width="625" height="528"/>
     <path fill="rgb(255,191,0)" stroke="none" d="M 3397,10025 L 3407,10035 C 3393,10050 3384,10062 3381,10072 3377,10082 3375,10096 3375,10116 L 3375,10355 C 3375,10380 3377,10395 3381,10402 3385,10408 3391,10411 3398,10411 3403,10411 3411,10406 3422,10397 L 3431,10409 3356,10468 C 3338,10459 3326,10448 3319,10437 3313,10425 3310,10404 3310,10374 L 3310,10078 3258,10038 3237,10051 3237,10204 3275,10204 3237,10251 3237,10381 3260,10361 3271,10372 3157,10468 C 3139,10448 3125,10433 3115,10423 3107,10417 3098,10411 3087,10405 L 3087,10394 C 3096,10391 3103,10385 3106,10378 3108,10373 3109,10360 3109,10340 L 3109,10251 3015,10251 3015,10384 C 3015,10421 3006,10449 2987,10469 2968,10489 2944,10499 2914,10499 2907,10499 2895,10498 2878,10496 2867,10495 2858,10494 2853,10494 2843,10494 2835,10496 2830,10501 2825,10506 2823,10514 2823,10525 L 2811,10525 C 2808,10516 2807,10509 2807,10503 2807,10491 2810,10481 2816,10471 2821,10461 2829,10454 2839,10449 2846,10446 2860,10443 2880,10441 2900,10439 2914,10433 2924,10422 2933,10411 2938,10397 2938,10378 2938,10348 2931,10324 2917,10305 2903,10286 2887,10276 2867,10276 2852,10276 2839,10283 2830,10298 L 2818,10294 C 2824,10278 2830,10266 2837,10258 2845,10250 2855,10243 2867,10239 2876,10235 2890,10233 2907,10233 2906,10227 2906,10222 2906,10219 2906,10184 2913,10155 2927,10131 2941,10107 2963,10085 2993,10065 3022,10045 3065,10023 3120,9998 3140,10009 3153,10019 3160,10030 3167,10040 3171,10056 3172,10076 L 3294,9998 3368,10054 3397,10025 Z M 3109,10204 L 3109,10112 C 3109,10089 3106,10073 3100,10063 3095,10053 3084,10045 3069,10039 3055,10046 3045,10053 3039,10058 3031,10067 3025,10077 3021,10089 3017,10101 3015,10117 3015,10139 L 3015,10237 3041,10204 3109,10204 Z M 3223,10060 L 3172,10092 3172,10204 3223,10204 3223,10060 Z M 3012,10071 C 2995,10085 2983,10099 2978,10111 2973,10124 2970,10146 2970,10177 L 2970,10352 C 2970,10381 2966,10401 2959,10412 2952,10424 2938,10434 2917,10442 2926,10443 2934,10443 2940,10443 2956,10443 2968,10440 2978,10435 2987,10430 2994,10423 2997,10416 3000,10408 3001,10394 3001,10375 L 3001,10143 C 3001,10125 3002,10110 3004,10099 3005,10091 3008,10082 3012,10071 Z M 3223,10251 L 3172,10251 3172,10332 C 3172,10359 3174,10377 3178,10385 3184,10399 3192,10405 3202,10405 3207,10405 3214,10401 3223,10393 L 3223,10251 Z"/>
    </g>
   </g>
   <g class="com.sun.star.drawing.ClosedBezierShape">
    <g id="id6">
     <rect class="BoundingBox" stroke="none" fill="none" x="3469" y="10031" width="130" height="438"/>
     <path fill="rgb(255,191,0)" stroke="none" d="M 3549,10031 L 3588,10031 3545,10098 3532,10098 3549,10031 Z M 3524,10137 L 3580,10182 3555,10206 3555,10375 C 3555,10393 3556,10405 3559,10410 3562,10415 3565,10418 3568,10418 3571,10418 3573,10417 3575,10416 3577,10415 3582,10410 3591,10403 L 3598,10413 3532,10468 C 3515,10456 3504,10445 3499,10435 3494,10424 3492,10406 3492,10380 L 3492,10206 3469,10182 3524,10137 Z"/>
    </g>
   </g>
   <g class="com.sun.star.drawing.ClosedBezierShape">
    <g id="id7">
     <rect class="BoundingBox" stroke="none" fill="none" x="3635" y="10137" width="294" height="332"/>
     <path fill="rgb(255,191,0)" stroke="none" d="M 3837,10137 L 3879,10184 3910,10155 3918,10163 C 3903,10176 3894,10186 3891,10193 3887,10202 3885,10215 3885,10231 L 3885,10379 C 3885,10393 3887,10403 3891,10409 3894,10414 3897,10416 3900,10416 3903,10416 3910,10412 3921,10403 L 3928,10413 3863,10468 C 3845,10455 3834,10444 3829,10434 3824,10424 3822,10407 3822,10385 L 3822,10215 3794,10186 3741,10228 3741,10401 3764,10424 3710,10468 3655,10424 3678,10401 3678,10243 C 3678,10220 3676,10205 3671,10197 3668,10192 3665,10189 3661,10189 3657,10189 3651,10193 3643,10202 L 3635,10192 3701,10137 C 3719,10151 3730,10161 3734,10169 3739,10177 3741,10188 3741,10202 L 3741,10213 3837,10137 Z"/>
    </g>
   </g>
   <g class="com.sun.star.drawing.ClosedBezierShape">
    <g id="id8">
     <rect class="BoundingBox" stroke="none" fill="none" x="3969" y="10031" width="130" height="438"/>
     <path fill="rgb(255,191,0)" stroke="none" d="M 4049,10031 L 4088,10031 4045,10098 4032,10098 4049,10031 Z M 4024,10137 L 4080,10182 4055,10206 4055,10375 C 4055,10393 4056,10405 4059,10410 4062,10415 4065,10418 4068,10418 4071,10418 4073,10417 4075,10416 4077,10415 4082,10410 4091,10403 L 4098,10413 4032,10468 C 4015,10456 4004,10445 3999,10435 3994,10424 3992,10406 3992,10380 L 3992,10206 3969,10182 4024,10137 Z"/>
    </g>
   </g>
   <g class="com.sun.star.drawing.ClosedBezierShape">
    <g id="id9">
     <rect class="BoundingBox" stroke="none" fill="none" x="4131" y="10087" width="261" height="382"/>
     <path fill="rgb(255,191,0)" stroke="none" d="M 4305,10252 L 4376,10290 4376,10421 C 4359,10423 4343,10427 4329,10434 4314,10440 4298,10452 4281,10468 4265,10459 4252,10453 4241,10449 4229,10446 4218,10444 4205,10444 4186,10444 4168,10450 4153,10462 4148,10466 4144,10468 4141,10468 4139,10468 4137,10467 4134,10465 4132,10462 4131,10460 4131,10458 4131,10455 4133,10452 4138,10448 4140,10445 4145,10440 4151,10433 L 4178,10399 4218,10345 4151,10309 4151,10193 C 4172,10186 4189,10179 4201,10171 4214,10163 4225,10151 4237,10137 4263,10148 4284,10155 4300,10160 4312,10163 4323,10164 4333,10164 4345,10164 4354,10161 4360,10156 4367,10151 4370,10146 4370,10140 4370,10137 4368,10133 4364,10129 4355,10122 4351,10115 4351,10108 4351,10102 4353,10097 4356,10093 4360,10089 4364,10087 4368,10087 4374,10087 4379,10090 4384,10095 4389,10100 4391,10107 4391,10116 4391,10125 4389,10134 4385,10142 4382,10151 4375,10162 4364,10175 L 4305,10252 Z M 4214,10273 L 4255,10295 4324,10204 C 4310,10208 4298,10210 4288,10210 4263,10210 4238,10202 4214,10185 L 4214,10273 Z M 4267,10301 L 4192,10402 C 4201,10399 4210,10397 4218,10395 4226,10394 4233,10393 4239,10393 4263,10393 4287,10401 4313,10417 L 4313,10327 4267,10301 Z"/>
    </g>
   </g>
   <g class="com.sun.star.drawing.ClosedBezierShape">
    <g id="id10">
     <rect class="BoundingBox" stroke="none" fill="none" x="4422" y="10065" width="156" height="404"/>
     <path fill="rgb(255,191,0)" stroke="none" d="M 4422,10171 L 4507,10065 4516,10065 4514,10150 4576,10150 4576,10185 4514,10185 4514,10394 4549,10420 4569,10404 4577,10413 4509,10468 C 4485,10444 4459,10428 4429,10420 L 4429,10414 C 4437,10408 4443,10403 4446,10397 4449,10389 4451,10378 4451,10363 L 4451,10185 4422,10185 4422,10171 Z"/>
    </g>
   </g>
   <g class="com.sun.star.drawing.ClosedBezierShape">
    <g id="id11">
     <rect class="BoundingBox" stroke="none" fill="none" x="4604" y="10137" width="223" height="332"/>
     <path fill="rgb(255,191,0)" stroke="none" d="M 4780,10137 L 4826,10194 4780,10235 4740,10187 4710,10214 4710,10395 4745,10420 4777,10395 4785,10404 4706,10468 C 4689,10453 4674,10443 4663,10436 4651,10430 4639,10425 4625,10421 L 4625,10415 C 4634,10409 4640,10402 4643,10395 4646,10389 4647,10376 4647,10357 L 4647,10229 C 4647,10213 4645,10202 4642,10197 4638,10192 4634,10189 4630,10189 4626,10189 4619,10193 4612,10202 L 4604,10192 4668,10137 C 4685,10150 4697,10162 4704,10172 4708,10178 4710,10187 4710,10198 L 4780,10137 Z"/>
    </g>
   </g>
   <g class="com.sun.star.drawing.ClosedBezierShape">
    <g id="id12">
     <rect class="BoundingBox" stroke="none" fill="none" x="4849" y="10137" width="254" height="420"/>
     <path fill="rgb(255,191,0)" stroke="none" d="M 4852,10191 L 4917,10137 C 4935,10149 4947,10160 4952,10169 4957,10178 4960,10190 4960,10206 L 4960,10213 5055,10137 C 5086,10171 5102,10207 5102,10246 5102,10267 5097,10288 5086,10308 5076,10329 5059,10349 5036,10367 5014,10385 4977,10410 4927,10439 4905,10453 4892,10461 4887,10464 4878,10472 4871,10479 4867,10486 4864,10490 4863,10496 4863,10502 4863,10513 4868,10523 4879,10532 4889,10541 4903,10545 4920,10545 4933,10545 4943,10543 4951,10538 4955,10536 4959,10532 4963,10525 4967,10519 4970,10514 4973,10512 4975,10510 4979,10509 4982,10509 4986,10509 4990,10510 4992,10512 4995,10515 4996,10518 4996,10521 4996,10528 4991,10534 4981,10541 4966,10551 4947,10556 4925,10556 4901,10556 4882,10550 4869,10539 4856,10528 4850,10514 4850,10499 4850,10483 4857,10468 4872,10454 4879,10447 4883,10442 4885,10439 4890,10431 4893,10424 4894,10417 4896,10410 4897,10400 4897,10388 L 4897,10239 C 4897,10218 4895,10204 4890,10197 4886,10191 4882,10188 4878,10188 4874,10188 4870,10191 4864,10197 4863,10198 4862,10199 4860,10201 L 4852,10191 Z M 4960,10228 L 4960,10403 C 4989,10382 5010,10360 5022,10337 5035,10315 5041,10293 5041,10272 5041,10244 5030,10217 5008,10190 L 4960,10228 Z"/>
    </g>
   </g>
   <g class="com.sun.star.drawing.ClosedBezierShape">
    <g id="id13">
     <rect class="BoundingBox" stroke="none" fill="none" x="5301" y="10137" width="228" height="332"/>
     <path fill="rgb(255,191,0)" stroke="none" d="M 5528,10182 L 5528,10415 C 5497,10428 5474,10438 5460,10446 5450,10452 5439,10459 5430,10468 5400,10449 5375,10436 5355,10429 5341,10424 5324,10421 5305,10421 L 5302,10415 C 5310,10408 5315,10402 5317,10397 5320,10390 5321,10378 5321,10361 L 5321,10190 C 5359,10177 5392,10160 5420,10137 5449,10156 5485,10171 5528,10182 Z M 5384,10385 L 5465,10418 5465,10220 C 5440,10208 5422,10201 5411,10197 5404,10194 5395,10192 5384,10190 L 5384,10385 Z"/>
    </g>
   </g>
   <g class="com.sun.star.drawing.ClosedBezierShape">
    <g id="id14">
     <rect class="BoundingBox" stroke="none" fill="none" x="5574" y="10023" width="161" height="447"/>
     <path fill="rgb(255,191,0)" stroke="none" d="M 5733,10038 L 5724,10089 5666,10076 5666,10151 5714,10151 5714,10186 5666,10186 5666,10393 5701,10420 5725,10401 5733,10410 5662,10468 C 5636,10445 5609,10429 5582,10421 L 5580,10414 C 5588,10409 5593,10404 5596,10399 5601,10391 5603,10380 5603,10368 L 5603,10186 5574,10186 5574,10151 5603,10151 5603,10076 C 5634,10055 5658,10037 5674,10023 L 5733,10038 Z"/>
    </g>
   </g>
   <g class="com.sun.star.drawing.ClosedBezierShape">
    <g id="id15">
     <rect class="BoundingBox" stroke="none" fill="none" x="5910" y="9998" width="625" height="528"/>
     <path fill="rgb(255,191,0)" stroke="none" d="M 6500,10025 L 6510,10035 C 6496,10050 6487,10062 6484,10072 6480,10082 6478,10096 6478,10116 L 6478,10355 C 6478,10380 6480,10395 6484,10402 6488,10408 6494,10411 6501,10411 6506,10411 6514,10406 6525,10397 L 6534,10409 6459,10468 C 6441,10459 6429,10448 6422,10437 6416,10425 6413,10404 6413,10374 L 6413,10078 6361,10038 6340,10051 6340,10204 6378,10204 6340,10251 6340,10381 6363,10361 6374,10372 6260,10468 C 6242,10448 6228,10433 6218,10423 6210,10417 6201,10411 6190,10405 L 6190,10394 C 6199,10391 6206,10385 6209,10378 6211,10373 6212,10360 6212,10340 L 6212,10251 6118,10251 6118,10384 C 6118,10421 6109,10449 6090,10469 6071,10489 6047,10499 6017,10499 6010,10499 5998,10498 5981,10496 5970,10495 5961,10494 5956,10494 5946,10494 5938,10496 5933,10501 5928,10506 5926,10514 5926,10525 L 5914,10525 C 5911,10516 5910,10509 5910,10503 5910,10491 5913,10481 5919,10471 5924,10461 5932,10454 5942,10449 5949,10446 5963,10443 5983,10441 6003,10439 6017,10433 6027,10422 6036,10411 6041,10397 6041,10378 6041,10348 6034,10324 6020,10305 6006,10286 5990,10276 5970,10276 5955,10276 5942,10283 5933,10298 L 5921,10294 C 5927,10278 5933,10266 5940,10258 5948,10250 5958,10243 5970,10239 5979,10235 5993,10233 6010,10233 6009,10227 6009,10222 6009,10219 6009,10184 6016,10155 6030,10131 6044,10107 6066,10085 6096,10065 6125,10045 6168,10023 6223,9998 6243,10009 6256,10019 6263,10030 6270,10040 6274,10056 6275,10076 L 6397,9998 6471,10054 6500,10025 Z M 6212,10204 L 6212,10112 C 6212,10089 6209,10073 6203,10063 6198,10053 6187,10045 6172,10039 6158,10046 6148,10053 6142,10058 6134,10067 6128,10077 6124,10089 6120,10101 6118,10117 6118,10139 L 6118,10237 6144,10204 6212,10204 Z M 6326,10060 L 6275,10092 6275,10204 6326,10204 6326,10060 Z M 6115,10071 C 6098,10085 6086,10099 6081,10111 6076,10124 6073,10146 6073,10177 L 6073,10352 C 6073,10381 6069,10401 6062,10412 6055,10424 6041,10434 6020,10442 6029,10443 6037,10443 6043,10443 6059,10443 6071,10440 6081,10435 6090,10430 6097,10423 6100,10416 6103,10408 6104,10394 6104,10375 L 6104,10143 C 6104,10125 6105,10110 6107,10099 6108,10091 6111,10082 6115,10071 Z M 6326,10251 L 6275,10251 6275,10332 C 6275,10359 6277,10377 6281,10385 6287,10399 6295,10405 6305,10405 6310,10405 6317,10401 6326,10393 L 6326,10251 Z"/>
    </g>
   </g>
   <g class="com.sun.star.drawing.ClosedBezierShape">
    <g id="id16">
     <rect class="BoundingBox" stroke="none" fill="none" x="6564" y="10137" width="255" height="332"/>
     <path fill="rgb(255,191,0)" stroke="none" d="M 6790,10150 L 6801,10154 C 6790,10171 6783,10185 6780,10194 6777,10203 6775,10216 6775,10232 L 6775,10364 C 6775,10386 6777,10400 6780,10406 6783,10411 6786,10414 6791,10414 6793,10414 6795,10413 6797,10412 6799,10411 6803,10407 6811,10401 L 6818,10411 6753,10468 C 6737,10456 6726,10445 6721,10435 6716,10425 6713,10411 6712,10394 L 6619,10468 C 6583,10439 6565,10410 6565,10382 6565,10363 6569,10346 6576,10329 6587,10307 6604,10282 6629,10253 L 6592,10173 6596,10164 C 6604,10165 6610,10165 6614,10165 6638,10165 6660,10156 6678,10137 6693,10146 6710,10153 6728,10158 6746,10163 6759,10166 6769,10166 6773,10166 6776,10165 6779,10164 6781,10162 6785,10158 6790,10150 Z M 6712,10209 L 6606,10177 6644,10257 6712,10289 6712,10209 Z M 6712,10302 L 6637,10267 C 6626,10292 6620,10314 6620,10333 6620,10367 6635,10394 6665,10416 L 6712,10379 6712,10302 Z"/>
    </g>
   </g>
   <g class="com.sun.star.drawing.ClosedBezierShape">
    <g id="id17">
     <rect class="BoundingBox" stroke="none" fill="none" x="6876" y="10137" width="268" height="420"/>
     <path fill="rgb(255,191,0)" stroke="none" d="M 6989,10137 L 7085,10182 7143,10153 7143,10223 7087,10212 7087,10353 C 7087,10376 7088,10391 7091,10399 7095,10410 7102,10422 7113,10436 7131,10459 7140,10475 7140,10485 7140,10495 7135,10505 7126,10514 7116,10523 7091,10537 7051,10556 7037,10551 7023,10547 7011,10545 6998,10542 6986,10541 6975,10541 6948,10541 6916,10546 6880,10556 L 6876,10546 6949,10460 6876,10407 6876,10182 C 6917,10173 6954,10158 6989,10137 Z M 7024,10211 L 6939,10182 6939,10386 6984,10419 7024,10372 7024,10211 Z M 6930,10500 C 6957,10495 6979,10493 6996,10493 7010,10493 7026,10495 7041,10499 7056,10503 7071,10509 7087,10517 L 7100,10509 C 7072,10483 7053,10462 7043,10445 7033,10429 7027,10412 7024,10393 L 6930,10500 Z"/>
    </g>
   </g>
   <g class="com.sun.star.drawing.ClosedBezierShape">
    <g id="id18">
     <rect class="BoundingBox" stroke="none" fill="none" x="7177" y="10031" width="131" height="438"/>
     <path fill="rgb(255,191,0)" stroke="none" d="M 7258,10031 L 7297,10031 7254,10098 7241,10098 7258,10031 Z M 7233,10137 L 7289,10182 7264,10206 7264,10375 C 7264,10393 7265,10405 7268,10410 7271,10415 7274,10418 7277,10418 7280,10418 7282,10417 7284,10416 7286,10415 7291,10410 7300,10403 L 7307,10413 7241,10468 C 7224,10456 7213,10445 7208,10435 7203,10424 7201,10406 7201,10380 L 7201,10206 7178,10182 7233,10137 Z"/>
    </g>
   </g>
   <g class="com.sun.star.drawing.ClosedBezierShape">
    <g id="id19">
     <rect class="BoundingBox" stroke="none" fill="none" x="7357" y="10137" width="181" height="332"/>
     <path fill="rgb(255,191,0)" stroke="none" d="M 7453,10137 L 7534,10183 7502,10230 7439,10196 7439,10395 7501,10423 7534,10399 7536,10412 7459,10468 C 7439,10457 7422,10448 7408,10443 7394,10438 7377,10433 7357,10430 L 7357,10423 C 7364,10418 7369,10413 7371,10407 7374,10399 7376,10386 7376,10368 L 7376,10190 C 7402,10178 7427,10161 7453,10137 Z"/>
    </g>
   </g>
   <g class="com.sun.star.drawing.ClosedBezierShape">
    <g id="id20">
     <rect class="BoundingBox" stroke="none" fill="none" x="2814" y="10633" width="440" height="471"/>
     <path fill="rgb(255,191,0)" stroke="none" d="M 3169,10633 L 3176,10645 C 3152,10648 3134,10655 3123,10665 3111,10675 3105,10690 3105,10710 3105,10721 3106,10737 3109,10758 3113,10793 3115,10822 3115,10845 3115,10875 3108,10902 3094,10925 3081,10947 3049,10980 2998,11023 3031,11012 3060,11007 3086,11007 3110,11007 3131,11010 3150,11017 3169,11023 3190,11034 3213,11051 L 3245,11023 3253,11034 3173,11103 C 3151,11087 3129,11075 3107,11067 3086,11060 3061,11056 3032,11056 3005,11056 2980,11059 2956,11066 2932,11072 2902,11084 2865,11103 L 2857,11095 C 2895,11067 2919,11044 2932,11028 2944,11011 2950,10995 2950,10981 2950,10966 2946,10955 2937,10945 2928,10936 2917,10931 2906,10931 2900,10931 2893,10933 2886,10936 L 2876,10927 C 2884,10920 2891,10915 2897,10913 2904,10910 2911,10909 2920,10909 2925,10909 2930,10910 2935,10911 2941,10912 2946,10914 2951,10917 2951,10912 2952,10908 2952,10906 2952,10892 2947,10881 2937,10871 2927,10862 2915,10857 2900,10857 2890,10857 2879,10861 2869,10869 L 2857,10862 C 2865,10852 2873,10845 2881,10842 2894,10835 2907,10832 2922,10832 2925,10832 2928,10832 2932,10833 2936,10833 2940,10834 2944,10835 2943,10822 2942,10811 2942,10803 2942,10777 2946,10756 2953,10738 2961,10720 2973,10701 2992,10682 2972,10689 2955,10693 2941,10693 2927,10693 2909,10690 2888,10684 2879,10681 2871,10680 2866,10680 2855,10680 2846,10683 2838,10690 2831,10697 2827,10705 2827,10715 2827,10719 2828,10723 2830,10728 L 2817,10732 C 2815,10722 2814,10714 2814,10708 2814,10688 2822,10670 2837,10655 2853,10640 2872,10633 2893,10633 2903,10633 2919,10637 2939,10644 2960,10651 2977,10655 2988,10655 3009,10655 3029,10648 3049,10633 L 3057,10645 C 3036,10660 3022,10675 3014,10690 3005,10705 3001,10724 3001,10745 3001,10761 3002,10780 3004,10800 3008,10840 3010,10866 3010,10880 3010,10910 3005,10938 2996,10962 2986,10986 2969,11014 2944,11046 2982,11018 3010,10990 3026,10961 3043,10932 3051,10900 3051,10864 3051,10843 3050,10821 3048,10796 3045,10772 3044,10751 3044,10734 3044,10719 3047,10705 3054,10690 3061,10676 3071,10664 3082,10656 3094,10648 3106,10642 3120,10638 3131,10635 3147,10634 3169,10633 Z"/>
    </g>
   </g>
   <g class="com.sun.star.drawing.ClosedBezierShape">
    <g id="id21">
     <rect class="BoundingBox" stroke="none" fill="none" x="3287" y="10666" width="130" height="438"/>
     <path fill="rgb(255,191,0)" stroke="none" d="M 3367,10666 L 3406,10666 3363,10733 3350,10733 3367,10666 Z M 3342,10772 L 3398,10817 3373,10841 3373,11010 C 3373,11028 3374,11040 3377,11045 3380,11050 3383,11053 3386,11053 3389,11053 3391,11052 3393,11051 3395,11050 3400,11045 3409,11038 L 3416,11048 3350,11103 C 3333,11091 3322,11080 3317,11070 3312,11059 3310,11041 3310,11015 L 3310,10841 3287,10817 3342,10772 Z"/>
    </g>
   </g>
   <g class="com.sun.star.drawing.ClosedBezierShape">
    <g id="id22">
     <rect class="BoundingBox" stroke="none" fill="none" x="3452" y="10658" width="241" height="447"/>
     <path fill="rgb(255,191,0)" stroke="none" d="M 3584,10658 L 3586,10665 C 3571,10675 3560,10684 3555,10693 3550,10702 3548,10717 3548,10738 L 3548,10848 3647,10772 C 3664,10785 3676,10797 3683,10809 3689,10821 3692,10838 3692,10859 L 3692,11046 C 3667,11056 3646,11066 3630,11076 3617,11083 3605,11092 3594,11103 3576,11089 3558,11078 3541,11070 3523,11062 3497,11054 3463,11046 L 3463,11040 C 3472,11034 3477,11027 3480,11018 3483,11006 3485,10978 3485,10934 L 3485,10755 C 3485,10732 3483,10715 3478,10704 3474,10694 3465,10684 3452,10675 L 3458,10667 C 3473,10674 3484,10679 3489,10682 3495,10686 3500,10690 3506,10696 3527,10681 3542,10671 3551,10667 3559,10663 3571,10660 3584,10658 Z M 3548,11018 L 3629,11050 3629,10875 C 3629,10858 3628,10847 3625,10841 3622,10835 3614,10828 3603,10820 L 3548,10863 3548,11018 Z"/>
    </g>
   </g>
   <g class="com.sun.star.drawing.ClosedBezierShape">
    <g id="id23">
     <rect class="BoundingBox" stroke="none" fill="none" x="3741" y="10772" width="223" height="332"/>
     <path fill="rgb(255,191,0)" stroke="none" d="M 3917,10772 L 3963,10829 3917,10870 3877,10822 3847,10849 3847,11030 3882,11055 3914,11030 3922,11039 3843,11103 C 3826,11088 3811,11078 3800,11071 3788,11065 3776,11060 3762,11056 L 3762,11050 C 3771,11044 3777,11037 3780,11030 3783,11024 3784,11011 3784,10992 L 3784,10864 C 3784,10848 3782,10837 3779,10832 3775,10827 3771,10824 3767,10824 3763,10824 3756,10828 3749,10837 L 3741,10827 3805,10772 C 3822,10785 3834,10797 3841,10807 3845,10813 3847,10822 3847,10833 L 3917,10772 Z"/>
    </g>
   </g>
   <g class="com.sun.star.drawing.ClosedBezierShape">
    <g id="id24">
     <rect class="BoundingBox" stroke="none" fill="none" x="3990" y="10772" width="255" height="332"/>
     <path fill="rgb(255,191,0)" stroke="none" d="M 4216,10785 L 4227,10789 C 4216,10806 4209,10820 4206,10829 4203,10838 4201,10851 4201,10867 L 4201,10999 C 4201,11021 4203,11035 4206,11041 4209,11046 4212,11049 4217,11049 4219,11049 4221,11048 4223,11047 4225,11046 4229,11042 4237,11036 L 4244,11046 4179,11103 C 4163,11091 4152,11080 4147,11070 4142,11060 4139,11046 4138,11029 L 4045,11103 C 4009,11074 3991,11045 3991,11017 3991,10998 3995,10981 4002,10964 4013,10942 4030,10917 4055,10888 L 4018,10808 4022,10799 C 4030,10800 4036,10800 4040,10800 4064,10800 4086,10791 4104,10772 4119,10781 4136,10788 4154,10793 4172,10798 4185,10801 4195,10801 4199,10801 4202,10800 4205,10799 4207,10797 4211,10793 4216,10785 Z M 4138,10844 L 4032,10812 4070,10892 4138,10924 4138,10844 Z M 4138,10937 L 4063,10902 C 4052,10927 4046,10949 4046,10968 4046,11002 4061,11029 4091,11051 L 4138,11014 4138,10937 Z"/>
    </g>
   </g>
   <g class="com.sun.star.drawing.ClosedBezierShape">
    <g id="id25">
     <rect class="BoundingBox" stroke="none" fill="none" x="4274" y="10772" width="223" height="332"/>
     <path fill="rgb(255,191,0)" stroke="none" d="M 4450,10772 L 4496,10829 4450,10870 4410,10822 4380,10849 4380,11030 4415,11055 4447,11030 4455,11039 4376,11103 C 4359,11088 4344,11078 4333,11071 4321,11065 4309,11060 4295,11056 L 4295,11050 C 4304,11044 4310,11037 4313,11030 4316,11024 4317,11011 4317,10992 L 4317,10864 C 4317,10848 4315,10837 4312,10832 4308,10827 4304,10824 4300,10824 4296,10824 4289,10828 4282,10837 L 4274,10827 4338,10772 C 4355,10785 4367,10797 4374,10807 4378,10813 4380,10822 4380,10833 L 4450,10772 Z"/>
    </g>
   </g>
   <g class="com.sun.star.drawing.ClosedBezierShape">
    <g id="id26">
     <rect class="BoundingBox" stroke="none" fill="none" x="4532" y="10666" width="130" height="438"/>
     <path fill="rgb(255,191,0)" stroke="none" d="M 4612,10666 L 4651,10666 4608,10733 4595,10733 4612,10666 Z M 4587,10772 L 4643,10817 4618,10841 4618,11010 C 4618,11028 4619,11040 4622,11045 4625,11050 4628,11053 4631,11053 4634,11053 4636,11052 4638,11051 4640,11050 4645,11045 4654,11038 L 4661,11048 4595,11103 C 4578,11091 4567,11080 4562,11070 4557,11059 4555,11041 4555,11015 L 4555,10841 4532,10817 4587,10772 Z"/>
    </g>
   </g>
   <g class="com.sun.star.drawing.ClosedBezierShape">
    <g id="id27">
     <rect class="BoundingBox" stroke="none" fill="none" x="4707" y="10772" width="221" height="332"/>
     <path fill="rgb(255,191,0)" stroke="none" d="M 4840,10772 L 4927,10874 4789,10972 4789,11030 4861,11057 4909,11023 4916,11033 4816,11103 C 4795,11092 4778,11084 4764,11079 4751,11074 4732,11070 4707,11065 L 4707,11057 C 4715,11053 4720,11048 4722,11042 4725,11036 4726,11022 4726,11002 L 4726,10825 C 4745,10818 4762,10811 4774,10805 4784,10801 4806,10790 4840,10772 Z M 4793,10808 L 4789,10810 4789,10951 4870,10893 4793,10808 Z"/>
    </g>
   </g>
   <g class="com.sun.star.drawing.ClosedBezierShape">
    <g id="id28">
     <rect class="BoundingBox" stroke="none" fill="none" x="4944" y="10722" width="261" height="382"/>
     <path fill="rgb(255,191,0)" stroke="none" d="M 5118,10887 L 5189,10925 5189,11056 C 5172,11058 5156,11062 5142,11069 5127,11075 5111,11087 5094,11103 5078,11094 5065,11088 5054,11084 5042,11081 5031,11079 5018,11079 4999,11079 4981,11085 4966,11097 4961,11101 4957,11103 4954,11103 4952,11103 4950,11102 4947,11100 4945,11097 4944,11095 4944,11093 4944,11090 4946,11087 4951,11083 4953,11080 4958,11075 4964,11068 L 4991,11034 5031,10980 4964,10944 4964,10828 C 4985,10821 5002,10814 5014,10806 5027,10798 5038,10786 5050,10772 5076,10783 5097,10790 5113,10795 5125,10798 5136,10799 5146,10799 5158,10799 5167,10796 5173,10791 5180,10786 5183,10781 5183,10775 5183,10772 5181,10768 5177,10764 5168,10757 5164,10750 5164,10743 5164,10737 5166,10732 5169,10728 5173,10724 5177,10722 5181,10722 5187,10722 5192,10725 5197,10730 5202,10735 5204,10742 5204,10751 5204,10760 5202,10769 5198,10777 5195,10786 5188,10797 5177,10810 L 5118,10887 Z M 5027,10908 L 5068,10930 5137,10839 C 5123,10843 5111,10845 5101,10845 5076,10845 5051,10837 5027,10820 L 5027,10908 Z M 5080,10936 L 5005,11037 C 5014,11034 5023,11032 5031,11030 5039,11029 5046,11028 5052,11028 5076,11028 5100,11036 5126,11052 L 5126,10962 5080,10936 Z"/>
    </g>
   </g>
  </g>
 </g>
</svg>