<?xml version="1.0" encoding="UTF-8"?>
<!DOCTYPE svg PUBLIC "-//W3C//DTD SVG 1.1//EN" "http://www.w3.org/Graphics/SVG/1.1/DTD/svg11.dtd">
<svg version="1.2" width="53.97mm" height="15mm" viewBox="1100 12957 5397 1500" preserveAspectRatio="xMidYMid" fill-rule="evenodd" stroke-width="28.222" stroke-linejoin="round" xmlns="http://www.w3.org/2000/svg" xmlns:ooo="http://xml.openoffice.org/svg/export" xmlns:xlink="http://www.w3.org/1999/xlink" xmlns:presentation="http://sun.com/xmlns/staroffice/presentation" xmlns:smil="http://www.w3.org/2001/SMIL20/" xmlns:anim="urn:oasis:names:tc:opendocument:xmlns:animation:1.0" xml:space="preserve">
 <defs class="EmbeddedBulletChars">
  <g id="bullet-char-template-57356" transform="scale(0.00048828125,-0.00048828125)">
   <path d="M 580,1141 L 1163,571 580,0 -4,571 580,1141 Z"/>
  </g>
  <g id="bullet-char-template-57354" transform="scale(0.00048828125,-0.00048828125)">
   <path d="M 8,1128 L 1137,1128 1137,0 8,0 8,1128 Z"/>
  </g>
  <g id="bullet-char-template-10146" transform="scale(0.00048828125,-0.00048828125)">
   <path d="M 174,0 L 602,739 174,1481 1456,739 174,0 Z M 1358,739 L 309,1346 659,739 1358,739 Z"/>
  </g>
  <g id="bullet-char-template-10132" transform="scale(0.00048828125,-0.00048828125)">
   <path d="M 2015,739 L 1276,0 717,0 1260,543 174,543 174,936 1260,936 717,1481 1274,1481 2015,739 Z"/>
  </g>
  <g id="bullet-char-template-10007" transform="scale(0.00048828125,-0.00048828125)">
   <path d="M 0,-2 C -7,14 -16,27 -25,37 L 356,567 C 262,823 215,952 215,954 215,979 228,992 255,992 264,992 276,990 289,987 310,991 331,999 354,1012 L 381,999 492,748 772,1049 836,1024 860,1049 C 881,1039 901,1025 922,1006 886,937 835,863 770,784 769,783 710,716 594,584 L 774,223 C 774,196 753,168 711,139 L 727,119 C 717,90 699,76 672,76 641,76 570,178 457,381 L 164,-76 C 142,-110 111,-127 72,-127 30,-127 9,-110 8,-76 1,-67 -2,-52 -2,-32 -2,-23 -1,-13 0,-2 Z"/>
  </g>
  <g id="bullet-char-template-10004" transform="scale(0.00048828125,-0.00048828125)">
   <path d="M 285,-33 C 182,-33 111,30 74,156 52,228 41,333 41,471 41,549 55,616 82,672 116,743 169,778 240,778 293,778 328,747 346,684 L 369,508 C 377,444 397,411 428,410 L 1163,1116 C 1174,1127 1196,1133 1229,1133 1271,1133 1292,1118 1292,1087 L 1292,965 C 1292,929 1282,901 1262,881 L 442,47 C 390,-6 338,-33 285,-33 Z"/>
  </g>
  <g id="bullet-char-template-9679" transform="scale(0.00048828125,-0.00048828125)">
   <path d="M 813,0 C 632,0 489,54 383,161 276,268 223,411 223,592 223,773 276,916 383,1023 489,1130 632,1184 813,1184 992,1184 1136,1130 1245,1023 1353,916 1407,772 1407,592 1407,412 1353,268 1245,161 1136,54 992,0 813,0 Z"/>
  </g>
  <g id="bullet-char-template-8226" transform="scale(0.00048828125,-0.00048828125)">
   <path d="M 346,457 C 273,457 209,483 155,535 101,586 74,649 74,723 74,796 101,859 155,911 209,963 273,989 346,989 419,989 480,963 531,910 582,859 608,796 608,723 608,648 583,586 532,535 482,483 420,457 346,457 Z"/>
  </g>
  <g id="bullet-char-template-8211" transform="scale(0.00048828125,-0.00048828125)">
   <path d="M -4,459 L 1135,459 1135,606 -4,606 -4,459 Z"/>
  </g>
  <g id="bullet-char-template-61548" transform="scale(0.00048828125,-0.00048828125)">
   <path d="M 173,740 C 173,903 231,1043 346,1159 462,1274 601,1332 765,1332 928,1332 1067,1274 1183,1159 1299,1043 1357,903 1357,740 1357,577 1299,437 1183,322 1067,206 928,148 765,148 601,148 462,206 346,322 231,437 173,577 173,740 Z"/>
  </g>
 </defs>
 <g class="Page">
  <g class="Group">
   <g class="com.sun.star.drawing.ClosedBezierShape">
    <g id="id3">
     <rect class="BoundingBox" stroke="none" fill="none" x="2881" y="13272" width="331" height="299"/>
     <path fill="rgb(255,255,255)" stroke="none" d="M 2881,13286 L 2881,13274 C 2904,13274 2921,13274 2932,13273 2936,13272 2939,13272 2941,13272 2942,13272 2944,13272 2947,13273 2953,13278 2959,13284 2964,13291 2965,13292 2967,13294 2968,13295 L 3015,13347 3022,13355 C 3032,13366 3040,13376 3048,13384 3056,13392 3071,13408 3094,13433 L 3147,13492 C 3152,13498 3159,13505 3167,13514 L 3167,13510 C 3166,13490 3166,13479 3166,13477 L 3167,13464 3166,13443 3166,13433 C 3166,13427 3166,13409 3165,13377 3165,13373 3164,13365 3163,13353 3163,13341 3162,13330 3162,13321 3162,13305 3161,13295 3159,13292 3158,13290 3151,13288 3140,13286 3137,13286 3133,13286 3127,13285 3120,13285 3116,13284 3115,13284 3114,13283 3112,13282 3111,13280 3112,13278 3112,13276 3113,13274 3117,13273 3121,13272 3125,13272 3129,13272 3135,13272 3141,13273 3147,13274 3153,13274 3158,13274 3165,13274 3176,13274 3190,13273 3198,13272 3204,13272 3207,13272 L 3211,13272 3211,13279 C 3208,13280 3205,13281 3201,13281 3197,13281 3193,13282 3190,13283 3185,13284 3181,13286 3180,13287 3177,13291 3175,13295 3175,13299 L 3177,13370 3178,13402 3178,13412 3179,13457 C 3180,13488 3181,13514 3181,13537 3181,13542 3180,13553 3180,13569 L 3169,13570 C 3164,13564 3146,13545 3115,13513 3108,13506 3103,13501 3100,13498 L 3081,13476 C 3074,13467 3069,13462 3067,13460 3064,13458 3063,13456 3062,13455 3045,13436 3024,13413 2998,13385 2991,13378 2981,13366 2967,13350 2959,13340 2953,13334 2951,13332 2949,13330 2946,13327 2942,13324 L 2941,13332 C 2941,13361 2942,13401 2943,13452 L 2945,13526 C 2945,13532 2945,13538 2946,13544 L 2954,13546 C 2968,13547 2982,13549 2996,13552 2997,13553 2997,13554 2998,13554 L 2998,13563 C 2996,13564 2994,13564 2992,13564 2991,13564 2989,13564 2986,13564 2972,13563 2954,13562 2933,13562 2918,13562 2905,13563 2894,13564 L 2891,13564 C 2890,13564 2888,13564 2885,13564 L 2885,13558 2891,13555 2901,13553 C 2910,13552 2917,13551 2922,13549 2924,13548 2927,13546 2928,13544 2930,13534 2931,13519 2931,13499 2931,13490 2931,13473 2930,13448 L 2930,13417 2930,13354 C 2929,13325 2929,13309 2927,13304 2926,13301 2924,13298 2921,13296 2916,13292 2908,13290 2899,13289 2890,13288 2884,13287 2881,13286 Z"/>
    </g>
   </g>
   <g class="com.sun.star.drawing.ClosedBezierShape">
    <g id="id4">
     <rect class="BoundingBox" stroke="none" fill="none" x="3243" y="13375" width="163" height="191"/>
     <path fill="rgb(255,255,255)" stroke="none" d="M 3402,13443 L 3313,13443 3296,13443 C 3289,13443 3282,13443 3275,13443 3274,13447 3273,13451 3273,13452 L 3273,13454 3273,13457 3273,13468 C 3273,13477 3276,13488 3282,13501 3287,13514 3296,13524 3306,13531 3317,13538 3330,13542 3346,13542 3355,13542 3361,13541 3366,13539 3371,13537 3379,13534 3388,13528 L 3404,13515 3405,13524 C 3405,13525 3405,13526 3405,13527 3398,13535 3390,13543 3380,13549 3369,13555 3359,13560 3348,13563 3343,13564 3335,13565 3323,13565 3313,13565 3302,13563 3292,13559 3277,13552 3265,13541 3256,13527 3247,13512 3243,13495 3243,13474 3243,13467 3244,13459 3247,13448 3249,13438 3254,13427 3260,13416 3264,13408 3269,13401 3276,13396 3285,13389 3292,13384 3299,13381 3309,13377 3320,13375 3333,13375 3347,13375 3358,13378 3367,13383 3378,13390 3387,13399 3393,13410 3399,13421 3402,13431 3402,13440 L 3402,13443 Z M 3278,13434 L 3288,13434 C 3296,13434 3319,13433 3356,13430 3362,13430 3366,13429 3367,13428 3370,13425 3371,13423 3371,13421 3371,13416 3370,13411 3367,13405 3364,13399 3359,13394 3353,13391 3347,13388 3340,13386 3331,13386 3314,13386 3300,13393 3290,13406 3282,13416 3278,13425 3278,13434 Z"/>
    </g>
   </g>
   <g class="com.sun.star.drawing.ClosedBezierShape">
    <g id="id5">
     <rect class="BoundingBox" stroke="none" fill="none" x="3430" y="13338" width="123" height="227"/>
     <path fill="rgb(255,255,255)" stroke="none" d="M 3480,13338 L 3488,13338 3488,13359 3488,13387 C 3491,13387 3493,13387 3493,13387 3497,13387 3505,13387 3516,13386 3523,13386 3530,13385 3536,13385 3539,13385 3544,13385 3550,13386 3550,13389 3550,13391 3550,13393 3550,13395 3550,13398 3549,13402 L 3545,13402 3510,13403 3492,13403 3488,13404 C 3487,13408 3486,13412 3486,13417 L 3487,13451 3487,13510 C 3487,13526 3489,13536 3493,13541 3497,13546 3502,13549 3510,13549 3514,13549 3522,13548 3532,13545 3536,13545 3540,13542 3546,13538 L 3548,13538 C 3549,13538 3550,13538 3551,13539 3552,13540 3552,13541 3552,13542 L 3552,13544 C 3546,13551 3538,13556 3530,13559 3522,13562 3511,13564 3497,13564 3487,13564 3479,13562 3473,13557 3467,13553 3463,13547 3461,13541 3459,13535 3458,13522 3458,13501 L 3459,13450 3459,13426 3459,13417 C 3459,13413 3459,13409 3458,13404 L 3455,13404 3437,13405 3435,13405 C 3433,13405 3432,13405 3431,13404 3430,13403 3430,13402 3430,13401 3430,13400 3431,13398 3432,13397 3433,13396 3436,13394 3442,13392 3445,13390 3450,13387 3455,13383 3460,13378 3464,13373 3467,13368 3469,13365 3472,13359 3475,13351 3477,13345 3479,13341 3480,13338 Z"/>
    </g>
   </g>
   <g class="com.sun.star.drawing.ClosedBezierShape">
    <g id="id6">
     <rect class="BoundingBox" stroke="none" fill="none" x="3543" y="13383" width="316" height="189"/>
     <path fill="rgb(255,255,255)" stroke="none" d="M 3543,13383 L 3628,13383 C 3629,13383 3631,13384 3631,13384 3632,13385 3632,13386 3632,13387 3632,13389 3631,13391 3629,13392 3618,13393 3612,13394 3609,13396 3607,13398 3606,13401 3606,13404 3606,13406 3606,13407 3606,13409 3607,13411 3609,13416 3613,13425 3618,13437 3627,13456 3640,13482 L 3668,13537 C 3683,13510 3695,13485 3705,13461 L 3691,13426 C 3689,13423 3687,13418 3685,13412 3683,13405 3681,13402 3680,13401 3679,13399 3674,13398 3666,13396 3658,13393 3654,13392 3652,13390 L 3652,13389 C 3652,13388 3652,13386 3653,13384 3657,13383 3660,13383 3662,13383 L 3674,13383 3702,13383 3711,13383 3738,13383 C 3740,13383 3742,13383 3743,13383 L 3747,13383 C 3748,13383 3749,13383 3751,13383 L 3751,13390 C 3748,13391 3745,13392 3739,13392 3730,13393 3722,13395 3717,13398 3715,13400 3715,13402 3715,13403 3715,13407 3715,13411 3717,13416 3718,13418 3719,13422 3722,13430 L 3746,13494 C 3753,13513 3759,13526 3763,13533 3769,13522 3778,13501 3790,13471 3794,13461 3799,13448 3806,13433 3811,13424 3813,13416 3813,13410 3813,13406 3812,13403 3809,13401 3806,13398 3800,13396 3791,13394 3785,13393 3781,13392 3778,13391 3777,13390 3777,13389 3777,13388 3777,13387 3778,13385 3779,13383 L 3783,13383 3801,13383 C 3802,13383 3805,13383 3811,13384 3817,13384 3823,13384 3829,13384 3833,13384 3839,13384 3844,13383 L 3856,13383 C 3856,13384 3857,13384 3857,13385 3858,13385 3858,13386 3858,13387 3858,13388 3858,13390 3857,13392 3850,13393 3844,13395 3840,13397 3836,13400 3830,13407 3823,13418 L 3783,13514 C 3779,13523 3773,13537 3763,13556 3761,13560 3760,13563 3759,13565 3758,13568 3757,13569 3756,13570 3755,13571 3754,13571 3753,13571 3752,13571 3750,13571 3749,13570 3744,13562 3735,13539 3721,13501 3717,13491 3713,13483 3710,13476 3686,13527 3670,13558 3663,13569 3660,13570 3658,13570 3657,13570 3656,13570 3654,13570 3652,13569 L 3610,13481 3571,13406 C 3568,13401 3566,13398 3565,13397 3562,13396 3558,13395 3551,13394 3548,13393 3545,13393 3543,13392 3543,13390 3543,13388 3543,13387 3543,13386 3543,13385 3543,13383 Z"/>
    </g>
   </g>
   <g class="com.sun.star.drawing.ClosedBezierShape">
    <g id="id7">
     <rect class="BoundingBox" stroke="none" fill="none" x="3860" y="13375" width="201" height="191"/>
     <path fill="rgb(255,255,255)" stroke="none" d="M 3860,13469 C 3860,13459 3862,13448 3866,13436 3871,13425 3877,13414 3886,13405 3894,13396 3903,13389 3913,13384 3927,13378 3943,13375 3962,13375 3990,13375 4013,13385 4032,13404 4051,13423 4060,13446 4060,13473 4060,13497 4050,13518 4031,13537 4011,13556 3987,13565 3957,13565 3938,13565 3921,13560 3905,13550 3892,13543 3882,13532 3873,13518 3864,13504 3860,13487 3860,13469 Z M 3959,13556 C 3970,13556 3981,13553 3991,13547 4002,13541 4010,13531 4017,13517 4023,13504 4026,13488 4026,13471 4026,13459 4024,13445 4019,13430 4014,13415 4006,13403 3996,13396 3986,13388 3974,13384 3961,13384 3951,13384 3941,13386 3931,13391 3920,13396 3912,13404 3905,13418 3898,13431 3894,13449 3894,13473 3894,13501 3900,13521 3912,13535 3925,13549 3940,13556 3959,13556 Z"/>
    </g>
   </g>
   <g class="com.sun.star.drawing.ClosedBezierShape">
    <g id="id8">
     <rect class="BoundingBox" stroke="none" fill="none" x="4086" y="13366" width="144" height="196"/>
     <path fill="rgb(255,255,255)" stroke="none" d="M 4087,13561 L 4086,13558 C 4086,13556 4087,13554 4088,13552 L 4101,13549 4120,13546 C 4121,13545 4122,13544 4123,13543 4124,13541 4124,13535 4124,13526 4124,13475 4124,13446 4123,13438 4123,13430 4121,13425 4119,13423 4117,13421 4112,13419 4103,13418 4098,13417 4094,13416 4091,13415 L 4092,13409 C 4107,13402 4117,13397 4123,13392 4130,13385 4136,13377 4141,13366 L 4150,13366 C 4151,13374 4151,13390 4151,13416 L 4151,13420 C 4151,13421 4151,13422 4151,13424 4157,13414 4164,13404 4172,13395 L 4178,13390 C 4180,13388 4182,13386 4184,13384 4194,13378 4202,13375 4207,13375 4213,13375 4219,13377 4223,13382 4227,13386 4229,13392 4229,13398 4229,13403 4227,13407 4224,13410 4220,13414 4216,13416 4210,13416 4208,13416 4203,13415 4196,13412 4189,13409 4184,13408 4182,13408 4178,13408 4175,13409 4173,13410 4169,13413 4164,13420 4158,13430 4153,13438 4151,13445 4151,13451 L 4152,13488 4152,13532 C 4153,13537 4153,13541 4154,13542 4155,13543 4156,13544 4159,13546 4175,13547 4184,13548 4187,13549 4189,13549 4191,13549 4192,13549 4198,13549 4202,13550 4205,13552 4206,13553 4207,13554 4207,13555 4207,13556 4206,13557 4205,13559 L 4181,13559 4172,13559 4158,13559 4136,13559 4124,13560 4087,13561 Z"/>
    </g>
   </g>
   <g class="com.sun.star.drawing.ClosedBezierShape">
    <g id="id9">
     <rect class="BoundingBox" stroke="none" fill="none" x="4240" y="13259" width="212" height="302"/>
     <path fill="rgb(255,255,255)" stroke="none" d="M 4240,13559 L 4240,13552 C 4241,13551 4242,13551 4244,13550 4245,13550 4249,13550 4256,13549 4262,13549 4267,13547 4268,13545 4270,13542 4271,13532 4271,13514 L 4271,13426 4271,13411 C 4271,13409 4271,13404 4271,13396 4272,13392 4272,13387 4272,13381 L 4271,13342 4271,13308 C 4271,13300 4270,13295 4268,13292 4265,13290 4257,13288 4242,13286 L 4242,13284 C 4242,13283 4242,13282 4242,13280 4251,13278 4259,13276 4266,13273 4269,13272 4278,13267 4293,13259 L 4300,13259 C 4300,13262 4300,13264 4300,13265 L 4300,13285 4300,13294 4301,13312 4300,13338 4301,13382 4300,13437 4300,13454 C 4300,13456 4300,13459 4300,13463 L 4303,13463 C 4308,13463 4313,13461 4318,13457 4342,13441 4356,13430 4362,13424 4368,13418 4371,13413 4371,13411 4371,13409 4370,13407 4368,13405 4364,13403 4359,13401 4354,13401 4352,13400 4350,13400 4348,13399 4345,13399 4343,13398 4341,13398 L 4341,13396 C 4341,13395 4341,13393 4342,13391 4366,13390 4386,13389 4404,13389 4413,13389 4424,13389 4435,13390 L 4435,13392 C 4435,13393 4435,13395 4434,13396 4432,13397 4428,13397 4423,13398 4414,13400 4407,13402 4402,13404 4391,13411 4379,13419 4366,13430 4359,13436 4352,13442 4346,13446 L 4338,13453 C 4339,13454 4340,13455 4341,13456 4342,13457 4343,13458 4345,13460 4346,13463 4350,13466 4354,13471 4371,13488 4383,13501 4391,13511 4393,13514 4396,13517 4400,13521 4411,13534 4418,13541 4420,13543 4424,13546 4431,13548 4439,13550 4443,13551 4446,13552 4449,13552 4450,13554 4450,13556 4450,13557 L 4450,13559 C 4439,13558 4431,13557 4427,13557 L 4423,13557 4360,13559 C 4358,13559 4356,13559 4355,13559 4354,13559 4352,13559 4351,13558 4350,13557 4350,13556 4350,13555 L 4350,13553 C 4351,13551 4352,13550 4352,13550 4367,13549 4376,13548 4378,13547 4379,13547 4381,13546 4382,13545 4382,13542 4380,13538 4375,13533 4371,13527 4360,13515 4343,13496 4332,13484 4325,13477 4322,13475 4319,13473 4314,13472 4309,13472 L 4300,13472 C 4299,13477 4299,13490 4299,13509 4299,13527 4301,13538 4304,13544 4305,13546 4309,13548 4316,13549 4322,13550 4326,13551 4328,13552 4329,13553 4330,13556 4330,13559 4321,13559 4313,13559 4307,13559 4296,13559 4285,13559 4273,13559 4266,13559 4260,13559 4256,13559 4253,13559 4248,13559 4240,13559 Z"/>
    </g>
   </g>
   <g class="com.sun.star.drawing.ClosedBezierShape">
    <g id="id10">
     <rect class="BoundingBox" stroke="none" fill="none" x="4577" y="13375" width="201" height="191"/>
     <path fill="rgb(255,255,255)" stroke="none" d="M 4577,13469 C 4577,13459 4579,13448 4583,13436 4588,13425 4594,13414 4603,13405 4611,13396 4620,13389 4630,13384 4644,13378 4660,13375 4679,13375 4707,13375 4730,13385 4749,13404 4768,13423 4777,13446 4777,13473 4777,13497 4767,13518 4748,13537 4728,13556 4704,13565 4674,13565 4655,13565 4638,13560 4622,13550 4609,13543 4599,13532 4590,13518 4581,13504 4577,13487 4577,13469 Z M 4676,13556 C 4687,13556 4698,13553 4708,13547 4719,13541 4727,13531 4734,13517 4740,13504 4743,13488 4743,13471 4743,13459 4741,13445 4736,13430 4731,13415 4723,13403 4713,13396 4703,13388 4691,13384 4678,13384 4668,13384 4658,13386 4648,13391 4637,13396 4629,13404 4622,13418 4615,13431 4611,13449 4611,13473 4611,13501 4617,13521 4629,13535 4642,13549 4657,13556 4676,13556 Z"/>
    </g>
   </g>
   <g class="com.sun.star.drawing.ClosedBezierShape">
    <g id="id11">
     <rect class="BoundingBox" stroke="none" fill="none" x="4815" y="13259" width="164" height="303"/>
     <path fill="rgb(255,255,255)" stroke="none" d="M 4875,13386 C 4912,13387 4931,13387 4934,13387 4934,13390 4934,13393 4934,13395 4934,13397 4934,13400 4934,13404 4930,13404 4926,13405 4922,13405 L 4914,13405 C 4896,13405 4883,13405 4876,13406 4875,13410 4875,13412 4875,13414 4875,13415 4875,13416 4876,13417 4876,13441 4877,13455 4877,13460 L 4876,13517 C 4876,13525 4878,13532 4880,13538 4882,13541 4885,13544 4889,13546 4892,13547 4899,13548 4909,13550 4917,13551 4922,13552 4925,13552 4925,13555 4925,13558 4925,13561 L 4922,13561 C 4914,13560 4905,13560 4894,13560 L 4878,13559 4822,13561 4815,13561 4815,13553 C 4817,13553 4819,13552 4820,13552 4833,13550 4841,13547 4845,13544 4846,13543 4847,13541 4848,13537 4848,13536 4848,13527 4848,13512 4848,13470 4848,13435 4847,13410 4843,13409 4837,13408 4830,13408 4827,13408 4822,13408 4816,13408 L 4815,13405 C 4815,13403 4816,13402 4817,13401 4818,13400 4824,13397 4836,13391 4840,13389 4843,13386 4845,13383 4846,13381 4847,13378 4847,13373 4847,13370 4848,13366 4848,13360 4850,13345 4852,13335 4853,13332 4856,13322 4860,13311 4866,13301 4873,13291 4880,13283 4889,13275 4896,13270 4904,13266 4912,13263 4920,13260 4930,13259 4940,13259 4954,13259 4965,13261 4972,13266 4976,13269 4978,13273 4978,13278 4978,13282 4977,13286 4974,13289 4970,13292 4966,13293 4962,13293 4956,13293 4950,13292 4943,13289 4931,13284 4924,13282 4922,13281 4919,13280 4916,13280 4913,13280 4905,13280 4898,13283 4891,13288 4884,13293 4880,13300 4878,13307 4876,13315 4875,13332 4875,13359 4875,13369 4875,13378 4875,13386 Z"/>
    </g>
   </g>
   <g class="com.sun.star.drawing.ClosedBezierShape">
    <g id="id12">
     <rect class="BoundingBox" stroke="none" fill="none" x="2565" y="13827" width="252" height="463"/>
     <path fill="rgb(255,255,255)" stroke="none" d="M 2659,14020 C 2716,14021 2747,14022 2750,14022 2751,14027 2751,14031 2751,14033 2751,14036 2751,14041 2750,14047 2744,14048 2738,14048 2732,14048 L 2719,14048 C 2690,14048 2670,14049 2659,14051 2659,14056 2659,14060 2659,14063 2659,14064 2659,14066 2659,14068 2660,14104 2661,14126 2661,14133 L 2660,14222 C 2660,14235 2662,14245 2667,14254 2669,14259 2674,14263 2681,14266 2685,14268 2696,14270 2712,14272 2725,14274 2734,14275 2738,14276 2738,14281 2738,14285 2737,14288 L 2732,14289 C 2721,14288 2707,14287 2689,14287 L 2664,14286 2577,14289 2566,14289 2566,14277 C 2569,14276 2572,14276 2573,14275 2593,14271 2606,14267 2611,14263 2614,14261 2615,14257 2616,14253 2617,14250 2617,14237 2617,14214 2617,14149 2616,14097 2615,14058 2609,14056 2600,14055 2588,14055 2583,14055 2576,14054 2566,14053 L 2565,14050 C 2565,14047 2566,14044 2568,14043 2569,14042 2579,14037 2598,14028 2605,14025 2610,14021 2613,14016 2615,14013 2615,14008 2616,14000 2616,13997 2617,13990 2618,13981 2620,13958 2623,13943 2624,13938 2628,13922 2635,13907 2645,13892 2655,13877 2666,13863 2680,13852 2690,13843 2702,13837 2714,13833 2727,13829 2742,13827 2758,13827 2780,13827 2796,13831 2806,13838 2813,13843 2816,13849 2816,13856 2816,13863 2814,13868 2809,13873 2804,13878 2798,13880 2791,13880 2782,13880 2773,13878 2763,13873 2744,13866 2733,13861 2730,13861 2726,13860 2722,13859 2717,13859 2704,13859 2693,13863 2683,13871 2672,13879 2666,13889 2663,13901 2660,13912 2659,13939 2659,13980 2659,13994 2659,14008 2659,14020 Z"/>
    </g>
   </g>
   <g class="com.sun.star.drawing.ClosedBezierShape">
    <g id="id13">
     <rect class="BoundingBox" stroke="none" fill="none" x="2761" y="13837" width="159" height="453"/>
     <path fill="rgb(255,255,255)" stroke="none" d="M 2810,13864 C 2810,13857 2813,13851 2819,13845 2824,13840 2831,13837 2839,13837 2848,13837 2855,13840 2862,13846 2868,13852 2871,13859 2871,13866 2871,13873 2868,13879 2862,13886 2855,13892 2848,13895 2839,13895 2831,13895 2824,13892 2818,13887 2813,13881 2810,13874 2810,13864 Z M 2781,14043 L 2781,14034 C 2796,14029 2805,14027 2806,14026 2814,14022 2823,14017 2832,14009 2841,14001 2849,13993 2855,13983 2858,13983 2860,13983 2862,13983 L 2866,13983 C 2867,13994 2867,14002 2867,14007 2867,14008 2867,14013 2867,14023 L 2867,14041 2867,14140 2866,14245 C 2866,14253 2867,14259 2870,14262 2873,14266 2882,14269 2896,14273 2906,14276 2912,14278 2917,14280 2918,14282 2918,14283 2918,14284 2918,14285 2917,14287 2916,14289 2907,14289 2896,14288 2882,14288 2863,14287 2850,14286 2844,14286 2841,14286 2822,14287 2788,14288 2781,14288 2775,14288 2768,14289 2767,14289 2765,14289 2763,14288 2762,14286 2761,14285 2761,14283 2761,14280 2763,14277 2768,14275 2768,14275 2780,14272 2803,14267 2810,14266 2815,14263 2817,14260 2821,14255 2823,14248 2823,14237 2823,14220 2824,14172 2824,14093 2824,14077 2823,14067 2822,14063 2820,14060 2817,14057 2813,14054 2808,14050 2797,14047 2781,14043 Z"/>
    </g>
   </g>
   <g class="com.sun.star.drawing.ClosedBezierShape">
    <g id="id14">
     <rect class="BoundingBox" stroke="none" fill="none" x="2948" y="14006" width="249" height="295"/>
     <path fill="rgb(255,255,255)" stroke="none" d="M 3196,14227 L 3196,14249 C 3178,14268 3161,14281 3143,14289 3126,14296 3105,14300 3082,14300 3056,14300 3033,14293 3012,14280 2992,14266 2976,14247 2965,14222 2954,14197 2948,14173 2948,14149 2948,14123 2955,14098 2968,14075 2982,14052 2999,14035 3021,14023 3043,14012 3071,14006 3105,14006 3137,14006 3161,14011 3178,14022 3187,14028 3192,14036 3192,14046 3192,14053 3190,14059 3185,14064 3180,14069 3174,14071 3166,14071 3155,14071 3142,14064 3128,14050 3120,14041 3112,14035 3105,14032 3098,14029 3091,14027 3082,14027 3062,14027 3045,14036 3031,14053 3012,14077 3003,14107 3003,14144 3003,14182 3013,14212 3032,14234 3051,14257 3074,14268 3099,14268 3117,14268 3133,14265 3147,14259 3161,14253 3177,14243 3196,14227 Z"/>
    </g>
   </g>
   <g class="com.sun.star.drawing.ClosedBezierShape">
    <g id="id15">
     <rect class="BoundingBox" stroke="none" fill="none" x="3237" y="13948" width="190" height="348"/>
     <path fill="rgb(255,255,255)" stroke="none" d="M 3316,13948 L 3326,13948 3328,13981 3327,14023 C 3331,14023 3334,14023 3335,14023 3341,14023 3353,14023 3370,14022 3381,14021 3391,14021 3401,14021 3406,14021 3413,14021 3422,14021 3423,14026 3423,14029 3423,14032 3423,14035 3422,14039 3421,14045 L 3415,14045 3361,14047 3334,14048 3328,14048 C 3326,14054 3325,14061 3325,14069 L 3326,14121 3325,14212 C 3325,14236 3328,14252 3335,14260 3341,14268 3350,14272 3362,14272 3368,14272 3379,14270 3396,14266 3401,14265 3408,14261 3416,14255 L 3419,14255 C 3421,14255 3423,14256 3424,14257 3426,14258 3426,14260 3426,14262 L 3426,14264 C 3416,14275 3405,14283 3392,14288 3379,14293 3363,14295 3341,14295 3327,14295 3314,14292 3304,14285 3295,14278 3289,14270 3286,14260 3283,14251 3282,14230 3282,14198 L 3283,14120 3283,14083 3283,14069 C 3283,14063 3282,14056 3282,14050 L 3276,14050 3247,14051 3245,14051 C 3242,14051 3240,14050 3239,14049 3238,14048 3237,14047 3237,14045 3237,14043 3238,14040 3240,14039 3241,14037 3247,14035 3255,14031 3261,14029 3268,14024 3276,14017 3284,14010 3291,14002 3296,13994 3299,13989 3303,13981 3308,13968 3311,13958 3314,13952 3316,13948 Z"/>
    </g>
   </g>
   <g class="com.sun.star.drawing.ClosedBezierShape">
    <g id="id16">
     <rect class="BoundingBox" stroke="none" fill="none" x="3425" y="13837" width="158" height="453"/>
     <path fill="rgb(255,255,255)" stroke="none" d="M 3474,13864 C 3474,13857 3477,13851 3483,13845 3488,13840 3495,13837 3503,13837 3512,13837 3519,13840 3526,13846 3532,13852 3535,13859 3535,13866 3535,13873 3532,13879 3526,13886 3519,13892 3512,13895 3503,13895 3495,13895 3488,13892 3482,13887 3477,13881 3474,13874 3474,13864 Z M 3445,14043 L 3445,14034 C 3460,14029 3469,14027 3470,14026 3478,14022 3487,14017 3496,14009 3505,14001 3513,13993 3519,13983 3522,13983 3524,13983 3526,13983 L 3530,13983 C 3531,13994 3531,14002 3531,14007 3531,14008 3531,14013 3531,14023 L 3531,14041 3531,14140 3530,14245 C 3530,14253 3531,14259 3534,14262 3537,14266 3546,14269 3560,14273 3570,14276 3576,14278 3581,14280 3582,14282 3582,14283 3582,14284 3582,14285 3581,14287 3580,14289 3571,14289 3560,14288 3546,14288 3527,14287 3514,14286 3508,14286 3505,14286 3486,14287 3452,14288 3445,14288 3439,14288 3432,14289 3431,14289 3429,14289 3427,14288 3426,14286 3425,14285 3425,14283 3425,14280 3427,14277 3432,14275 3432,14275 3444,14272 3467,14267 3474,14266 3479,14263 3481,14260 3485,14255 3487,14248 3487,14237 3487,14220 3488,14172 3488,14093 3488,14077 3487,14067 3486,14063 3484,14060 3481,14057 3477,14054 3472,14050 3461,14047 3445,14043 Z"/>
    </g>
   </g>
   <g class="com.sun.star.drawing.ClosedBezierShape">
    <g id="id17">
     <rect class="BoundingBox" stroke="none" fill="none" x="3574" y="14015" width="342" height="288"/>
     <path fill="rgb(255,255,255)" stroke="none" d="M 3574,14015 C 3600,14015 3622,14016 3641,14018 3655,14018 3664,14018 3671,14017 3675,14017 3678,14017 3679,14017 L 3717,14017 C 3723,14018 3727,14019 3730,14019 3732,14019 3733,14021 3734,14023 3734,14026 3733,14028 3732,14031 3728,14032 3724,14033 3720,14033 3703,14035 3688,14037 3677,14040 3675,14041 3674,14042 3674,14044 3674,14046 3675,14049 3678,14053 3678,14055 3679,14057 3681,14062 L 3715,14144 C 3730,14182 3744,14214 3758,14240 3767,14223 3775,14205 3783,14187 3790,14169 3801,14140 3816,14102 3820,14091 3824,14077 3828,14062 3829,14058 3829,14056 3829,14054 3829,14051 3828,14048 3824,14045 3821,14042 3816,14039 3809,14037 3807,14037 3797,14035 3777,14032 3776,14031 3774,14030 3773,14028 L 3773,14025 C 3773,14024 3773,14022 3773,14020 3779,14019 3783,14019 3785,14019 L 3826,14019 C 3829,14019 3835,14019 3846,14018 3882,14018 3904,14018 3911,14019 3913,14019 3914,14021 3915,14023 3915,14025 3914,14027 3913,14030 L 3902,14033 C 3899,14033 3897,14033 3896,14033 3876,14035 3863,14038 3859,14042 3855,14044 3850,14056 3842,14076 3839,14087 3834,14100 3827,14116 L 3809,14159 C 3807,14165 3804,14172 3801,14179 L 3747,14302 3737,14302 C 3735,14297 3732,14291 3729,14285 L 3703,14230 3643,14086 C 3630,14058 3623,14043 3620,14040 3618,14038 3603,14033 3576,14026 3575,14022 3574,14020 3574,14018 L 3574,14015 Z"/>
    </g>
   </g>
   <g class="com.sun.star.drawing.ClosedBezierShape">
    <g id="id18">
     <rect class="BoundingBox" stroke="none" fill="none" x="3924" y="14006" width="249" height="292"/>
     <path fill="rgb(255,255,255)" stroke="none" d="M 4168,14108 L 4032,14109 4005,14109 C 3995,14109 3984,14109 3973,14110 3971,14117 3970,14122 3970,14124 L 3970,14127 3970,14131 3970,14148 C 3970,14162 3974,14179 3983,14199 3992,14219 4004,14234 4021,14245 4037,14256 4057,14261 4082,14262 4095,14261 4105,14260 4113,14257 4121,14255 4132,14249 4146,14241 L 4170,14221 4172,14234 C 4172,14236 4172,14237 4172,14239 4162,14252 4149,14263 4133,14273 4117,14282 4101,14289 4085,14294 4077,14296 4065,14297 4047,14297 4031,14297 4015,14294 3999,14287 3976,14277 3957,14261 3944,14238 3931,14216 3924,14189 3924,14157 3924,14147 3926,14134 3930,14119 3933,14103 3940,14086 3950,14068 3957,14056 3965,14046 3974,14038 3988,14027 4000,14020 4010,14015 4025,14009 4042,14006 4062,14006 4083,14006 4100,14010 4114,14018 4132,14028 4146,14042 4155,14058 4164,14074 4168,14089 4168,14103 L 4168,14108 Z M 3978,14096 L 3994,14096 C 4005,14096 4040,14094 4097,14090 4106,14090 4112,14089 4114,14087 4118,14083 4120,14079 4120,14075 4120,14068 4118,14060 4113,14051 4109,14042 4102,14035 4092,14030 4083,14025 4072,14022 4059,14022 4033,14022 4012,14032 3996,14053 3984,14068 3978,14082 3978,14096 Z"/>
    </g>
   </g>
   <g class="com.sun.star.drawing.ClosedBezierShape">
    <g id="id19">
     <rect class="BoundingBox" stroke="none" fill="none" x="4372" y="13830" width="157" height="461"/>
     <path fill="rgb(255,255,255)" stroke="none" d="M 4386,13861 L 4386,13853 C 4392,13851 4400,13849 4407,13847 4419,13843 4436,13837 4459,13830 L 4475,13830 C 4475,13841 4475,13847 4475,13849 4475,14038 4474,14150 4473,14186 4473,14208 4473,14219 4473,14220 4473,14246 4474,14261 4476,14264 4479,14268 4487,14271 4501,14272 4515,14274 4523,14275 4525,14277 4527,14278 4528,14280 4528,14282 4528,14285 4527,14286 4526,14287 4525,14288 4524,14289 4521,14289 4519,14289 4507,14289 4485,14288 L 4440,14286 4382,14289 C 4379,14289 4376,14289 4374,14287 4373,14286 4372,14284 4372,14282 4372,14279 4373,14278 4374,14277 4376,14276 4384,14274 4399,14271 4414,14269 4423,14267 4425,14265 4427,14263 4428,14259 4429,14253 4430,14245 4430,14222 4430,14183 L 4430,14104 4431,14022 4431,13940 4432,13900 C 4432,13892 4430,13886 4428,13883 4425,13879 4420,13875 4412,13872 4399,13867 4391,13863 4386,13861 Z"/>
    </g>
   </g>
   <g class="com.sun.star.drawing.ClosedBezierShape">
    <g id="id20">
     <rect class="BoundingBox" stroke="none" fill="none" x="4530" y="13837" width="159" height="453"/>
     <path fill="rgb(255,255,255)" stroke="none" d="M 4579,13864 C 4579,13857 4582,13851 4588,13845 4593,13840 4600,13837 4608,13837 4617,13837 4624,13840 4631,13846 4637,13852 4640,13859 4640,13866 4640,13873 4637,13879 4631,13886 4624,13892 4617,13895 4608,13895 4600,13895 4593,13892 4587,13887 4582,13881 4579,13874 4579,13864 Z M 4550,14043 L 4550,14034 C 4565,14029 4574,14027 4575,14026 4583,14022 4592,14017 4601,14009 4610,14001 4618,13993 4624,13983 4627,13983 4629,13983 4631,13983 L 4635,13983 C 4636,13994 4636,14002 4636,14007 4636,14008 4636,14013 4636,14023 L 4636,14041 4636,14140 4635,14245 C 4635,14253 4636,14259 4639,14262 4642,14266 4651,14269 4665,14273 4675,14276 4681,14278 4686,14280 4687,14282 4687,14283 4687,14284 4687,14285 4686,14287 4685,14289 4676,14289 4665,14288 4651,14288 4632,14287 4619,14286 4613,14286 4610,14286 4591,14287 4557,14288 4550,14288 4544,14288 4537,14289 4536,14289 4534,14289 4532,14288 4531,14286 4530,14285 4530,14283 4530,14280 4532,14277 4537,14275 4537,14275 4549,14272 4572,14267 4579,14266 4584,14263 4586,14260 4590,14255 4592,14248 4592,14237 4592,14220 4593,14172 4593,14093 4593,14077 4592,14067 4591,14063 4589,14060 4586,14057 4582,14054 4577,14050 4566,14047 4550,14043 Z"/>
    </g>
   </g>
   <g class="com.sun.star.drawing.ClosedBezierShape">
    <g id="id21">
     <rect class="BoundingBox" stroke="none" fill="none" x="4702" y="13823" width="323" height="481"/>
     <path fill="rgb(255,255,255)" stroke="none" d="M 4702,13857 L 4702,13855 C 4702,13852 4703,13849 4705,13845 4730,13840 4757,13834 4785,13824 4786,13824 4789,13824 4792,13824 4793,13828 4794,13830 4794,13831 L 4794,13933 4793,13966 4794,14002 4793,14032 C 4793,14033 4793,14037 4794,14043 L 4822,14033 C 4825,14032 4835,14029 4852,14024 4873,14021 4886,14019 4889,14019 4913,14019 4933,14023 4952,14030 4963,14035 4974,14042 4986,14053 4997,14064 5005,14075 5010,14087 5019,14109 5024,14128 5024,14143 5024,14168 5022,14186 5019,14195 5011,14218 5002,14236 4990,14250 4979,14263 4963,14274 4943,14284 4923,14293 4901,14298 4878,14298 4857,14298 4837,14294 4819,14286 4800,14278 4789,14275 4787,14275 4780,14275 4772,14284 4761,14303 L 4751,14303 C 4750,14287 4749,14268 4749,14246 L 4750,14195 4750,14169 4750,14094 4750,14079 4751,14044 4751,14014 4751,14001 C 4751,13999 4751,13989 4751,13972 L 4751,13951 C 4752,13911 4750,13888 4746,13882 4739,13872 4724,13864 4702,13857 Z M 4866,14279 C 4901,14279 4927,14269 4946,14250 4964,14230 4973,14201 4973,14162 4973,14126 4963,14097 4942,14075 4921,14053 4896,14042 4865,14042 4843,14042 4825,14046 4810,14053 4801,14057 4796,14061 4795,14065 4794,14068 4793,14093 4793,14139 4793,14193 4794,14224 4796,14233 4800,14248 4808,14258 4818,14264 4834,14274 4850,14279 4866,14279 Z"/>
    </g>
   </g>
   <g class="com.sun.star.drawing.ClosedBezierShape">
    <g id="id22">
     <rect class="BoundingBox" stroke="none" fill="none" x="5064" y="13990" width="223" height="302"/>
     <path fill="rgb(255,255,255)" stroke="none" d="M 5065,14291 L 5064,14286 C 5064,14285 5065,14282 5067,14279 L 5087,14275 5116,14270 C 5118,14268 5120,14267 5121,14265 5122,14262 5123,14253 5123,14238 5123,14160 5123,14114 5122,14102 5121,14090 5119,14082 5115,14079 5112,14076 5104,14073 5091,14072 5083,14070 5077,14069 5072,14067 L 5073,14057 C 5097,14047 5114,14038 5122,14031 5133,14020 5143,14007 5151,13990 L 5163,13990 C 5164,14002 5165,14028 5165,14068 L 5165,14074 C 5165,14075 5165,14077 5165,14080 5174,14065 5185,14050 5198,14037 L 5206,14029 C 5209,14025 5212,14022 5215,14020 5231,14011 5243,14006 5251,14006 5261,14006 5269,14009 5275,14016 5282,14023 5285,14031 5285,14041 5285,14049 5283,14055 5278,14059 5272,14065 5265,14068 5257,14068 5253,14068 5246,14066 5235,14062 5224,14058 5217,14056 5214,14056 5207,14056 5203,14057 5200,14059 5194,14064 5186,14074 5177,14090 5170,14102 5166,14113 5166,14122 L 5168,14179 5169,14248 C 5169,14255 5170,14261 5171,14263 5172,14264 5175,14266 5178,14269 5203,14271 5218,14272 5222,14273 5225,14273 5228,14274 5229,14274 5239,14274 5246,14275 5250,14278 5252,14279 5253,14281 5253,14283 5253,14285 5252,14287 5250,14289 L 5212,14288 5198,14288 5177,14288 5142,14288 5123,14290 5065,14291 Z"/>
    </g>
   </g>
   <g class="com.sun.star.drawing.ClosedBezierShape">
    <g id="id23">
     <rect class="BoundingBox" stroke="none" fill="none" x="5311" y="14005" width="260" height="292"/>
     <path fill="rgb(255,255,255)" stroke="none" d="M 5568,14241 C 5569,14244 5570,14246 5570,14248 5570,14251 5567,14257 5562,14266 5555,14277 5547,14286 5538,14291 5533,14294 5525,14296 5516,14296 5499,14296 5487,14291 5479,14281 5474,14275 5470,14265 5468,14249 L 5429,14276 C 5416,14284 5405,14289 5398,14291 5387,14294 5373,14295 5357,14295 5345,14295 5336,14292 5329,14285 5322,14278 5319,14269 5319,14258 5319,14242 5329,14223 5348,14201 5368,14179 5394,14161 5428,14147 5451,14137 5466,14131 5471,14128 5471,14120 5472,14112 5472,14103 5472,14073 5468,14053 5459,14043 5451,14032 5439,14027 5424,14027 5408,14027 5393,14033 5379,14046 5371,14054 5364,14069 5360,14091 5359,14097 5356,14103 5352,14110 5342,14117 5334,14120 5328,14120 5323,14120 5319,14119 5314,14116 5312,14114 5311,14112 5311,14110 5311,14104 5317,14090 5330,14069 5343,14048 5359,14032 5379,14022 5398,14011 5415,14006 5429,14006 5449,14006 5464,14008 5474,14011 5483,14015 5492,14021 5499,14030 5507,14039 5511,14049 5513,14059 5514,14065 5514,14083 5514,14114 L 5513,14169 5513,14209 C 5513,14214 5513,14218 5513,14222 5513,14229 5513,14234 5513,14237 5513,14244 5515,14251 5519,14255 5523,14260 5528,14262 5534,14262 5543,14262 5550,14258 5556,14249 L 5561,14243 C 5562,14243 5564,14242 5568,14241 Z M 5469,14232 C 5470,14202 5471,14182 5471,14170 5471,14164 5471,14156 5470,14145 5454,14150 5438,14159 5421,14170 5403,14181 5389,14194 5379,14209 5372,14219 5368,14229 5368,14239 5368,14248 5371,14255 5377,14261 5383,14267 5391,14270 5400,14270 5408,14270 5416,14267 5426,14262 5440,14256 5454,14246 5469,14232 Z"/>
    </g>
   </g>
   <g class="com.sun.star.drawing.ClosedBezierShape">
    <g id="id24">
     <rect class="BoundingBox" stroke="none" fill="none" x="5589" y="13990" width="223" height="302"/>
     <path fill="rgb(255,255,255)" stroke="none" d="M 5590,14291 L 5589,14286 C 5589,14285 5590,14282 5592,14279 L 5612,14275 5641,14270 C 5643,14268 5645,14267 5646,14265 5647,14262 5648,14253 5648,14238 5648,14160 5648,14114 5647,14102 5646,14090 5644,14082 5640,14079 5637,14076 5629,14073 5616,14072 5608,14070 5602,14069 5597,14067 L 5598,14057 C 5622,14047 5639,14038 5647,14031 5658,14020 5668,14007 5676,13990 L 5688,13990 C 5689,14002 5690,14028 5690,14068 L 5690,14074 C 5690,14075 5690,14077 5690,14080 5699,14065 5710,14050 5723,14037 L 5731,14029 C 5734,14025 5737,14022 5740,14020 5756,14011 5768,14006 5776,14006 5786,14006 5794,14009 5800,14016 5807,14023 5810,14031 5810,14041 5810,14049 5808,14055 5803,14059 5797,14065 5790,14068 5782,14068 5778,14068 5771,14066 5760,14062 5749,14058 5742,14056 5739,14056 5732,14056 5728,14057 5725,14059 5719,14064 5711,14074 5702,14090 5695,14102 5691,14113 5691,14122 L 5693,14179 5694,14248 C 5694,14255 5695,14261 5696,14263 5697,14264 5700,14266 5703,14269 5728,14271 5743,14272 5747,14273 5750,14273 5753,14274 5754,14274 5764,14274 5771,14275 5775,14278 5777,14279 5778,14281 5778,14283 5778,14285 5777,14287 5775,14289 L 5737,14288 5723,14288 5702,14288 5667,14288 5648,14290 5590,14291 Z"/>
    </g>
   </g>
   <g class="com.sun.star.drawing.ClosedBezierShape">
    <g id="id25">
     <rect class="BoundingBox" stroke="none" fill="none" x="5813" y="13837" width="159" height="453"/>
     <path fill="rgb(255,255,255)" stroke="none" d="M 5862,13864 C 5862,13857 5865,13851 5871,13845 5876,13840 5883,13837 5891,13837 5900,13837 5907,13840 5914,13846 5920,13852 5923,13859 5923,13866 5923,13873 5920,13879 5914,13886 5907,13892 5900,13895 5891,13895 5883,13895 5876,13892 5870,13887 5865,13881 5862,13874 5862,13864 Z M 5833,14043 L 5833,14034 C 5848,14029 5857,14027 5858,14026 5866,14022 5875,14017 5884,14009 5893,14001 5901,13993 5907,13983 5910,13983 5912,13983 5914,13983 L 5918,13983 C 5919,13994 5919,14002 5919,14007 5919,14008 5919,14013 5919,14023 L 5919,14041 5919,14140 5918,14245 C 5918,14253 5919,14259 5922,14262 5925,14266 5934,14269 5948,14273 5958,14276 5964,14278 5969,14280 5970,14282 5970,14283 5970,14284 5970,14285 5969,14287 5968,14289 5959,14289 5948,14288 5934,14288 5915,14287 5902,14286 5896,14286 5893,14286 5874,14287 5840,14288 5833,14288 5827,14288 5820,14289 5819,14289 5817,14289 5815,14288 5814,14286 5813,14285 5813,14283 5813,14280 5815,14277 5820,14275 5820,14275 5832,14272 5855,14267 5862,14266 5867,14263 5869,14260 5873,14255 5875,14248 5875,14237 5875,14220 5876,14172 5876,14093 5876,14077 5875,14067 5874,14063 5872,14060 5869,14057 5865,14054 5860,14050 5849,14047 5833,14043 Z"/>
    </g>
   </g>
   <g class="com.sun.star.drawing.ClosedBezierShape">
    <g id="id26">
     <rect class="BoundingBox" stroke="none" fill="none" x="6000" y="14006" width="250" height="292"/>
     <path fill="rgb(255,255,255)" stroke="none" d="M 6245,14108 L 6109,14109 6082,14109 C 6072,14109 6061,14109 6050,14110 6048,14117 6047,14122 6047,14124 L 6047,14127 6047,14131 6047,14148 C 6047,14162 6051,14179 6060,14199 6069,14219 6081,14234 6098,14245 6114,14256 6134,14261 6159,14262 6172,14261 6182,14260 6190,14257 6198,14255 6209,14249 6223,14241 L 6247,14221 6249,14234 C 6249,14236 6249,14237 6249,14239 6239,14252 6226,14263 6210,14273 6194,14282 6178,14289 6162,14294 6154,14296 6142,14297 6124,14297 6108,14297 6092,14294 6076,14287 6053,14277 6034,14261 6021,14238 6008,14216 6001,14189 6001,14157 6001,14147 6003,14134 6007,14119 6010,14103 6017,14086 6027,14068 6034,14056 6042,14046 6051,14038 6065,14027 6077,14020 6087,14015 6102,14009 6119,14006 6139,14006 6160,14006 6177,14010 6191,14018 6209,14028 6223,14042 6232,14058 6241,14074 6245,14089 6245,14103 L 6245,14108 Z M 6055,14096 L 6071,14096 C 6082,14096 6117,14094 6174,14090 6183,14090 6189,14089 6191,14087 6195,14083 6197,14079 6197,14075 6197,14068 6195,14060 6190,14051 6186,14042 6179,14035 6169,14030 6160,14025 6149,14022 6136,14022 6110,14022 6089,14032 6073,14053 6061,14068 6055,14082 6055,14096 Z"/>
    </g>
   </g>
   <g class="com.sun.star.drawing.ClosedBezierShape">
    <g id="id27">
     <rect class="BoundingBox" stroke="none" fill="none" x="6309" y="14003" width="188" height="298"/>
     <path fill="rgb(255,255,255)" stroke="none" d="M 6320,14202 C 6328,14224 6335,14239 6339,14245 6348,14258 6358,14269 6370,14276 6382,14283 6396,14287 6410,14287 6423,14287 6436,14281 6448,14270 6457,14261 6462,14251 6462,14240 6462,14224 6457,14210 6446,14197 6435,14185 6415,14173 6385,14161 6355,14150 6335,14138 6325,14125 6314,14112 6309,14097 6309,14081 6309,14065 6313,14051 6322,14039 6330,14027 6342,14018 6357,14012 6371,14006 6385,14003 6398,14003 6414,14003 6429,14004 6441,14007 6454,14009 6465,14014 6475,14019 6477,14031 6478,14048 6479,14070 L 6480,14081 C 6477,14081 6475,14081 6473,14081 L 6468,14081 C 6461,14062 6451,14048 6437,14037 6423,14026 6409,14020 6395,14020 6381,14020 6370,14024 6362,14033 6353,14041 6349,14052 6349,14065 6349,14076 6352,14085 6359,14093 6366,14101 6382,14110 6407,14120 6432,14131 6451,14140 6462,14149 6474,14158 6482,14169 6488,14181 6493,14194 6496,14206 6496,14218 6496,14234 6491,14248 6480,14262 6470,14276 6457,14286 6441,14292 6426,14297 6412,14300 6399,14300 6370,14300 6343,14295 6319,14286 6317,14284 6315,14280 6315,14275 6315,14273 6315,14270 6314,14265 6311,14234 6309,14215 6309,14209 6309,14206 6310,14204 6311,14203 6312,14202 6315,14202 6320,14202 Z"/>
    </g>
   </g>
  </g>
  <g class="Group">
   <g class="com.sun.star.drawing.CustomShape">
    <g id="id28">
     <rect class="BoundingBox" stroke="none" fill="none" x="1100" y="13071" width="1007" height="1386"/>
     <path fill="rgb(255,255,255)" stroke="none" d="M 1100,13763 L 1540,13676 1603,13071 1666,13676 2106,13763 1666,13850 1603,14456 1540,13850 1100,13763 1100,13763 Z"/>
    </g>
   </g>
   <g class="com.sun.star.drawing.CustomShape">
    <g id="id29">
     <rect class="BoundingBox" stroke="none" fill="none" x="1923" y="12957" width="642" height="884"/>
     <path fill="rgb(255,255,255)" stroke="none" d="M 1923,13398 L 2203,13342 2243,12957 2283,13342 2564,13398 2283,13453 2243,13839 2203,13453 1923,13398 1923,13398 Z"/>
    </g>
   </g>
   <g class="com.sun.star.drawing.CustomShape">
    <g id="id30">
     <rect class="BoundingBox" stroke="none" fill="none" x="1853" y="13937" width="380" height="520"/>
     <path fill="rgb(255,255,255)" stroke="none" d="M 1854,14196 L 2019,14163 2043,13937 2066,14163 2232,14196 2066,14229 2043,14456 2019,14229 1854,14196 1854,14196 Z"/>
    </g>
   </g>
  </g>
 </g>
</svg>