<?xml version="1.0" encoding="UTF-8" standalone="no"?>
<!DOCTYPE svg PUBLIC "-//W3C//DTD SVG 1.1//EN"
 "http://www.w3.org/Graphics/SVG/1.1/DTD/svg11.dtd">
<!-- Generated by graphviz version 2.44.0 (0)
 -->
<!-- Title: G Pages: 1 -->
<svg width="1180pt" height="284pt"
 viewBox="0.00 0.00 1180.27 284.00" xmlns="http://www.w3.org/2000/svg" xmlns:xlink="http://www.w3.org/1999/xlink">
<g id="graph0" class="graph" transform="scale(1 1) rotate(0) translate(4 280)">
<title>G</title>
<polygon fill="white" stroke="transparent" points="-4,4 -4,-280 1176.27,-280 1176.27,4 -4,4"/>
<text text-anchor="middle" x="586.14" y="-260.8" font-family="Times,serif" font-size="14.00">Circulation state diagram</text>
<g id="clust1" class="cluster">
<title>cluster_main</title>
<polygon fill="none" stroke="black" points="152,-29 152,-245 1099.27,-245 1099.27,-29 152,-29"/>
</g>
<g id="clust2" class="cluster">
<title>cluster_0</title>
<polygon fill="none" stroke="gray" points="160,-37 160,-194 859.27,-194 859.27,-37 160,-37"/>
</g>
<!-- CREATED -->
<g id="node1" class="node">
<title>CREATED</title>
<ellipse fill="black" stroke="black" cx="53" cy="-33" rx="18" ry="18"/>
<text text-anchor="middle" x="17.5" y="-3.8" font-family="Times,serif" font-size="14.00">Loan</text>
</g>
<!-- PENDING -->
<g id="node2" class="node">
<title>PENDING</title>
<polygon fill="#ffb3ba" stroke="transparent" points="257,-113 168,-113 168,-77 257,-77 257,-113"/>
<text text-anchor="middle" x="212.5" y="-91.3" font-family="Times,serif" font-size="14.00">PENDING</text>
</g>
<!-- CREATED&#45;&gt;PENDING -->
<g id="edge12" class="edge">
<title>CREATED&#45;&gt;PENDING</title>
<path fill="none" stroke="black" d="M69.97,-39.29C90.59,-47.4 127.52,-61.94 158.48,-74.13"/>
<polygon fill="black" stroke="black" points="157.29,-77.42 167.88,-77.83 159.85,-70.91 157.29,-77.42"/>
<text text-anchor="middle" x="116.5" y="-70.8" font-family="Times,serif" font-size="14.00">request</text>
</g>
<!-- ITEM_ON_LOAN -->
<g id="node5" class="node">
<title>ITEM_ON_LOAN</title>
<path fill="none" stroke="black" d="M839.27,-153C839.27,-153 729.27,-153 729.27,-153 723.27,-153 717.27,-147 717.27,-141 717.27,-141 717.27,-129 717.27,-129 717.27,-123 723.27,-117 729.27,-117 729.27,-117 839.27,-117 839.27,-117 845.27,-117 851.27,-123 851.27,-129 851.27,-129 851.27,-141 851.27,-141 851.27,-147 845.27,-153 839.27,-153"/>
<text text-anchor="middle" x="784.27" y="-131.3" font-family="Times,serif" font-size="14.00">ITEM_ON_LOAN</text>
</g>
<!-- CREATED&#45;&gt;ITEM_ON_LOAN -->
<g id="edge13" class="edge">
<title>CREATED&#45;&gt;ITEM_ON_LOAN</title>
<path fill="none" stroke="black" d="M70.92,-30.34C140.01,-20.03 407.07,14.21 617.27,-36 666.4,-47.74 675.93,-60.98 717.27,-90 727.19,-96.96 738.03,-104.42 748.01,-111.21"/>
<polygon fill="black" stroke="black" points="746.27,-114.26 756.5,-116.99 750.2,-108.47 746.27,-114.26"/>
<text text-anchor="middle" x="333.5" y="-15.8" font-family="Times,serif" font-size="14.00">checkout</text>
</g>
<!-- ITEM_AT_DESK -->
<g id="node3" class="node">
<title>ITEM_AT_DESK</title>
<polygon fill="#ffdfba" stroke="transparent" points="617.41,-68.56 513.64,-81 409.86,-68.56 409.96,-48.44 617.31,-48.44 617.41,-68.56"/>
<text text-anchor="middle" x="513.64" y="-59.3" font-family="Times,serif" font-size="14.00">ITEM_AT_DESK</text>
</g>
<!-- PENDING&#45;&gt;ITEM_AT_DESK -->
<g id="edge2" class="edge">
<title>PENDING&#45;&gt;ITEM_AT_DESK</title>
<path fill="none" stroke="black" d="M257.33,-83.36C263.24,-82.07 269.25,-80.9 275,-80 315.41,-73.67 360.06,-69.7 399.65,-67.2"/>
<polygon fill="black" stroke="black" points="400.09,-70.68 409.86,-66.58 399.67,-63.69 400.09,-70.68"/>
<text text-anchor="middle" x="333.5" y="-83.8" font-family="Times,serif" font-size="14.00">validate</text>
</g>
<!-- ITEM_IN_TRANSIT -->
<g id="node4" class="node">
<title>ITEM_IN_TRANSIT</title>
<path fill="none" stroke="black" d="M577.64,-186C577.64,-186 449.64,-186 449.64,-186 443.64,-186 437.64,-180 437.64,-174 437.64,-174 437.64,-162 437.64,-162 437.64,-156 443.64,-150 449.64,-150 449.64,-150 577.64,-150 577.64,-150 583.64,-150 589.64,-156 589.64,-162 589.64,-162 589.64,-174 589.64,-174 589.64,-180 583.64,-186 577.64,-186"/>
<text text-anchor="middle" x="513.64" y="-164.3" font-family="Times,serif" font-size="14.00">ITEM_IN_TRANSIT</text>
</g>
<!-- PENDING&#45;&gt;ITEM_IN_TRANSIT -->
<g id="edge3" class="edge">
<title>PENDING&#45;&gt;ITEM_IN_TRANSIT</title>
<path fill="none" stroke="black" d="M246.32,-113.07C255.4,-117.49 265.4,-121.86 275,-125 324.37,-141.17 381.62,-151.76 427.56,-158.38"/>
<polygon fill="black" stroke="black" points="427.09,-161.85 437.48,-159.78 428.06,-154.92 427.09,-161.85"/>
<text text-anchor="middle" x="333.5" y="-155.8" font-family="Times,serif" font-size="14.00">validate</text>
</g>
<!-- PENDING&#45;&gt;ITEM_ON_LOAN -->
<g id="edge1" class="edge">
<title>PENDING&#45;&gt;ITEM_ON_LOAN</title>
<path fill="none" stroke="black" d="M257.13,-110.85C263.07,-112.52 269.14,-113.97 275,-115 349.96,-128.12 541.24,-122.72 617.27,-126 646.55,-127.26 678.71,-128.94 706.87,-130.5"/>
<polygon fill="black" stroke="black" points="706.87,-134.01 717.05,-131.07 707.26,-127.02 706.87,-134.01"/>
<text text-anchor="middle" x="513.64" y="-129.8" font-family="Times,serif" font-size="14.00">checkout</text>
</g>
<!-- ITEM_AT_DESK&#45;&gt;ITEM_ON_LOAN -->
<g id="edge4" class="edge">
<title>ITEM_AT_DESK&#45;&gt;ITEM_ON_LOAN</title>
<path fill="none" stroke="black" d="M587.52,-72.25C621.9,-77.66 663.19,-85.7 699.27,-97 712.54,-101.15 726.47,-106.86 739.09,-112.6"/>
<polygon fill="black" stroke="black" points="737.91,-115.91 748.46,-116.96 740.87,-109.56 737.91,-115.91"/>
<text text-anchor="middle" x="667.27" y="-100.8" font-family="Times,serif" font-size="14.00">checkout</text>
</g>
<!-- ITEM_IN_TRANSIT&#45;&gt;ITEM_AT_DESK -->
<g id="edge10" class="edge">
<title>ITEM_IN_TRANSIT&#45;&gt;ITEM_AT_DESK</title>
<path fill="none" stroke="black" d="M437.54,-166.12C362.48,-161.55 264.43,-146.56 305,-98.5 328.24,-70.98 364.27,-59.33 399.89,-55.43"/>
<polygon fill="black" stroke="black" points="400.27,-58.91 409.92,-54.53 399.65,-51.94 400.27,-58.91"/>
<text text-anchor="start" x="275" y="-102.3" font-family="Times,serif" font-size="14.00">delivery_receive</text>
</g>
<!-- ITEM_RETURNED -->
<g id="node6" class="node">
<title>ITEM_RETURNED</title>
<path fill="none" stroke="black" d="M1079.27,-207C1079.27,-207 954.27,-207 954.27,-207 948.27,-207 942.27,-201 942.27,-195 942.27,-195 942.27,-183 942.27,-183 942.27,-177 948.27,-171 954.27,-171 954.27,-171 1079.27,-171 1079.27,-171 1085.27,-171 1091.27,-177 1091.27,-183 1091.27,-183 1091.27,-195 1091.27,-195 1091.27,-201 1085.27,-207 1079.27,-207"/>
<text text-anchor="middle" x="1016.77" y="-185.3" font-family="Times,serif" font-size="14.00">ITEM_RETURNED</text>
</g>
<!-- ITEM_IN_TRANSIT&#45;&gt;ITEM_RETURNED -->
<g id="edge11" class="edge">
<title>ITEM_IN_TRANSIT&#45;&gt;ITEM_RETURNED</title>
<path fill="none" stroke="black" d="M589.94,-180.45C627.99,-186.12 674.95,-192.19 717.27,-195 780.24,-199.18 796.17,-196.21 859.27,-195 882.83,-194.55 908.38,-193.71 931.87,-192.81"/>
<polygon fill="black" stroke="black" points="932.29,-196.3 942.14,-192.4 932.01,-189.3 932.29,-196.3"/>
<text text-anchor="middle" x="784.27" y="-200.8" font-family="Times,serif" font-size="14.00">house_receive</text>
</g>
<!-- ITEM_ON_LOAN&#45;&gt;ITEM_IN_TRANSIT -->
<g id="edge5" class="edge">
<title>ITEM_ON_LOAN&#45;&gt;ITEM_IN_TRANSIT</title>
<path fill="none" stroke="black" d="M717.26,-141.02C691.63,-143.53 662.05,-146.65 635.27,-150 623.78,-151.44 611.69,-153.08 599.79,-154.78"/>
<polygon fill="black" stroke="black" points="599.25,-151.32 589.85,-156.22 600.25,-158.25 599.25,-151.32"/>
<text text-anchor="middle" x="667.27" y="-153.8" font-family="Times,serif" font-size="14.00">checkin</text>
</g>
<!-- ITEM_ON_LOAN&#45;&gt;ITEM_ON_LOAN -->
<g id="edge6" class="edge">
<title>ITEM_ON_LOAN&#45;&gt;ITEM_ON_LOAN</title>
<path fill="none" stroke="black" d="M764.01,-153.15C760.89,-162.54 767.65,-171 784.27,-171 794.4,-171 800.87,-167.86 803.67,-163.28"/>
<polygon fill="black" stroke="black" points="807.17,-163.41 804.53,-153.15 800.19,-162.82 807.17,-163.41"/>
<text text-anchor="middle" x="784.27" y="-174.8" font-family="Times,serif" font-size="14.00">extend</text>
</g>
<!-- ITEM_ON_LOAN&#45;&gt;ITEM_RETURNED -->
<g id="edge9" class="edge">
<title>ITEM_ON_LOAN&#45;&gt;ITEM_RETURNED</title>
<path fill="none" stroke="black" d="M851.32,-150.47C876.45,-156.36 905.41,-163.15 931.97,-169.37"/>
<polygon fill="black" stroke="black" points="931.48,-172.85 942.02,-171.72 933.08,-166.03 931.48,-172.85"/>
<text text-anchor="middle" x="896.77" y="-169.8" font-family="Times,serif" font-size="14.00">checkin</text>
</g>
<!-- CANCELLED -->
<g id="node7" class="node">
<title>CANCELLED</title>
<polygon fill="#ffb3ba" stroke="transparent" points="1071.77,-153 961.77,-153 961.77,-117 1071.77,-117 1071.77,-153"/>
<text text-anchor="middle" x="1016.77" y="-131.3" font-family="Times,serif" font-size="14.00">CANCELLED</text>
</g>
<!-- ITEM_ON_LOAN&#45;&gt;CANCELLED -->
<g id="edge16" class="edge">
<title>ITEM_ON_LOAN&#45;&gt;CANCELLED</title>
<path fill="none" stroke="gray" d="M859.27,-135C888.93,-135 922.79,-135 951.41,-135"/>
<polygon fill="gray" stroke="gray" points="951.74,-138.5 961.74,-135 951.74,-131.5 951.74,-138.5"/>
</g>
<!-- DISPUTED -->
<g id="node8" class="node">
<title>DISPUTED</title>
<path fill="none" stroke="black" d="M819.77,-81C819.77,-81 748.77,-81 748.77,-81 742.77,-81 736.77,-75 736.77,-69 736.77,-69 736.77,-57 736.77,-57 736.77,-51 742.77,-45 748.77,-45 748.77,-45 819.77,-45 819.77,-45 825.77,-45 831.77,-51 831.77,-57 831.77,-57 831.77,-69 831.77,-69 831.77,-75 825.77,-81 819.77,-81"/>
<text text-anchor="middle" x="784.27" y="-59.3" font-family="Times,serif" font-size="14.00">DISPUTED</text>
</g>
<!-- ITEM_ON_LOAN&#45;&gt;DISPUTED -->
<g id="edge7" class="edge">
<title>ITEM_ON_LOAN&#45;&gt;DISPUTED</title>
<path fill="none" stroke="black" d="M811.03,-116.95C820.11,-107.76 822.21,-98.56 817.34,-89.36"/>
<polygon fill="black" stroke="black" points="820.07,-87.17 811.27,-81.28 814.48,-91.38 820.07,-87.17"/>
</g>
<!-- DELETED -->
<g id="node9" class="node">
<title>DELETED</title>
<ellipse fill="black" stroke="black" cx="1150.27" cy="-165" rx="18" ry="18"/>
<ellipse fill="none" stroke="black" cx="1150.27" cy="-165" rx="22" ry="22"/>
</g>
<!-- ITEM_RETURNED&#45;&gt;DELETED -->
<g id="edge14" class="edge">
<title>ITEM_RETURNED&#45;&gt;DELETED</title>
<path fill="none" stroke="black" d="M1091.59,-175.53C1101.14,-173.78 1110.46,-172.08 1118.73,-170.57"/>
<polygon fill="black" stroke="black" points="1119.37,-174.02 1128.57,-168.78 1118.11,-167.13 1119.37,-174.02"/>
</g>
<!-- CANCELLED&#45;&gt;DELETED -->
<g id="edge15" class="edge">
<title>CANCELLED&#45;&gt;DELETED</title>
<path fill="none" stroke="black" d="M1072.02,-147.38C1087.91,-151 1104.74,-154.84 1118.61,-158.01"/>
<polygon fill="black" stroke="black" points="1118.06,-161.47 1128.59,-160.28 1119.61,-154.64 1118.06,-161.47"/>
</g>
<!-- DISPUTED&#45;&gt;ITEM_ON_LOAN -->
<g id="edge8" class="edge">
<title>DISPUTED&#45;&gt;ITEM_ON_LOAN</title>
<path fill="none" stroke="black" d="M757.28,-81.28C748.32,-90.48 746.33,-99.67 751.32,-108.87"/>
<polygon fill="black" stroke="black" points="748.65,-111.14 757.51,-116.95 754.21,-106.88 748.65,-111.14"/>
</g>
</g>
</svg>
