<?xml version="1.0" encoding="UTF-8" standalone="no"?>
<!DOCTYPE svg PUBLIC "-//W3C//DTD SVG 1.1//EN"
 "http://www.w3.org/Graphics/SVG/1.1/DTD/svg11.dtd">
<!-- Generated by graphviz version 2.44.0 (0)
 -->
<!-- Pages: 1 -->
<svg width="2930pt" height="1346pt"
 viewBox="0.00 0.00 2930.38 1346.00" xmlns="http://www.w3.org/2000/svg" xmlns:xlink="http://www.w3.org/1999/xlink">
<g id="graph0" class="graph" transform="scale(1 1) rotate(0) translate(4 1342)">
<polygon fill="white" stroke="transparent" points="-4,4 -4,-1342 2926.38,-1342 2926.38,4 -4,4"/>
<text text-anchor="middle" x="1461.19" y="-7.8" font-family="Times,serif" font-size="14.00">Circulation modelisation</text>
<!-- on_shelf -->
<g id="node1" class="node">
<title>on_shelf</title>
<ellipse fill="none" stroke="black" cx="69" cy="-761" rx="63.89" ry="18"/>
<text text-anchor="middle" x="69" y="-757.3" font-family="Times,serif" font-size="14.00">ON_SHELF</text>
</g>
<!-- on_shelf&#45;&gt;on_shelf -->
<g id="edge28" class="edge">
<title>on_shelf&#45;&gt;on_shelf</title>
<path fill="none" stroke="black" d="M35.15,-776.54C25.62,-786.91 36.9,-797 69,-797 90.57,-797 102.74,-792.44 105.51,-786.31"/>
<polygon fill="black" stroke="black" points="108.86,-785.27 102.85,-776.54 102.1,-787.11 108.86,-785.27"/>
<text text-anchor="start" x="11.5" y="-830.8" font-family="Times,serif" font-size="14.00">CHECKIN_1.1.1</text>
<text text-anchor="start" x="3.5" y="-815.8" font-family="Times,serif" font-size="14.00">(游뛂游닄,游늽游=游쓇릞)</text>
<text text-anchor="start" x="0" y="-800.8" font-family="Times,serif" font-size="14.00">TODO: NO ACTION</text>
</g>
<!-- pending -->
<g id="node2" class="node">
<title>pending</title>
<ellipse fill="none" stroke="black" cx="2864.54" cy="-1088" rx="57.69" ry="18"/>
<text text-anchor="middle" x="2864.54" y="-1084.3" font-family="Times,serif" font-size="14.00">PENDING</text>
</g>
<!-- on_shelf&#45;&gt;pending -->
<g id="edge1" class="edge">
<title>on_shelf&#45;&gt;pending</title>
<path fill="none" stroke="black" d="M72.87,-779.08C87.25,-869.57 150.69,-1269 150.69,-1269 150.69,-1269 566.19,-1308 566.19,-1308 566.19,-1308 566.19,-1308 2461.19,-1308 2461.19,-1308 2788.69,-1269 2788.69,-1269 2788.69,-1269 2831.29,-1165.99 2852.21,-1115.39"/>
<polygon fill="black" stroke="black" points="2855.5,-1116.6 2856.09,-1106.02 2849.03,-1113.92 2855.5,-1116.6"/>
<text text-anchor="start" x="1454.19" y="-1326.8" font-family="Times,serif" font-size="14.00">ADD_REQUEST_1.1</text>
<text text-anchor="start" x="1502.19" y="-1311.8" font-family="Times,serif" font-size="14.00">(游뛂游닄)</text>
</g>
<!-- on_shelf&#45;&gt;pending -->
<g id="edge3" class="edge">
<title>on_shelf&#45;&gt;pending</title>
<path fill="none" stroke="black" d="M78.03,-778.92C98.44,-824.45 150.69,-941 150.69,-941 150.69,-941 566.19,-1255 566.19,-1255 566.19,-1255 566.19,-1255 2461.19,-1255 2461.19,-1255 2788.69,-1120 2788.69,-1120 2788.69,-1120 2803.73,-1113.57 2820.33,-1106.48"/>
<polygon fill="black" stroke="black" points="2821.8,-1109.65 2829.62,-1102.5 2819.05,-1103.22 2821.8,-1109.65"/>
<text text-anchor="start" x="1447.19" y="-1273.8" font-family="Times,serif" font-size="14.00">ADD_REQUEST_1.2.2</text>
<text text-anchor="start" x="1502.19" y="-1258.8" font-family="Times,serif" font-size="14.00">(游뛂游논)</text>
</g>
<!-- denied -->
<g id="node3" class="node">
<title>denied</title>
<ellipse fill="none" stroke="black" cx="2864.54" cy="-550" rx="50.09" ry="18"/>
<text text-anchor="middle" x="2864.54" y="-546.3" font-family="Times,serif" font-size="14.00">DENIED</text>
</g>
<!-- on_shelf&#45;&gt;denied -->
<g id="edge2" class="edge">
<title>on_shelf&#45;&gt;denied</title>
<path fill="none" stroke="black" d="M72.08,-743.02C84.71,-633.61 150.69,-62 150.69,-62 150.69,-62 566.19,-23 566.19,-23 566.19,-23 566.19,-23 2461.19,-23 2461.19,-23 2788.69,-62 2788.69,-62 2788.69,-62 2843.23,-417.56 2859.2,-521.68"/>
<polygon fill="black" stroke="black" points="2855.77,-522.41 2860.74,-531.76 2862.69,-521.35 2855.77,-522.41"/>
<text text-anchor="start" x="1447.19" y="-41.8" font-family="Times,serif" font-size="14.00">ADD_REQUEST_1.2.1</text>
<text text-anchor="start" x="1511.19" y="-26.8" font-family="Times,serif" font-size="14.00">(游논)</text>
</g>
<!-- on_shelf&#45;&gt;denied -->
<g id="edge18" class="edge">
<title>on_shelf&#45;&gt;denied</title>
<path fill="none" stroke="black" d="M80.38,-778.89C102.18,-816.43 150.69,-900 150.69,-900 150.69,-900 750.69,-1043 750.69,-1043 750.69,-1043 1711.69,-1161 1711.69,-1161 1711.69,-1161 2054.69,-1161 2054.69,-1161 2054.69,-1161 2273.69,-1128 2273.69,-1128 2273.69,-1128 2788.69,-1010 2788.69,-1010 2788.69,-1010 2842.76,-677.73 2858.99,-577.98"/>
<polygon fill="black" stroke="black" points="2862.45,-578.46 2860.61,-568.03 2855.54,-577.34 2862.45,-578.46"/>
<text text-anchor="start" x="1460.69" y="-1191.8" font-family="Times,serif" font-size="14.00">CHECKOUT_1.2.2</text>
<text text-anchor="start" x="1511.19" y="-1176.8" font-family="Times,serif" font-size="14.00">(游닄,</text>
<text text-anchor="start" x="1356.69" y="-1161.8" font-family="Times,serif" font-size="14.00">checkout patron != patron of 1st pending loan)</text>
</g>
<!-- on_shelf&#45;&gt;denied -->
<g id="edge47" class="edge">
<title>on_shelf&#45;&gt;denied</title>
<path fill="none" stroke="black" d="M72.92,-742.87C87.39,-653.05 150.69,-260 150.69,-260 150.69,-260 401.69,-118 401.69,-118 401.69,-118 566.19,-76 566.19,-76 566.19,-76 566.19,-76 2461.19,-76 2461.19,-76 2788.69,-328 2788.69,-328 2788.69,-328 2834.13,-462.77 2854.2,-522.3"/>
<polygon fill="black" stroke="black" points="2850.9,-523.48 2857.41,-531.83 2857.54,-521.24 2850.9,-523.48"/>
<text text-anchor="start" x="1473.69" y="-79.8" font-family="Times,serif" font-size="14.00">VALIDATE_1.1</text>
</g>
<!-- item_at_desk -->
<g id="node4" class="node">
<title>item_at_desk</title>
<ellipse fill="none" stroke="black" cx="567.19" cy="-529" rx="83.69" ry="18"/>
<text text-anchor="middle" x="567.19" y="-525.3" font-family="Times,serif" font-size="14.00">ITEM_AT_DESK</text>
</g>
<!-- on_shelf&#45;&gt;item_at_desk -->
<g id="edge30" class="edge">
<title>on_shelf&#45;&gt;item_at_desk</title>
<path fill="none" stroke="black" d="M77.45,-743.1C97.42,-695.07 150.69,-567 150.69,-567 150.69,-567 357.65,-548.07 479.44,-536.93"/>
<polygon fill="black" stroke="black" points="479.86,-540.41 489.5,-536.01 479.22,-533.44 479.86,-540.41"/>
<text text-anchor="start" x="209.69" y="-615.8" font-family="Times,serif" font-size="14.00">CHECKIN_1.2.1</text>
<text text-anchor="start" x="253.19" y="-600.8" font-family="Times,serif" font-size="14.00">(游닄,</text>
<text text-anchor="start" x="161.69" y="-585.8" font-family="Times,serif" font-size="14.00">1st pending loan 游뚴游=游쓇릞)</text>
<text text-anchor="start" x="150.69" y="-570.8" font-family="Times,serif" font-size="14.00">TODO: validate 1st pending loan</text>
</g>
<!-- on_shelf&#45;&gt;item_at_desk -->
<g id="edge48" class="edge">
<title>on_shelf&#45;&gt;item_at_desk</title>
<path fill="none" stroke="black" d="M92.05,-744.06C115.94,-725.7 150.69,-699 150.69,-699 150.69,-699 383.69,-627 383.69,-627 383.69,-627 472.12,-579.52 525.87,-550.66"/>
<polygon fill="black" stroke="black" points="527.67,-553.66 534.82,-545.85 524.36,-547.49 527.67,-553.66"/>
<text text-anchor="start" x="215.69" y="-702.8" font-family="Times,serif" font-size="14.00">VALIDATE_1.2</text>
</g>
<!-- item_on_loan -->
<g id="node5" class="node">
<title>item_on_loan</title>
<ellipse fill="none" stroke="black" cx="1222.19" cy="-787" rx="87.18" ry="18"/>
<text text-anchor="middle" x="1222.19" y="-783.3" font-family="Times,serif" font-size="14.00">ITEM_ON_LOAN</text>
</g>
<!-- on_shelf&#45;&gt;item_on_loan -->
<g id="edge16" class="edge">
<title>on_shelf&#45;&gt;item_on_loan</title>
<path fill="none" stroke="black" d="M97.77,-777.17C121.11,-790.77 150.69,-808 150.69,-808 150.69,-808 401.69,-843 401.69,-843 401.69,-843 732.69,-843 732.69,-843 732.69,-843 1087.69,-808 1087.69,-808 1087.69,-808 1113.59,-803.93 1142.57,-799.37"/>
<polygon fill="black" stroke="black" points="1143.15,-802.82 1152.49,-797.81 1142.07,-795.9 1143.15,-802.82"/>
<text text-anchor="start" x="509.69" y="-861.8" font-family="Times,serif" font-size="14.00">CHECKOUT_1.1</text>
<text text-anchor="start" x="544.19" y="-846.8" font-family="Times,serif" font-size="14.00">(游뛂游닄)</text>
</g>
<!-- on_shelf&#45;&gt;item_on_loan -->
<g id="edge17" class="edge">
<title>on_shelf&#45;&gt;item_on_loan</title>
<path fill="none" stroke="black" d="M132.71,-762.42C323.21,-766.72 896.05,-779.66 1125.06,-784.83"/>
<polygon fill="black" stroke="black" points="1125.3,-788.33 1135.37,-785.06 1125.45,-781.34 1125.3,-788.33"/>
<text text-anchor="start" x="502.69" y="-808.8" font-family="Times,serif" font-size="14.00">CHECKOUT_1.2.1</text>
<text text-anchor="start" x="553.19" y="-793.8" font-family="Times,serif" font-size="14.00">(游닄,</text>
<text text-anchor="start" x="401.69" y="-778.8" font-family="Times,serif" font-size="14.00">checkout patron = patron of 1st pending loan)</text>
</g>
<!-- in_transit_for_pickup -->
<g id="node6" class="node">
<title>in_transit_for_pickup</title>
<ellipse fill="none" stroke="black" cx="2460.19" cy="-414" rx="135.38" ry="18"/>
<text text-anchor="middle" x="2460.19" y="-410.3" font-family="Times,serif" font-size="14.00">IN_TRANSIT_FOR_PICKUP</text>
</g>
<!-- on_shelf&#45;&gt;in_transit_for_pickup -->
<g id="edge31" class="edge">
<title>on_shelf&#45;&gt;in_transit_for_pickup</title>
<path fill="none" stroke="black" d="M76.6,-743C95.88,-690.45 150.69,-541 150.69,-541 150.69,-541 750.69,-302 750.69,-302 750.69,-302 1105.69,-269 1105.69,-269 1105.69,-269 1338.69,-269 1338.69,-269 1338.69,-269 2273.69,-343 2273.69,-343 2273.69,-343 2291.69,-366 2291.69,-366 2291.69,-366 2345.56,-381.44 2392.2,-394.8"/>
<polygon fill="black" stroke="black" points="2391.44,-398.23 2402.02,-397.62 2393.37,-391.5 2391.44,-398.23"/>
<text text-anchor="start" x="1164.69" y="-317.8" font-family="Times,serif" font-size="14.00">CHECKIN_1.2.2</text>
<text text-anchor="start" x="1208.19" y="-302.8" font-family="Times,serif" font-size="14.00">(游닄,</text>
<text text-anchor="start" x="1113.69" y="-287.8" font-family="Times,serif" font-size="14.00">1st pending loan 游뚴游!=游쓇릞)</text>
<text text-anchor="start" x="1105.69" y="-272.8" font-family="Times,serif" font-size="14.00">TODO: validate 1st pending loan</text>
</g>
<!-- on_shelf&#45;&gt;in_transit_for_pickup -->
<g id="edge49" class="edge">
<title>on_shelf&#45;&gt;in_transit_for_pickup</title>
<path fill="none" stroke="black" d="M74.57,-743.05C91.64,-675.99 150.69,-444 150.69,-444 150.69,-444 566.19,-122 566.19,-122 566.19,-122 566.19,-122 1526.19,-122 1526.19,-122 2054.69,-260 2054.69,-260 2054.69,-260 2273.69,-324 2273.69,-324 2273.69,-324 2359.33,-365.55 2414.23,-392.18"/>
<polygon fill="black" stroke="black" points="2412.9,-395.43 2423.43,-396.65 2415.96,-389.13 2412.9,-395.43"/>
<text text-anchor="start" x="1170.69" y="-125.8" font-family="Times,serif" font-size="14.00">VALIDATE_1.2</text>
</g>
<!-- in_transit_to_house -->
<g id="node7" class="node">
<title>in_transit_to_house</title>
<ellipse fill="none" stroke="black" cx="1883.19" cy="-729" rx="126.98" ry="18"/>
<text text-anchor="middle" x="1883.19" y="-725.3" font-family="Times,serif" font-size="14.00">IN_TRANSIT_TO_HOUSE</text>
</g>
<!-- on_shelf&#45;&gt;in_transit_to_house -->
<g id="edge29" class="edge">
<title>on_shelf&#45;&gt;in_transit_to_house</title>
<path fill="none" stroke="red" d="M88.31,-778.47C112.12,-801.19 150.69,-838 150.69,-838 150.69,-838 401.69,-877 401.69,-877 401.69,-877 732.69,-877 732.69,-877 732.69,-877 1693.69,-875 1693.69,-875 1693.69,-875 1797.36,-794.71 1850.94,-753.21"/>
<polygon fill="red" stroke="red" points="1853.32,-755.79 1859.08,-746.9 1849.03,-750.26 1853.32,-755.79"/>
<text text-anchor="start" x="861.69" y="-909.8" font-family="Times,serif" font-size="14.00">CHECKIN_1.1.2</text>
<text text-anchor="start" x="850.69" y="-894.8" font-family="Times,serif" font-size="14.00">(游뛂游닄,游늽游!=游쓇릞)</text>
<text text-anchor="start" x="825.19" y="-879.8" font-family="Times,serif" font-size="14.00">TODO: FIND A SOLUTION</text>
</g>
<!-- item_at_desk&#45;&gt;pending -->
<g id="edge5" class="edge">
<title>item_at_desk&#45;&gt;pending</title>
<path fill="none" stroke="black" d="M585.04,-546.81C630.22,-594.59 750.69,-722 750.69,-722 750.69,-722 1087.69,-872 1087.69,-872 1087.69,-872 1356.69,-1096 1356.69,-1096 1356.69,-1096 2072.69,-1128 2072.69,-1128 2072.69,-1128 2273.69,-1128 2273.69,-1128 2273.69,-1128 2788.69,-1103 2788.69,-1103 2788.69,-1103 2795.65,-1101.61 2805.33,-1099.67"/>
<polygon fill="black" stroke="black" points="2806.18,-1103.07 2815.29,-1097.67 2804.8,-1096.2 2806.18,-1103.07"/>
<text text-anchor="start" x="1812.19" y="-1145.8" font-family="Times,serif" font-size="14.00">ADD_REQUEST_2.2</text>
<text text-anchor="start" x="1860.19" y="-1130.8" font-family="Times,serif" font-size="14.00">(游뛂游논)</text>
</g>
<!-- item_at_desk&#45;&gt;denied -->
<g id="edge4" class="edge">
<title>item_at_desk&#45;&gt;denied</title>
<path fill="none" stroke="black" d="M586.36,-511.38C632.52,-466.61 750.69,-352 750.69,-352 750.69,-352 1105.69,-329 1105.69,-329 1105.69,-329 1711.69,-298 1711.69,-298 1711.69,-298 2054.69,-298 2054.69,-298 2054.69,-298 2788.69,-395 2788.69,-395 2788.69,-395 2829.14,-478.76 2850.57,-523.14"/>
<polygon fill="black" stroke="black" points="2847.45,-524.74 2854.95,-532.22 2853.76,-521.69 2847.45,-524.74"/>
<text text-anchor="start" x="1812.19" y="-316.8" font-family="Times,serif" font-size="14.00">ADD_REQUEST_2.1</text>
<text text-anchor="start" x="1869.19" y="-301.8" font-family="Times,serif" font-size="14.00">(游논)</text>
</g>
<!-- item_at_desk&#45;&gt;denied -->
<g id="edge20" class="edge">
<title>item_at_desk&#45;&gt;denied</title>
<path fill="none" stroke="black" d="M584.39,-511.07C629.05,-461.64 750.69,-327 750.69,-327 750.69,-327 1711.69,-264 1711.69,-264 1711.69,-264 2054.69,-264 2054.69,-264 2054.69,-264 2628.69,-326 2628.69,-326 2628.69,-326 2788.69,-372 2788.69,-372 2788.69,-372 2831.08,-472.81 2852.06,-522.7"/>
<polygon fill="black" stroke="black" points="2848.85,-524.09 2855.95,-531.95 2855.3,-521.38 2848.85,-524.09"/>
<text text-anchor="start" x="1825.69" y="-282.8" font-family="Times,serif" font-size="14.00">CHECKOUT_2.2</text>
<text text-anchor="start" x="1711.69" y="-267.8" font-family="Times,serif" font-size="14.00">(checkout patron != patron of 1st pending loan)</text>
</g>
<!-- item_at_desk&#45;&gt;denied -->
<g id="edge50" class="edge">
<title>item_at_desk&#45;&gt;denied</title>
<path fill="none" stroke="black" d="M650.43,-526.55C912.63,-518.76 1711.69,-495 1711.69,-495 1711.69,-495 2054.69,-495 2054.69,-495 2054.69,-495 2619.02,-533.37 2804.93,-546.01"/>
<polygon fill="black" stroke="black" points="2804.85,-549.52 2815.06,-546.7 2805.33,-542.53 2804.85,-549.52"/>
<text text-anchor="start" x="1838.69" y="-498.8" font-family="Times,serif" font-size="14.00">VALIDATE_2</text>
</g>
<!-- item_at_desk&#45;&gt;item_at_desk -->
<g id="edge32" class="edge">
<title>item_at_desk&#45;&gt;item_at_desk</title>
<path fill="none" stroke="black" d="M517.29,-543.6C500.46,-554.29 517.1,-565 567.19,-565 604.77,-565 623.52,-558.98 623.44,-551.46"/>
<polygon fill="black" stroke="black" points="626.11,-549.18 617.1,-543.6 620.66,-553.58 626.11,-549.18"/>
<text text-anchor="start" x="516.69" y="-583.8" font-family="Times,serif" font-size="14.00">CHECKIN_2.1</text>
<text text-anchor="start" x="452.69" y="-568.8" font-family="Times,serif" font-size="14.00">(游뚴游뛀=游쓇릞)TODO: NO ACTION</text>
</g>
<!-- item_at_desk&#45;&gt;item_on_loan -->
<g id="edge19" class="edge">
<title>item_at_desk&#45;&gt;item_on_loan</title>
<path fill="none" stroke="black" d="M610.06,-544.6C663.94,-564.68 750.69,-597 750.69,-597 750.69,-597 1087.69,-620 1087.69,-620 1087.69,-620 1163.14,-714.37 1200.6,-761.23"/>
<polygon fill="black" stroke="black" points="1197.93,-763.5 1206.91,-769.13 1203.4,-759.13 1197.93,-763.5"/>
<text text-anchor="start" x="861.69" y="-638.8" font-family="Times,serif" font-size="14.00">CHECKOUT_2.1</text>
<text text-anchor="start" x="750.69" y="-623.8" font-family="Times,serif" font-size="14.00">(checkout patron = patron of 1st pending loan)</text>
</g>
<!-- item_at_desk&#45;&gt;in_transit_for_pickup -->
<g id="edge33" class="edge">
<title>item_at_desk&#45;&gt;in_transit_for_pickup</title>
<path fill="none" stroke="red" d="M590.21,-511.51C638.75,-472.94 750.69,-384 750.69,-384 750.69,-384 1356.69,-331 1356.69,-331 1356.69,-331 1693.69,-331 1693.69,-331 1693.69,-331 2273.69,-354 2273.69,-354 2273.69,-354 2343.95,-376.72 2397.98,-394.2"/>
<polygon fill="red" stroke="red" points="2396.93,-397.54 2407.52,-397.29 2399.08,-390.88 2396.93,-397.54"/>
<text text-anchor="start" x="1474.69" y="-364.8" font-family="Times,serif" font-size="14.00">CHECKIN_2.2</text>
<text text-anchor="start" x="1476.19" y="-349.8" font-family="Times,serif" font-size="14.00">(游뚴游뛀!=游쓇릞)</text>
<text text-anchor="start" x="1431.19" y="-334.8" font-family="Times,serif" font-size="14.00">TODO: FIND A SOLUTION</text>
</g>
<!-- item_on_loan&#45;&gt;on_shelf -->
<g id="edge34" class="edge">
<title>item_on_loan&#45;&gt;on_shelf</title>
<path fill="none" stroke="black" d="M1145.09,-778.45C1115.1,-775.08 1087.69,-772 1087.69,-772 1087.69,-772 732.69,-734 732.69,-734 732.69,-734 401.69,-734 401.69,-734 401.69,-734 237.92,-747.33 140.53,-755.26"/>
<polygon fill="black" stroke="black" points="140.14,-751.78 130.45,-756.08 140.7,-758.76 140.14,-751.78"/>
<text text-anchor="start" x="509.69" y="-752.8" font-family="Times,serif" font-size="14.00">CHECKIN_3.1.1</text>
<text text-anchor="start" x="501.69" y="-737.8" font-family="Times,serif" font-size="14.00">(游뛂游닄,游늽游뛀=游쓇릞)</text>
</g>
<!-- item_on_loan&#45;&gt;pending -->
<g id="edge7" class="edge">
<title>item_on_loan&#45;&gt;pending</title>
<path fill="none" stroke="black" d="M1231.55,-805.14C1260.77,-868.63 1356.69,-1077 1356.69,-1077 1356.69,-1077 1711.69,-1089 1711.69,-1089 1711.69,-1089 2072.69,-1094 2072.69,-1094 2072.69,-1094 2273.69,-1094 2273.69,-1094 2273.69,-1094 2641.77,-1090.26 2796.4,-1088.68"/>
<polygon fill="black" stroke="black" points="2796.75,-1092.18 2806.71,-1088.58 2796.68,-1085.18 2796.75,-1092.18"/>
<text text-anchor="start" x="2095.19" y="-1112.8" font-family="Times,serif" font-size="14.00">ADD_REQUEST_3.2.1</text>
<text text-anchor="start" x="2130.69" y="-1097.8" font-family="Times,serif" font-size="14.00">(游뛂游논,游뛂游닄)</text>
</g>
<!-- item_on_loan&#45;&gt;pending -->
<g id="edge9" class="edge">
<title>item_on_loan&#45;&gt;pending</title>
<path fill="none" stroke="black" d="M1232.37,-805.01C1262.53,-864.2 1356.69,-1049 1356.69,-1049 1356.69,-1049 1711.69,-1056 1711.69,-1056 1711.69,-1056 2273.69,-1060 2273.69,-1060 2273.69,-1060 2642.66,-1077.52 2796.96,-1084.84"/>
<polygon fill="black" stroke="black" points="2797.09,-1088.35 2807.25,-1085.33 2797.43,-1081.36 2797.09,-1088.35"/>
<text text-anchor="start" x="2088.69" y="-1078.8" font-family="Times,serif" font-size="14.00">ADD_REQUEST_3.2.2.2</text>
<text text-anchor="start" x="2085.69" y="-1063.8" font-family="Times,serif" font-size="14.00">(游뛂游논,游닄,[游뛂游논pending])</text>
</g>
<!-- item_on_loan&#45;&gt;denied -->
<g id="edge6" class="edge">
<title>item_on_loan&#45;&gt;denied</title>
<path fill="none" stroke="black" d="M1239.83,-769.3C1275.62,-731.24 1356.69,-645 1356.69,-645 1356.69,-645 2054.69,-600 2054.69,-600 2054.69,-600 2072.69,-588 2072.69,-588 2072.69,-588 2621.3,-561.64 2804.66,-552.83"/>
<polygon fill="black" stroke="black" points="2804.84,-556.32 2814.67,-552.35 2804.51,-549.33 2804.84,-556.32"/>
<text text-anchor="start" x="2102.19" y="-606.8" font-family="Times,serif" font-size="14.00">ADD_REQUEST_3.1</text>
<text text-anchor="start" x="2159.19" y="-591.8" font-family="Times,serif" font-size="14.00">(游논)</text>
</g>
<!-- item_on_loan&#45;&gt;denied -->
<g id="edge8" class="edge">
<title>item_on_loan&#45;&gt;denied</title>
<path fill="none" stroke="black" d="M1236.24,-804.78C1269.83,-850.58 1356.69,-969 1356.69,-969 1356.69,-969 2291.69,-996 2291.69,-996 2291.69,-996 2788.69,-996 2788.69,-996 2788.69,-996 2842.41,-675.92 2858.83,-578.07"/>
<polygon fill="black" stroke="black" points="2862.31,-578.48 2860.51,-568.04 2855.41,-577.32 2862.31,-578.48"/>
<text text-anchor="start" x="2088.69" y="-1013.8" font-family="Times,serif" font-size="14.00">ADD_REQUEST_3.2.2.1</text>
<text text-anchor="start" x="2094.69" y="-998.8" font-family="Times,serif" font-size="14.00">(游뛂游논,游닄,[游논pending])</text>
</g>
<!-- item_on_loan&#45;&gt;denied -->
<g id="edge22" class="edge">
<title>item_on_loan&#45;&gt;denied</title>
<path fill="none" stroke="black" d="M1240.65,-804.65C1276.83,-841.24 1356.69,-922 1356.69,-922 1356.69,-922 2273.69,-955 2273.69,-955 2273.69,-955 2291.69,-968 2291.69,-968 2291.69,-968 2628.69,-968 2628.69,-968 2628.69,-968 2788.69,-826 2788.69,-826 2788.69,-826 2836.9,-648.23 2855.94,-578.03"/>
<polygon fill="black" stroke="black" points="2859.39,-578.68 2858.63,-568.11 2852.63,-576.84 2859.39,-578.68"/>
<text text-anchor="start" x="2115.69" y="-973.8" font-family="Times,serif" font-size="14.00">CHECKOUT_3.2</text>
<text text-anchor="start" x="2150.19" y="-958.8" font-family="Times,serif" font-size="14.00">(游뛂游논)</text>
</g>
<!-- item_on_loan&#45;&gt;denied -->
<g id="edge51" class="edge">
<title>item_on_loan&#45;&gt;denied</title>
<path fill="none" stroke="black" d="M1249.25,-804.18C1288.1,-829.79 1356.69,-875 1356.69,-875 1356.69,-875 1693.69,-875 1693.69,-875 1693.69,-875 2054.69,-867 2054.69,-867 2054.69,-867 2788.69,-798 2788.69,-798 2788.69,-798 2835.6,-642.58 2855.14,-577.81"/>
<polygon fill="black" stroke="black" points="2858.5,-578.82 2858.04,-568.24 2851.8,-576.8 2858.5,-578.82"/>
<text text-anchor="start" x="2128.69" y="-868.8" font-family="Times,serif" font-size="14.00">VALIDATE_3</text>
</g>
<!-- item_on_loan&#45;&gt;item_at_desk -->
<g id="edge36" class="edge">
<title>item_on_loan&#45;&gt;item_at_desk</title>
<path fill="none" stroke="black" d="M1200.63,-769.44C1163.18,-737.46 1087.69,-673 1087.69,-673 1087.69,-673 750.69,-650 750.69,-650 750.69,-650 655.19,-586.68 602.36,-551.65"/>
<polygon fill="black" stroke="black" points="604.22,-548.69 593.96,-546.08 600.36,-554.52 604.22,-548.69"/>
<text text-anchor="start" x="861.69" y="-706.8" font-family="Times,serif" font-size="14.00">CHECKIN_3.2.1</text>
<text text-anchor="start" x="905.19" y="-691.8" font-family="Times,serif" font-size="14.00">(游닄,</text>
<text text-anchor="start" x="813.69" y="-676.8" font-family="Times,serif" font-size="14.00">1st pending loan 游뚴游뛀=游쓇릞)</text>
</g>
<!-- item_on_loan&#45;&gt;in_transit_for_pickup -->
<g id="edge38" class="edge">
<title>item_on_loan&#45;&gt;in_transit_for_pickup</title>
<path fill="none" stroke="black" d="M1236,-769.16C1266.07,-727.24 1338.69,-626 1338.69,-626 1338.69,-626 1356.69,-560 1356.69,-560 1356.69,-560 2054.69,-514 2054.69,-514 2054.69,-514 2268.4,-461.17 2385.15,-432.31"/>
<polygon fill="black" stroke="black" points="2386.23,-435.64 2395.1,-429.85 2384.55,-428.85 2386.23,-435.64"/>
<text text-anchor="start" x="1819.19" y="-584.8" font-family="Times,serif" font-size="14.00">CHECKIN_3.2.2.1</text>
<text text-anchor="start" x="1869.19" y="-569.8" font-family="Times,serif" font-size="14.00">(游닄,</text>
<text text-anchor="start" x="1777.69" y="-554.8" font-family="Times,serif" font-size="14.00">1st pending loan 游뚴游뛀!=游쓇릞</text>
<text text-anchor="start" x="1774.69" y="-539.8" font-family="Times,serif" font-size="14.00">1st pending loan 游뚴游뛀!=游늽游)</text>
</g>
<!-- item_on_loan&#45;&gt;in_transit_to_house -->
<g id="edge35" class="edge">
<title>item_on_loan&#45;&gt;in_transit_to_house</title>
<path fill="none" stroke="black" d="M1262.89,-803.06C1302.24,-818.97 1356.69,-841 1356.69,-841 1356.69,-841 1693.69,-841 1693.69,-841 1693.69,-841 1788.84,-784.47 1843.94,-751.73"/>
<polygon fill="black" stroke="black" points="1845.93,-754.62 1852.74,-746.5 1842.36,-748.6 1845.93,-754.62"/>
<text text-anchor="start" x="1467.69" y="-859.8" font-family="Times,serif" font-size="14.00">CHECKIN_3.1.2</text>
<text text-anchor="start" x="1456.69" y="-844.8" font-family="Times,serif" font-size="14.00">(游뛂游닄,游늽游뛀!=游쓇릞)</text>
</g>
<!-- item_on_loan&#45;&gt;in_transit_to_house -->
<g id="edge37" class="edge">
<title>item_on_loan&#45;&gt;in_transit_to_house</title>
<path fill="none" stroke="black" d="M1304.31,-780.92C1332.27,-778.83 1356.69,-777 1356.69,-777 1356.69,-777 1693.69,-758 1693.69,-758 1693.69,-758 1739.89,-750.89 1786.55,-743.71"/>
<polygon fill="black" stroke="black" points="1787.14,-747.16 1796.49,-742.18 1786.08,-740.25 1787.14,-747.16"/>
<text text-anchor="start" x="1461.19" y="-825.8" font-family="Times,serif" font-size="14.00">CHECKIN_3.2.2.1</text>
<text text-anchor="start" x="1511.19" y="-810.8" font-family="Times,serif" font-size="14.00">(游닄,</text>
<text text-anchor="start" x="1419.69" y="-795.8" font-family="Times,serif" font-size="14.00">1st pending loan 游뚴游뛀!=游쓇릞</text>
<text text-anchor="start" x="1419.69" y="-780.8" font-family="Times,serif" font-size="14.00">1st pending loan 游뚴游뛀=游늽游)</text>
</g>
<!-- do_checkin -->
<g id="node8" class="node">
<title>do_checkin</title>
<ellipse fill="none" stroke="black" cx="1883.19" cy="-1029" rx="87.18" ry="18"/>
<text text-anchor="middle" x="1883.19" y="-1025.3" font-family="Times,serif" font-size="14.00">DO_A_CHECKIN</text>
</g>
<!-- item_on_loan&#45;&gt;do_checkin -->
<g id="edge21" class="edge">
<title>item_on_loan&#45;&gt;do_checkin</title>
<path fill="none" stroke="black" d="M1234.58,-804.82C1266.86,-855.36 1356.69,-996 1356.69,-996 1356.69,-996 1638.42,-1013.69 1789.32,-1023.17"/>
<polygon fill="black" stroke="black" points="1789.31,-1026.67 1799.51,-1023.81 1789.75,-1019.69 1789.31,-1026.67"/>
<text text-anchor="start" x="1467.69" y="-1034.8" font-family="Times,serif" font-size="14.00">CHECKOUT_3.1</text>
<text text-anchor="start" x="1511.19" y="-1019.8" font-family="Times,serif" font-size="14.00">(游논)</text>
</g>
<!-- in_transit_for_pickup&#45;&gt;pending -->
<g id="edge11" class="edge">
<title>in_transit_for_pickup&#45;&gt;pending</title>
<path fill="none" stroke="black" d="M2477.56,-432.17C2519.71,-478.98 2628.69,-600 2628.69,-600 2628.69,-600 2788.69,-814 2788.69,-814 2788.69,-814 2836.9,-990.48 2855.94,-1060.17"/>
<polygon fill="black" stroke="black" points="2852.62,-1061.3 2858.63,-1070.02 2859.37,-1059.45 2852.62,-1061.3"/>
<text text-anchor="start" x="2646.69" y="-832.8" font-family="Times,serif" font-size="14.00">ADD_REQUEST_4.2</text>
<text text-anchor="start" x="2694.69" y="-817.8" font-family="Times,serif" font-size="14.00">(游뛂游논)</text>
</g>
<!-- in_transit_for_pickup&#45;&gt;denied -->
<g id="edge10" class="edge">
<title>in_transit_for_pickup&#45;&gt;denied</title>
<path fill="none" stroke="black" d="M2529.48,-429.46C2582.37,-441.44 2646.69,-456 2646.69,-456 2646.69,-456 2788.69,-479 2788.69,-479 2788.69,-479 2816.68,-505.55 2838.43,-526.18"/>
<polygon fill="black" stroke="black" points="2836.14,-528.83 2845.8,-533.17 2840.96,-523.75 2836.14,-528.83"/>
<text text-anchor="start" x="2646.69" y="-497.8" font-family="Times,serif" font-size="14.00">ADD_REQUEST_4.1</text>
<text text-anchor="start" x="2703.69" y="-482.8" font-family="Times,serif" font-size="14.00">(游논)</text>
</g>
<!-- in_transit_for_pickup&#45;&gt;denied -->
<g id="edge24" class="edge">
<title>in_transit_for_pickup&#45;&gt;denied</title>
<path fill="none" stroke="black" d="M2593.46,-417.23C2684.35,-419.45 2788.69,-422 2788.69,-422 2788.69,-422 2825.98,-485.77 2847.92,-523.28"/>
<polygon fill="black" stroke="black" points="2845.06,-525.34 2853.13,-532.2 2851.11,-521.8 2845.06,-525.34"/>
<text text-anchor="start" x="2660.19" y="-440.8" font-family="Times,serif" font-size="14.00">CHECKOUT_4.2</text>
<text text-anchor="start" x="2694.69" y="-425.8" font-family="Times,serif" font-size="14.00">(游뛂游논)</text>
</g>
<!-- in_transit_for_pickup&#45;&gt;denied -->
<g id="edge52" class="edge">
<title>in_transit_for_pickup&#45;&gt;denied</title>
<path fill="none" stroke="black" d="M2576.04,-404.71C2613.98,-401.65 2646.69,-399 2646.69,-399 2646.69,-399 2788.69,-399 2788.69,-399 2788.69,-399 2828.57,-479.46 2850.11,-522.91"/>
<polygon fill="black" stroke="black" points="2847.08,-524.68 2854.66,-532.09 2853.35,-521.57 2847.08,-524.68"/>
<text text-anchor="start" x="2673.19" y="-402.8" font-family="Times,serif" font-size="14.00">VALIDATE_4</text>
</g>
<!-- in_transit_for_pickup&#45;&gt;item_at_desk -->
<g id="edge39" class="edge">
<title>in_transit_for_pickup&#45;&gt;item_at_desk</title>
<path fill="none" stroke="black" d="M2324.87,-413.28C2295.86,-413.12 2273.69,-413 2273.69,-413 2273.69,-413 2072.69,-413 2072.69,-413 2072.69,-413 1711.69,-417 1711.69,-417 1711.69,-417 1356.69,-427 1356.69,-427 1356.69,-427 750.69,-457 750.69,-457 750.69,-457 671.73,-488.15 617.69,-509.47"/>
<polygon fill="black" stroke="black" points="616.26,-506.27 608.24,-513.2 618.83,-512.79 616.26,-506.27"/>
<text text-anchor="start" x="1474.69" y="-445.8" font-family="Times,serif" font-size="14.00">CHECKIN_4.1</text>
<text text-anchor="start" x="1479.19" y="-430.8" font-family="Times,serif" font-size="14.00">(游뚴游뛀=游쓇릞)</text>
</g>
<!-- in_transit_for_pickup&#45;&gt;item_on_loan -->
<g id="edge23" class="edge">
<title>in_transit_for_pickup&#45;&gt;item_on_loan</title>
<path fill="none" stroke="black" d="M2325.99,-416.49C2111.08,-420.52 1711.69,-428 1711.69,-428 1711.69,-428 1356.69,-535 1356.69,-535 1356.69,-535 1338.69,-626 1338.69,-626 1338.69,-626 1274.6,-715.35 1241.9,-760.92"/>
<polygon fill="black" stroke="black" points="1238.98,-758.99 1236,-769.16 1244.67,-763.07 1238.98,-758.99"/>
<text text-anchor="start" x="1825.69" y="-461.8" font-family="Times,serif" font-size="14.00">CHECKOUT_4.1</text>
<text text-anchor="start" x="1869.19" y="-446.8" font-family="Times,serif" font-size="14.00">(游논)</text>
<text text-anchor="start" x="1793.19" y="-431.8" font-family="Times,serif" font-size="14.00">TODO: automatic receive</text>
</g>
<!-- in_transit_for_pickup&#45;&gt;in_transit_for_pickup -->
<g id="edge40" class="edge">
<title>in_transit_for_pickup&#45;&gt;in_transit_for_pickup</title>
<path fill="none" stroke="black" d="M2414.83,-431.04C2405.57,-440.86 2420.69,-450 2460.19,-450 2484.88,-450 2500.05,-446.43 2505.69,-441.35"/>
<polygon fill="black" stroke="black" points="2509.18,-440.99 2505.56,-431.04 2502.18,-441.08 2509.18,-440.99"/>
<text text-anchor="start" x="2409.69" y="-483.8" font-family="Times,serif" font-size="14.00">CHECKIN_4.2</text>
<text text-anchor="start" x="2411.19" y="-468.8" font-family="Times,serif" font-size="14.00">(游뚴游뛀!=游쓇릞)</text>
<text text-anchor="start" x="2293.19" y="-453.8" font-family="Times,serif" font-size="14.00">TODO: NO ACTION.track intermediary checkin</text>
</g>
<!-- in_transit_to_house&#45;&gt;on_shelf -->
<g id="edge41" class="edge">
<title>in_transit_to_house&#45;&gt;on_shelf</title>
<path fill="none" stroke="black" d="M1870.74,-747.34C1832.51,-808.55 1711.69,-1002 1711.69,-1002 1711.69,-1002 1693.69,-1050 1693.69,-1050 1693.69,-1050 1356.69,-1050 1356.69,-1050 1356.69,-1050 150.69,-870 150.69,-870 150.69,-870 113.24,-819.4 89.36,-787.16"/>
<polygon fill="black" stroke="black" points="92.09,-784.95 83.33,-779 86.46,-789.12 92.09,-784.95"/>
<text text-anchor="start" x="861.69" y="-1027.8" font-family="Times,serif" font-size="14.00">CHECKIN_5.1.1</text>
<text text-anchor="start" x="853.69" y="-1012.8" font-family="Times,serif" font-size="14.00">(游뛂游닄,游늽游뛀=游쓇릞)</text>
</g>
<!-- in_transit_to_house&#45;&gt;pending -->
<g id="edge12" class="edge">
<title>in_transit_to_house&#45;&gt;pending</title>
<path fill="none" stroke="black" d="M1907.69,-746.82C1958.22,-785.16 2072.69,-872 2072.69,-872 2072.69,-872 2788.69,-1059 2788.69,-1059 2788.69,-1059 2802.39,-1064.31 2818.06,-1070.38"/>
<polygon fill="black" stroke="black" points="2816.84,-1073.66 2827.43,-1074.01 2819.37,-1067.13 2816.84,-1073.66"/>
<text text-anchor="start" x="2382.19" y="-1033.8" font-family="Times,serif" font-size="14.00">ADD_REQUEST_5.1.1</text>
<text text-anchor="start" x="2394.69" y="-1018.8" font-family="Times,serif" font-size="14.00">(游뛂游닄,游뚴游=游늽游)</text>
</g>
<!-- in_transit_to_house&#45;&gt;pending -->
<g id="edge15" class="edge">
<title>in_transit_to_house&#45;&gt;pending</title>
<path fill="none" stroke="black" d="M1914.48,-746.67C1967.76,-777.77 2072.69,-839 2072.69,-839 2072.69,-839 2628.69,-897 2628.69,-897 2628.69,-897 2788.69,-1019 2788.69,-1019 2788.69,-1019 2816.04,-1044.21 2837.68,-1064.16"/>
<polygon fill="black" stroke="black" points="2835.31,-1066.74 2845.04,-1070.94 2840.06,-1061.59 2835.31,-1066.74"/>
<text text-anchor="start" x="2382.19" y="-915.8" font-family="Times,serif" font-size="14.00">ADD_REQUEST_5.2.2</text>
<text text-anchor="start" x="2426.69" y="-900.8" font-family="Times,serif" font-size="14.00">(游닄,游뛂游논)</text>
</g>
<!-- in_transit_to_house&#45;&gt;denied -->
<g id="edge14" class="edge">
<title>in_transit_to_house&#45;&gt;denied</title>
<path fill="none" stroke="black" d="M2000.62,-735.79C2039.3,-738.05 2072.69,-740 2072.69,-740 2072.69,-740 2273.69,-740 2273.69,-740 2273.69,-740 2628.69,-722 2628.69,-722 2628.69,-722 2788.69,-687 2788.69,-687 2788.69,-687 2827.26,-616.4 2849.03,-576.57"/>
<polygon fill="black" stroke="black" points="2852.18,-578.08 2853.91,-567.63 2846.04,-574.73 2852.18,-578.08"/>
<text text-anchor="start" x="2382.19" y="-756.8" font-family="Times,serif" font-size="14.00">ADD_REQUEST_5.2.1</text>
<text text-anchor="start" x="2435.19" y="-741.8" font-family="Times,serif" font-size="14.00">(游닄,游논)</text>
</g>
<!-- in_transit_to_house&#45;&gt;denied -->
<g id="edge27" class="edge">
<title>in_transit_to_house&#45;&gt;denied</title>
<path fill="none" stroke="black" d="M2006.37,-724.61C2120.59,-720.5 2273.69,-715 2273.69,-715 2273.69,-715 2291.69,-673 2291.69,-673 2291.69,-673 2788.69,-636 2788.69,-636 2788.69,-636 2819.5,-600.61 2841.58,-575.23"/>
<polygon fill="black" stroke="black" points="2844.47,-577.24 2848.39,-567.4 2839.19,-572.65 2844.47,-577.24"/>
<text text-anchor="start" x="2395.69" y="-706.8" font-family="Times,serif" font-size="14.00">CHECKOUT_5.2.2</text>
<text text-anchor="start" x="2446.19" y="-691.8" font-family="Times,serif" font-size="14.00">(游닄,</text>
<text text-anchor="start" x="2291.69" y="-676.8" font-family="Times,serif" font-size="14.00">checkout patron != patron of 1st pending loan)</text>
</g>
<!-- in_transit_to_house&#45;&gt;denied -->
<g id="edge53" class="edge">
<title>in_transit_to_house&#45;&gt;denied</title>
<path fill="none" stroke="black" d="M1987.3,-718.68C2102.69,-707.12 2273.69,-690 2273.69,-690 2273.69,-690 2291.69,-629 2291.69,-629 2291.69,-629 2788.69,-590 2788.69,-590 2788.69,-590 2807.84,-579.77 2826.77,-569.65"/>
<polygon fill="black" stroke="black" points="2828.5,-572.69 2835.67,-564.89 2825.2,-566.52 2828.5,-572.69"/>
<text text-anchor="start" x="2415.69" y="-632.8" font-family="Times,serif" font-size="14.00">VALIDATE_5</text>
</g>
<!-- in_transit_to_house&#45;&gt;item_at_desk -->
<g id="edge43" class="edge">
<title>in_transit_to_house&#45;&gt;item_at_desk</title>
<path fill="none" stroke="black" d="M1843.59,-711.8C1788.45,-687.22 1693.69,-645 1693.69,-645 1693.69,-645 916.13,-564.86 653.59,-537.8"/>
<polygon fill="black" stroke="black" points="653.66,-534.29 643.35,-536.75 652.94,-541.25 653.66,-534.29"/>
<text text-anchor="start" x="1158.19" y="-610.8" font-family="Times,serif" font-size="14.00">CHECKIN_5.2.1.1</text>
</g>
<!-- in_transit_to_house&#45;&gt;item_at_desk -->
<g id="edge44" class="edge">
<title>in_transit_to_house&#45;&gt;item_at_desk</title>
<path fill="none" stroke="black" d="M1854.78,-711.26C1802.5,-677.42 1693.69,-607 1693.69,-607 1693.69,-607 1338.69,-566 1338.69,-566 1338.69,-566 1087.69,-543 1087.69,-543 1087.69,-543 809.91,-535.51 660.59,-531.49"/>
<polygon fill="black" stroke="black" points="660.6,-527.99 650.51,-531.22 660.41,-534.99 660.6,-527.99"/>
<text text-anchor="start" x="1158.19" y="-569.8" font-family="Times,serif" font-size="14.00">CHECKIN_5.2.1.2</text>
</g>
<!-- in_transit_to_house&#45;&gt;item_on_loan -->
<g id="edge25" class="edge">
<title>in_transit_to_house&#45;&gt;item_on_loan</title>
<path fill="none" stroke="black" d="M1773.91,-719.81C1731.9,-716.24 1693.69,-713 1693.69,-713 1693.69,-713 1356.69,-713 1356.69,-713 1356.69,-713 1302.31,-743.15 1262.96,-764.96"/>
<polygon fill="black" stroke="black" points="1260.87,-762.11 1253.82,-770.02 1264.27,-768.24 1260.87,-762.11"/>
<text text-anchor="start" x="1467.69" y="-746.8" font-family="Times,serif" font-size="14.00">CHECKOUT_5.1</text>
<text text-anchor="start" x="1502.19" y="-731.8" font-family="Times,serif" font-size="14.00">(游뛂游닄)</text>
<text text-anchor="start" x="1426.19" y="-716.8" font-family="Times,serif" font-size="14.00">TODO: cancel previous loan</text>
</g>
<!-- in_transit_to_house&#45;&gt;item_on_loan -->
<g id="edge26" class="edge">
<title>in_transit_to_house&#45;&gt;item_on_loan</title>
<path fill="none" stroke="black" d="M1841.76,-711.84C1786.37,-688.33 1693.69,-649 1693.69,-649 1693.69,-649 1356.69,-649 1356.69,-649 1356.69,-649 1286.15,-721.92 1247.62,-761.75"/>
<polygon fill="black" stroke="black" points="1244.81,-759.62 1240.37,-769.24 1249.84,-764.49 1244.81,-759.62"/>
<text text-anchor="start" x="1460.69" y="-697.8" font-family="Times,serif" font-size="14.00">CHECKOUT_5.2.1</text>
<text text-anchor="start" x="1511.19" y="-682.8" font-family="Times,serif" font-size="14.00">(游닄,</text>
<text text-anchor="start" x="1359.69" y="-667.8" font-family="Times,serif" font-size="14.00">checkout patron = patron of 1st pending loan)</text>
<text text-anchor="start" x="1426.19" y="-652.8" font-family="Times,serif" font-size="14.00">TODO: cancel previous loan</text>
</g>
<!-- in_transit_to_house&#45;&gt;in_transit_for_pickup -->
<g id="edge13" class="edge">
<title>in_transit_to_house&#45;&gt;in_transit_for_pickup</title>
<path fill="none" stroke="black" d="M1922.8,-711.8C1977.94,-687.22 2072.69,-645 2072.69,-645 2072.69,-645 2273.69,-622 2273.69,-622 2273.69,-622 2291.69,-600 2291.69,-600 2291.69,-600 2389.89,-490.96 2435.91,-439.85"/>
<polygon fill="black" stroke="black" points="2438.74,-441.95 2442.83,-432.17 2433.54,-437.26 2438.74,-441.95"/>
<text text-anchor="start" x="2095.19" y="-678.8" font-family="Times,serif" font-size="14.00">ADD_REQUEST_5.1.2</text>
<text text-anchor="start" x="2104.69" y="-663.8" font-family="Times,serif" font-size="14.00">(游뛂游닄,游뚴游!=游늽游)</text>
<text text-anchor="start" x="2072.69" y="-648.8" font-family="Times,serif" font-size="14.00">TODO: Cancel previous loan</text>
</g>
<!-- in_transit_to_house&#45;&gt;in_transit_for_pickup -->
<g id="edge46" class="edge">
<title>in_transit_to_house&#45;&gt;in_transit_for_pickup</title>
<path fill="none" stroke="black" d="M1909.72,-711.18C1957.28,-677.99 2054.69,-610 2054.69,-610 2054.69,-610 2072.69,-554 2072.69,-554 2072.69,-554 2273.69,-531 2273.69,-531 2273.69,-531 2368.3,-471.33 2422.39,-437.21"/>
<polygon fill="black" stroke="black" points="2424.43,-440.06 2431.02,-431.77 2420.7,-434.14 2424.43,-440.06"/>
<text text-anchor="start" x="2109.19" y="-557.8" font-family="Times,serif" font-size="14.00">CHECKIN_5.2.2.2</text>
</g>
<!-- in_transit_to_house&#45;&gt;in_transit_to_house -->
<g id="edge42" class="edge">
<title>in_transit_to_house&#45;&gt;in_transit_to_house</title>
<path fill="none" stroke="black" d="M1857.13,-746.78C1852.7,-756.31 1861.39,-765 1883.19,-765 1896.48,-765 1904.9,-761.77 1908.45,-757.1"/>
<polygon fill="black" stroke="black" points="1911.96,-757.03 1909.26,-746.78 1904.98,-756.48 1911.96,-757.03"/>
<text text-anchor="start" x="1825.69" y="-798.8" font-family="Times,serif" font-size="14.00">CHECKIN_5.1.2</text>
<text text-anchor="start" x="1814.69" y="-783.8" font-family="Times,serif" font-size="14.00">(游뛂游닄,游늽游뛀!=游쓇릞)</text>
<text text-anchor="start" x="1716.19" y="-768.8" font-family="Times,serif" font-size="14.00">TODO: NO ACTION.track intermediary checkin</text>
</g>
<!-- in_transit_to_house&#45;&gt;in_transit_to_house -->
<g id="edge45" class="edge">
<title>in_transit_to_house&#45;&gt;in_transit_to_house</title>
<path fill="none" stroke="black" d="M1845.55,-746.52C1814.29,-771.93 1826.84,-810 1883.19,-810 1934.49,-810 1949.49,-778.46 1928.2,-753.64"/>
<polygon fill="black" stroke="black" points="1930.46,-750.96 1920.84,-746.52 1925.6,-755.99 1930.46,-750.96"/>
<text text-anchor="start" x="1819.19" y="-828.8" font-family="Times,serif" font-size="14.00">CHECKIN_5.2.2.1</text>
<text text-anchor="start" x="1812.19" y="-813.8" font-family="Times,serif" font-size="14.00">TODO: NO ACTION.</text>
</g>
</g>
</svg>
